<?xml version="1.0" encoding="UTF-8" standalone="no"?>
<!DOCTYPE svg PUBLIC "-//W3C//DTD SVG 1.1//EN"
 "http://www.w3.org/Graphics/SVG/1.1/DTD/svg11.dtd">
<!-- Generated by graphviz version 2.38.0 (20140413.2041)
 -->
<!-- Title: %3 Pages: 1 -->
<svg width="160pt" height="188pt"
 viewBox="0.00 0.00 160.13 188.00" xmlns="http://www.w3.org/2000/svg" xmlns:xlink="http://www.w3.org/1999/xlink">
<g id="graph0" class="graph" transform="scale(1 1) rotate(0) translate(4 184)">
<title>%3</title>
<polygon fill="white" stroke="none" points="-4,4 -4,-184 156.127,-184 156.127,4 -4,4"/>
<!-- unload -->
<g id="node1" class="node"><title>unload</title>
<ellipse fill="none" stroke="black" cx="37.3208" cy="-162" rx="37.1424" ry="18"/>
<text text-anchor="middle" x="37.3208" y="-157.8" font-family="Times,serif" font-size="14.00">unload</text>
</g>
<!-- mass -->
<g id="node2" class="node"><title>mass</title>
<ellipse fill="lightcoral" stroke="black" cx="37.3208" cy="-90" rx="30.1938" ry="18"/>
<text text-anchor="middle" x="37.3208" y="-85.8" font-family="Times,serif" font-size="14.00">mass</text>
</g>
<!-- unload&#45;&gt;mass -->
<g id="edge1" class="edge"><title>unload&#45;&gt;mass</title>
<path fill="none" stroke="black" d="M37.3208,-143.697C37.3208,-135.983 37.3208,-126.712 37.3208,-118.112"/>
<polygon fill="black" stroke="black" points="40.8209,-118.104 37.3208,-108.104 33.8209,-118.104 40.8209,-118.104"/>
</g>
<!-- trab -->
<g id="node3" class="node"><title>trab</title>
<ellipse fill="#ee7621" stroke="black" cx="37.3208" cy="-18" rx="27" ry="18"/>
<text text-anchor="middle" x="37.3208" y="-13.8" font-family="Times,serif" font-size="14.00">trab</text>
</g>
<!-- mass&#45;&gt;trab -->
<g id="edge2" class="edge"><title>mass&#45;&gt;trab</title>
<path fill="none" stroke="black" d="M37.3208,-71.6966C37.3208,-63.9827 37.3208,-54.7125 37.3208,-46.1124"/>
<polygon fill="black" stroke="black" points="40.8209,-46.1043 37.3208,-36.1043 33.8209,-46.1044 40.8209,-46.1043"/>
</g>
<!-- stren -->
<g id="node4" class="node"><title>stren</title>
<ellipse fill="lightyellow" stroke="black" cx="122.321" cy="-162" rx="29.6127" ry="18"/>
<text text-anchor="middle" x="122.321" y="-157.8" font-family="Times,serif" font-size="14.00">stren</text>
</g>
</g>
</svg>

