<?xml version="1.0" encoding="UTF-8" standalone="no"?>
<!DOCTYPE svg PUBLIC "-//W3C//DTD SVG 1.1//EN"
 "http://www.w3.org/Graphics/SVG/1.1/DTD/svg11.dtd">
<!-- Generated by graphviz version 2.38.0 (20140413.2041)
 -->
<!-- Title: %3 Pages: 1 -->
<svg width="373pt" height="116pt"
 viewBox="0.00 0.00 372.64 116.00" xmlns="http://www.w3.org/2000/svg" xmlns:xlink="http://www.w3.org/1999/xlink">
<g id="graph0" class="graph" transform="scale(1 1) rotate(0) translate(4 112)">
<title>%3</title>
<polygon fill="white" stroke="none" points="-4,4 -4,-112 368.64,-112 368.64,4 -4,4"/>
<!-- BVTV -->
<g id="node1" class="node"><title>BVTV</title>
<ellipse fill="lightcoral" stroke="black" cx="37.3188" cy="-90" rx="37.1386" ry="18"/>
<text text-anchor="middle" x="37.3188" y="-85.8" font-family="Times,serif" font-size="14.00">BVTV</text>
</g>
<!-- BMD -->
<g id="node2" class="node"><title>BMD</title>
<ellipse fill="lightcoral" stroke="black" cx="37.3188" cy="-18" rx="33.0643" ry="18"/>
<text text-anchor="middle" x="37.3188" y="-13.8" font-family="Times,serif" font-size="14.00">BMD</text>
</g>
<!-- BVTV&#45;&gt;BMD -->
<g id="edge1" class="edge"><title>BVTV&#45;&gt;BMD</title>
<path fill="none" stroke="black" d="M37.3188,-71.6966C37.3188,-63.9827 37.3188,-54.7125 37.3188,-46.1124"/>
<polygon fill="black" stroke="black" points="40.8189,-46.1043 37.3188,-36.1043 33.8189,-46.1044 40.8189,-46.1043"/>
</g>
<!-- TbSp -->
<g id="node3" class="node"><title>TbSp</title>
<ellipse fill="#ee7621" stroke="black" cx="124.319" cy="-90" rx="31.9224" ry="18"/>
<text text-anchor="middle" x="124.319" y="-85.8" font-family="Times,serif" font-size="14.00">TbSp</text>
</g>
<!-- TbN -->
<g id="node4" class="node"><title>TbN</title>
<ellipse fill="#ee7621" stroke="black" cx="124.319" cy="-18" rx="28.9735" ry="18"/>
<text text-anchor="middle" x="124.319" y="-13.8" font-family="Times,serif" font-size="14.00">TbN</text>
</g>
<!-- TbSp&#45;&gt;TbN -->
<g id="edge2" class="edge"><title>TbSp&#45;&gt;TbN</title>
<path fill="none" stroke="black" d="M124.319,-71.6966C124.319,-63.9827 124.319,-54.7125 124.319,-46.1124"/>
<polygon fill="black" stroke="black" points="127.819,-46.1043 124.319,-36.1043 120.819,-46.1044 127.819,-46.1043"/>
</g>
<!-- MaxLoad -->
<g id="node5" class="node"><title>MaxLoad</title>
<ellipse fill="lightyellow" stroke="black" cx="223.319" cy="-90" rx="48.6578" ry="18"/>
<text text-anchor="middle" x="223.319" y="-85.8" font-family="Times,serif" font-size="14.00">MaxLoad</text>
</g>
<!-- FailLoad -->
<g id="node6" class="node"><title>FailLoad</title>
<ellipse fill="lightyellow" stroke="black" cx="223.319" cy="-18" rx="45.8041" ry="18"/>
<text text-anchor="middle" x="223.319" y="-13.8" font-family="Times,serif" font-size="14.00">FailLoad</text>
</g>
<!-- MaxLoad&#45;&gt;FailLoad -->
<g id="edge3" class="edge"><title>MaxLoad&#45;&gt;FailLoad</title>
<path fill="none" stroke="black" d="M223.319,-71.6966C223.319,-63.9827 223.319,-54.7125 223.319,-46.1124"/>
<polygon fill="black" stroke="black" points="226.819,-46.1043 223.319,-36.1043 219.819,-46.1044 226.819,-46.1043"/>
</g>
<!-- unload -->
<g id="node7" class="node"><title>unload</title>
<ellipse fill="none" stroke="black" cx="327.319" cy="-90" rx="37.1424" ry="18"/>
<text text-anchor="middle" x="327.319" y="-85.8" font-family="Times,serif" font-size="14.00">unload</text>
</g>
</g>
</svg>

