<?xml version="1.0" encoding="UTF-8" standalone="no"?>
<!DOCTYPE svg PUBLIC "-//W3C//DTD SVG 1.1//EN"
 "http://www.w3.org/Graphics/SVG/1.1/DTD/svg11.dtd">
<!-- Generated by graphviz version 2.38.0 (20140413.2041)
 -->
<!-- Title: %3 Pages: 1 -->
<svg width="184pt" height="188pt"
 viewBox="0.00 0.00 184.35 188.00" xmlns="http://www.w3.org/2000/svg" xmlns:xlink="http://www.w3.org/1999/xlink">
<g id="graph0" class="graph" transform="scale(1 1) rotate(0) translate(4 184)">
<title>%3</title>
<polygon fill="white" stroke="none" points="-4,4 -4,-184 180.347,-184 180.347,4 -4,4"/>
<!-- unload -->
<g id="node1" class="node"><title>unload</title>
<ellipse fill="none" stroke="black" cx="65.3465" cy="-162" rx="37.1424" ry="18"/>
<text text-anchor="middle" x="65.3465" y="-157.8" font-family="Times,serif" font-size="14.00">unload</text>
</g>
<!-- expose -->
<g id="node3" class="node"><title>expose</title>
<ellipse fill="none" stroke="black" cx="116.347" cy="-90" rx="37.7025" ry="18"/>
<text text-anchor="middle" x="116.347" y="-85.8" font-family="Times,serif" font-size="14.00">expose</text>
</g>
<!-- unload&#45;&gt;expose -->
<g id="edge1" class="edge"><title>unload&#45;&gt;expose</title>
<path fill="none" stroke="black" d="M77.1751,-144.765C83.5476,-136.018 91.5374,-125.052 98.6361,-115.308"/>
<polygon fill="black" stroke="black" points="101.522,-117.291 104.582,-107.147 95.8646,-113.169 101.522,-117.291"/>
</g>
<!-- mass -->
<g id="node4" class="node"><title>mass</title>
<ellipse fill="lightcoral" stroke="black" cx="30.3465" cy="-90" rx="30.1938" ry="18"/>
<text text-anchor="middle" x="30.3465" y="-85.8" font-family="Times,serif" font-size="14.00">mass</text>
</g>
<!-- unload&#45;&gt;mass -->
<g id="edge2" class="edge"><title>unload&#45;&gt;mass</title>
<path fill="none" stroke="black" d="M57.052,-144.411C52.9111,-136.129 47.809,-125.925 43.1775,-116.662"/>
<polygon fill="black" stroke="black" points="46.1842,-114.849 38.5815,-107.47 39.9232,-117.979 46.1842,-114.849"/>
</g>
<!-- dur -->
<g id="node2" class="node"><title>dur</title>
<ellipse fill="none" stroke="black" cx="149.347" cy="-162" rx="27" ry="18"/>
<text text-anchor="middle" x="149.347" y="-157.8" font-family="Times,serif" font-size="14.00">dur</text>
</g>
<!-- dur&#45;&gt;expose -->
<g id="edge3" class="edge"><title>dur&#45;&gt;expose</title>
<path fill="none" stroke="black" d="M141.526,-144.411C137.678,-136.249 132.95,-126.22 128.634,-117.065"/>
<polygon fill="black" stroke="black" points="131.77,-115.509 124.34,-107.956 125.439,-118.494 131.77,-115.509"/>
</g>
<!-- stren -->
<g id="node6" class="node"><title>stren</title>
<ellipse fill="lightyellow" stroke="black" cx="143.347" cy="-18" rx="29.6127" ry="18"/>
<text text-anchor="middle" x="143.347" y="-13.8" font-family="Times,serif" font-size="14.00">stren</text>
</g>
<!-- dur&#45;&gt;stren -->
<g id="edge4" class="edge"><title>dur&#45;&gt;stren</title>
<path fill="none" stroke="black" d="M155.358,-144.227C160.995,-126.305 167.921,-97.0816 163.347,-72 161.698,-62.9598 158.588,-53.4583 155.304,-45.0364"/>
<polygon fill="black" stroke="black" points="158.511,-43.6329 151.445,-35.7382 152.045,-46.316 158.511,-43.6329"/>
</g>
<!-- trab -->
<g id="node5" class="node"><title>trab</title>
<ellipse fill="#ee7621" stroke="black" cx="30.3465" cy="-18" rx="27" ry="18"/>
<text text-anchor="middle" x="30.3465" y="-13.8" font-family="Times,serif" font-size="14.00">trab</text>
</g>
<!-- mass&#45;&gt;trab -->
<g id="edge5" class="edge"><title>mass&#45;&gt;trab</title>
<path fill="none" stroke="black" d="M30.3465,-71.6966C30.3465,-63.9827 30.3465,-54.7125 30.3465,-46.1124"/>
<polygon fill="black" stroke="black" points="33.8466,-46.1043 30.3465,-36.1043 26.8466,-46.1044 33.8466,-46.1043"/>
</g>
<!-- mass&#45;&gt;stren -->
<g id="edge6" class="edge"><title>mass&#45;&gt;stren</title>
<path fill="none" stroke="black" d="M50.5487,-76.4854C68.3851,-65.4363 94.5911,-49.2025 114.609,-36.8018"/>
<polygon fill="black" stroke="black" points="116.661,-39.6478 123.319,-31.4063 112.975,-33.6971 116.661,-39.6478"/>
</g>
</g>
</svg>

