<?xml version="1.0" encoding="UTF-8" standalone="no"?>
<!DOCTYPE svg PUBLIC "-//W3C//DTD SVG 1.1//EN"
 "http://www.w3.org/Graphics/SVG/1.1/DTD/svg11.dtd">
<!-- Generated by graphviz version 2.38.0 (20140413.2041)
 -->
<!-- Title: %3 Pages: 1 -->
<svg width="9414pt" height="6861pt"
 viewBox="0.00 0.00 9413.81 6861.14" xmlns="http://www.w3.org/2000/svg" xmlns:xlink="http://www.w3.org/1999/xlink">
<g id="graph0" class="graph" transform="scale(1 1) rotate(0) translate(4 6857.14)">
<title>%3</title>
<polygon fill="white" stroke="none" points="-4,4 -4,-6857.14 9409.81,-6857.14 9409.81,4 -4,4"/>
<!-- Bgd_Si.350.MeV.n_4 -->
<g id="node1" class="node"><title>Bgd_Si.350.MeV.n_4</title>
<ellipse fill="lightcoral" stroke="black" cx="8496.32" cy="-6727.63" rx="96.1396" ry="18"/>
<text text-anchor="middle" x="8496.32" y="-6723.43" font-family="Times,serif" font-size="14.00">Bgd_Si.350.MeV.n_4</text>
</g>
<!-- Bgd_Si.350.MeV.n_24 -->
<g id="node5" class="node"><title>Bgd_Si.350.MeV.n_24</title>
<ellipse fill="lightcoral" stroke="black" cx="8388.81" cy="-6468.08" rx="100.797" ry="18"/>
<text text-anchor="middle" x="8388.81" y="-6463.88" font-family="Times,serif" font-size="14.00">Bgd_Si.350.MeV.n_24</text>
</g>
<!-- Bgd_Si.350.MeV.n_4&#45;&gt;Bgd_Si.350.MeV.n_24 -->
<g id="edge2" class="edge"><title>Bgd_Si.350.MeV.n_4&#45;&gt;Bgd_Si.350.MeV.n_24</title>
<path fill="none" stroke="black" d="M8488.76,-6709.38C8470.21,-6664.61 8422.38,-6549.13 8400.29,-6495.81"/>
<polygon fill="black" stroke="black" points="8403.42,-6494.21 8396.36,-6486.32 8396.95,-6496.89 8403.42,-6494.21"/>
</g>
<!-- Bgd_Si.350.MeV.n_24.1 -->
<g id="node35" class="node"><title>Bgd_Si.350.MeV.n_24.1</title>
<ellipse fill="lightcoral" stroke="black" cx="9015.41" cy="-6727.63" rx="108.282" ry="18"/>
<text text-anchor="middle" x="9015.41" y="-6723.43" font-family="Times,serif" font-size="14.00">Bgd_Si.350.MeV.n_24.1</text>
</g>
<!-- Bgd_Si.350.MeV.n_4&#45;&gt;Bgd_Si.350.MeV.n_24.1 -->
<g id="edge1" class="edge"><title>Bgd_Si.350.MeV.n_4&#45;&gt;Bgd_Si.350.MeV.n_24.1</title>
<path fill="none" stroke="black" d="M8592.43,-6727.63C8678.31,-6727.63 8804.42,-6727.63 8896.6,-6727.63"/>
<polygon fill="black" stroke="black" points="8896.81,-6731.13 8906.81,-6727.63 8896.81,-6724.13 8896.81,-6731.13"/>
</g>
<!-- FociPerGy_Si.350.MeV.n_4 -->
<g id="node2" class="node"><title>FociPerGy_Si.350.MeV.n_4</title>
<ellipse fill="lightcoral" stroke="black" cx="4890.86" cy="-3532.08" rx="121.619" ry="18"/>
<text text-anchor="middle" x="4890.86" y="-3527.88" font-family="Times,serif" font-size="14.00">FociPerGy_Si.350.MeV.n_4</text>
</g>
<!-- Bgd_Si.350.MeV.n_8 -->
<g id="node3" class="node"><title>Bgd_Si.350.MeV.n_8</title>
<ellipse fill="lightcoral" stroke="black" cx="8755.86" cy="-6835.14" rx="96.1396" ry="18"/>
<text text-anchor="middle" x="8755.86" y="-6830.94" font-family="Times,serif" font-size="14.00">Bgd_Si.350.MeV.n_8</text>
</g>
<!-- Bgd_Si.350.MeV.n_8&#45;&gt;Bgd_Si.350.MeV.n_24.1 -->
<g id="edge3" class="edge"><title>Bgd_Si.350.MeV.n_8&#45;&gt;Bgd_Si.350.MeV.n_24.1</title>
<path fill="none" stroke="black" d="M8795.56,-6818.69C8841.09,-6799.83 8915.81,-6768.88 8965.31,-6748.38"/>
<polygon fill="black" stroke="black" points="8966.95,-6751.49 8974.85,-6744.43 8964.27,-6745.02 8966.95,-6751.49"/>
</g>
<!-- FociPerGy_Si.350.MeV.n_8 -->
<g id="node4" class="node"><title>FociPerGy_Si.350.MeV.n_8</title>
<ellipse fill="lightcoral" stroke="black" cx="5392.86" cy="-4034.08" rx="121.619" ry="18"/>
<text text-anchor="middle" x="5392.86" y="-4029.88" font-family="Times,serif" font-size="14.00">FociPerGy_Si.350.MeV.n_8</text>
</g>
<!-- Bgd_Si.350.MeV.n_24&#45;&gt;Bgd_Si.350.MeV.n_8 -->
<g id="edge4" class="edge"><title>Bgd_Si.350.MeV.n_24&#45;&gt;Bgd_Si.350.MeV.n_8</title>
<path fill="none" stroke="black" d="M8406.76,-6486.04C8466.89,-6546.17 8661.33,-6740.6 8730.85,-6810.13"/>
<polygon fill="black" stroke="black" points="8728.4,-6812.62 8737.94,-6817.22 8733.35,-6807.67 8728.4,-6812.62"/>
</g>
<!-- Bgd_Si.350.MeV.n_4.1 -->
<g id="node31" class="node"><title>Bgd_Si.350.MeV.n_4.1</title>
<ellipse fill="lightcoral" stroke="black" cx="8496.32" cy="-6208.54" rx="103.125" ry="18"/>
<text text-anchor="middle" x="8496.32" y="-6204.34" font-family="Times,serif" font-size="14.00">Bgd_Si.350.MeV.n_4.1</text>
</g>
<!-- Bgd_Si.350.MeV.n_24&#45;&gt;Bgd_Si.350.MeV.n_4.1 -->
<g id="edge6" class="edge"><title>Bgd_Si.350.MeV.n_24&#45;&gt;Bgd_Si.350.MeV.n_4.1</title>
<path fill="none" stroke="black" d="M8396.37,-6449.83C8414.91,-6405.06 8462.75,-6289.58 8484.83,-6236.27"/>
<polygon fill="black" stroke="black" points="8488.17,-6237.35 8488.76,-6226.77 8481.7,-6234.67 8488.17,-6237.35"/>
</g>
<!-- Bgd_Si.350.MeV.n_8.1 -->
<g id="node33" class="node"><title>Bgd_Si.350.MeV.n_8.1</title>
<ellipse fill="lightcoral" stroke="black" cx="7949.2" cy="-6468.08" rx="103.125" ry="18"/>
<text text-anchor="middle" x="7949.2" y="-6463.88" font-family="Times,serif" font-size="14.00">Bgd_Si.350.MeV.n_8.1</text>
</g>
<!-- Bgd_Si.350.MeV.n_24&#45;&gt;Bgd_Si.350.MeV.n_8.1 -->
<g id="edge5" class="edge"><title>Bgd_Si.350.MeV.n_24&#45;&gt;Bgd_Si.350.MeV.n_8.1</title>
<path fill="none" stroke="black" d="M8287.68,-6468.08C8220.62,-6468.08 8132.52,-6468.08 8063.01,-6468.08"/>
<polygon fill="black" stroke="black" points="8062.89,-6464.59 8052.89,-6468.08 8062.89,-6471.59 8062.89,-6464.59"/>
</g>
<!-- Bgd_Ar.350.MeV.n_8.1 -->
<g id="node41" class="node"><title>Bgd_Ar.350.MeV.n_8.1</title>
<ellipse fill="#ee7621" stroke="black" cx="8755.86" cy="-6101.03" rx="105.393" ry="18"/>
<text text-anchor="middle" x="8755.86" y="-6096.83" font-family="Times,serif" font-size="14.00">Bgd_Ar.350.MeV.n_8.1</text>
</g>
<!-- Bgd_Si.350.MeV.n_24&#45;&gt;Bgd_Ar.350.MeV.n_8.1 -->
<g id="edge7" class="edge"><title>Bgd_Si.350.MeV.n_24&#45;&gt;Bgd_Ar.350.MeV.n_8.1</title>
<path fill="none" stroke="black" d="M8406.76,-6450.13C8466.89,-6390 8661.33,-6195.57 8730.85,-6126.04"/>
<polygon fill="black" stroke="black" points="8733.35,-6128.5 8737.94,-6118.95 8728.4,-6123.55 8733.35,-6128.5"/>
</g>
<!-- FociPerGy_Si.350.MeV.n_24 -->
<g id="node6" class="node"><title>FociPerGy_Si.350.MeV.n_24</title>
<ellipse fill="lightcoral" stroke="black" cx="5446.76" cy="-1819.25" rx="126.776" ry="18"/>
<text text-anchor="middle" x="5446.76" y="-1815.05" font-family="Times,serif" font-size="14.00">FociPerGy_Si.350.MeV.n_24</text>
</g>
<!-- Bgd_Fe.600.MeV.n_48 -->
<g id="node23" class="node"><title>Bgd_Fe.600.MeV.n_48</title>
<ellipse fill="lightyellow" stroke="black" cx="5348.24" cy="-1146.67" rx="102.503" ry="18"/>
<text text-anchor="middle" x="5348.24" y="-1142.47" font-family="Times,serif" font-size="14.00">Bgd_Fe.600.MeV.n_48</text>
</g>
<!-- FociPerGy_Si.350.MeV.n_24&#45;&gt;Bgd_Fe.600.MeV.n_48 -->
<g id="edge9" class="edge"><title>FociPerGy_Si.350.MeV.n_24&#45;&gt;Bgd_Fe.600.MeV.n_48</title>
<path fill="none" stroke="black" d="M5444.08,-1800.91C5430.44,-1707.8 5368.86,-1287.44 5352.34,-1174.61"/>
<polygon fill="black" stroke="black" points="5355.79,-1174.06 5350.88,-1164.68 5348.87,-1175.08 5355.79,-1174.06"/>
</g>
<!-- Bgd_Fe.600.MeV.n_48.1 -->
<g id="node53" class="node"><title>Bgd_Fe.600.MeV.n_48.1</title>
<ellipse fill="lightyellow" stroke="black" cx="5185.84" cy="-845.468" rx="109.989" ry="18"/>
<text text-anchor="middle" x="5185.84" y="-841.268" font-family="Times,serif" font-size="14.00">Bgd_Fe.600.MeV.n_48.1</text>
</g>
<!-- FociPerGy_Si.350.MeV.n_24&#45;&gt;Bgd_Fe.600.MeV.n_48.1 -->
<g id="edge10" class="edge"><title>FociPerGy_Si.350.MeV.n_24&#45;&gt;Bgd_Fe.600.MeV.n_48.1</title>
<path fill="none" stroke="black" d="M5441.9,-1801.09C5410.11,-1682.47 5232.14,-1018.28 5193.32,-873.384"/>
<polygon fill="black" stroke="black" points="5196.64,-872.252 5190.67,-863.499 5189.88,-874.064 5196.64,-872.252"/>
</g>
<!-- Bgd_X.ray_24.1 -->
<g id="node57" class="node"><title>Bgd_X.ray_24.1</title>
<ellipse fill="lightgreen" stroke="black" cx="5377.56" cy="-2154.38" rx="75.3118" ry="18"/>
<text text-anchor="middle" x="5377.56" y="-2150.18" font-family="Times,serif" font-size="14.00">Bgd_X.ray_24.1</text>
</g>
<!-- FociPerGy_Si.350.MeV.n_24&#45;&gt;Bgd_X.ray_24.1 -->
<g id="edge8" class="edge"><title>FociPerGy_Si.350.MeV.n_24&#45;&gt;Bgd_X.ray_24.1</title>
<path fill="none" stroke="black" d="M5443.04,-1837.27C5431.64,-1892.5 5397.1,-2059.74 5383.33,-2126.46"/>
<polygon fill="black" stroke="black" points="5379.9,-2125.77 5381.3,-2136.27 5386.75,-2127.18 5379.9,-2125.77"/>
</g>
<!-- Bgd_Si.350.MeV.n_48 -->
<g id="node7" class="node"><title>Bgd_Si.350.MeV.n_48</title>
<ellipse fill="lightcoral" stroke="black" cx="3680.55" cy="-247.456" rx="100.797" ry="18"/>
<text text-anchor="middle" x="3680.55" y="-243.256" font-family="Times,serif" font-size="14.00">Bgd_Si.350.MeV.n_48</text>
</g>
<!-- Bgd_Ar.350.MeV.n_24 -->
<g id="node13" class="node"><title>Bgd_Ar.350.MeV.n_24</title>
<ellipse fill="#ee7621" stroke="black" cx="4958.35" cy="-589.841" rx="103.065" ry="18"/>
<text text-anchor="middle" x="4958.35" y="-585.641" font-family="Times,serif" font-size="14.00">Bgd_Ar.350.MeV.n_24</text>
</g>
<!-- Bgd_Si.350.MeV.n_48&#45;&gt;Bgd_Ar.350.MeV.n_24 -->
<g id="edge12" class="edge"><title>Bgd_Si.350.MeV.n_48&#45;&gt;Bgd_Ar.350.MeV.n_24</title>
<path fill="none" stroke="black" d="M3736.69,-262.498C3944.35,-318.141 4668.49,-512.172 4892.08,-572.083"/>
<polygon fill="black" stroke="black" points="4891.46,-575.542 4902.03,-574.749 4893.27,-568.78 4891.46,-575.542"/>
</g>
<!-- Bgd_Ar.350.MeV.n_24.1 -->
<g id="node43" class="node"><title>Bgd_Ar.350.MeV.n_24.1</title>
<ellipse fill="#ee7621" stroke="black" cx="3064.48" cy="-534.735" rx="110.051" ry="18"/>
<text text-anchor="middle" x="3064.48" y="-530.535" font-family="Times,serif" font-size="14.00">Bgd_Ar.350.MeV.n_24.1</text>
</g>
<!-- Bgd_Si.350.MeV.n_48&#45;&gt;Bgd_Ar.350.MeV.n_24.1 -->
<g id="edge13" class="edge"><title>Bgd_Si.350.MeV.n_48&#45;&gt;Bgd_Ar.350.MeV.n_24.1</title>
<path fill="none" stroke="black" d="M3644.31,-264.354C3538.09,-313.888 3227.58,-458.68 3110.16,-513.431"/>
<polygon fill="black" stroke="black" points="3108.64,-510.279 3101.06,-517.677 3111.6,-516.623 3108.64,-510.279"/>
</g>
<!-- Bgd_Fe.600.MeV.n_4.1 -->
<g id="node47" class="node"><title>Bgd_Fe.600.MeV.n_4.1</title>
<ellipse fill="lightyellow" stroke="black" cx="2822.51" cy="-776.702" rx="104.831" ry="18"/>
<text text-anchor="middle" x="2822.51" y="-772.502" font-family="Times,serif" font-size="14.00">Bgd_Fe.600.MeV.n_4.1</text>
</g>
<!-- Bgd_Si.350.MeV.n_48&#45;&gt;Bgd_Fe.600.MeV.n_4.1 -->
<g id="edge11" class="edge"><title>Bgd_Si.350.MeV.n_48&#45;&gt;Bgd_Fe.600.MeV.n_4.1</title>
<path fill="none" stroke="black" d="M3652.49,-264.764C3525.33,-343.199 3003.12,-665.301 2859.32,-753.999"/>
<polygon fill="black" stroke="black" points="2857.46,-751.03 2850.79,-759.259 2861.14,-756.988 2857.46,-751.03"/>
</g>
<!-- FociPerGy_Si.350.MeV.n_48 -->
<g id="node8" class="node"><title>FociPerGy_Si.350.MeV.n_48</title>
<ellipse fill="lightcoral" stroke="black" cx="4644.86" cy="-4034.08" rx="126.776" ry="18"/>
<text text-anchor="middle" x="4644.86" y="-4029.88" font-family="Times,serif" font-size="14.00">FociPerGy_Si.350.MeV.n_48</text>
</g>
<!-- Bgd_Ar.350.MeV.n_4 -->
<g id="node9" class="node"><title>Bgd_Ar.350.MeV.n_4</title>
<ellipse fill="#ee7621" stroke="black" cx="9015.41" cy="-6208.54" rx="98.4083" ry="18"/>
<text text-anchor="middle" x="9015.41" y="-6204.34" font-family="Times,serif" font-size="14.00">Bgd_Ar.350.MeV.n_4</text>
</g>
<!-- Bgd_Ar.350.MeV.n_8 -->
<g id="node11" class="node"><title>Bgd_Ar.350.MeV.n_8</title>
<ellipse fill="#ee7621" stroke="black" cx="9122.91" cy="-6468.08" rx="98.4083" ry="18"/>
<text text-anchor="middle" x="9122.91" y="-6463.88" font-family="Times,serif" font-size="14.00">Bgd_Ar.350.MeV.n_8</text>
</g>
<!-- Bgd_Ar.350.MeV.n_4&#45;&gt;Bgd_Ar.350.MeV.n_8 -->
<g id="edge14" class="edge"><title>Bgd_Ar.350.MeV.n_4&#45;&gt;Bgd_Ar.350.MeV.n_8</title>
<path fill="none" stroke="black" d="M9022.97,-6226.79C9041.51,-6271.56 9089.34,-6387.04 9111.43,-6440.36"/>
<polygon fill="black" stroke="black" points="9108.3,-6441.96 9115.36,-6449.85 9114.77,-6439.28 9108.3,-6441.96"/>
</g>
<!-- Bgd_Ar.350.MeV.n_4&#45;&gt;Bgd_Ar.350.MeV.n_8.1 -->
<g id="edge15" class="edge"><title>Bgd_Ar.350.MeV.n_4&#45;&gt;Bgd_Ar.350.MeV.n_8.1</title>
<path fill="none" stroke="black" d="M8975.42,-6191.98C8929.83,-6173.09 8855.24,-6142.2 8805.85,-6121.74"/>
<polygon fill="black" stroke="black" points="8806.9,-6118.38 8796.32,-6117.79 8804.22,-6124.85 8806.9,-6118.38"/>
</g>
<!-- FociPerGy_Ar.350.MeV.n_4 -->
<g id="node10" class="node"><title>FociPerGy_Ar.350.MeV.n_4</title>
<ellipse fill="#ee7621" stroke="black" cx="3860.27" cy="-18" rx="123.887" ry="18"/>
<text text-anchor="middle" x="3860.27" y="-13.8" font-family="Times,serif" font-size="14.00">FociPerGy_Ar.350.MeV.n_4</text>
</g>
<!-- Bgd_Ar.350.MeV.n_8&#45;&gt;Bgd_Si.350.MeV.n_24 -->
<g id="edge17" class="edge"><title>Bgd_Ar.350.MeV.n_8&#45;&gt;Bgd_Si.350.MeV.n_24</title>
<path fill="none" stroke="black" d="M9024.67,-6468.08C8888.46,-6468.08 8642.93,-6468.08 8500.1,-6468.08"/>
<polygon fill="black" stroke="black" points="8500,-6464.59 8490,-6468.08 8500,-6471.59 8500,-6464.59"/>
</g>
<!-- Bgd_Ar.350.MeV.n_8&#45;&gt;Bgd_Si.350.MeV.n_24.1 -->
<g id="edge18" class="edge"><title>Bgd_Ar.350.MeV.n_8&#45;&gt;Bgd_Si.350.MeV.n_24.1</title>
<path fill="none" stroke="black" d="M9115.35,-6486.34C9096.81,-6531.1 9048.97,-6646.59 9026.89,-6699.9"/>
<polygon fill="black" stroke="black" points="9023.55,-6698.82 9022.96,-6709.4 9030.02,-6701.5 9023.55,-6698.82"/>
</g>
<!-- Bgd_Ar.350.MeV.n_4.1 -->
<g id="node39" class="node"><title>Bgd_Ar.350.MeV.n_4.1</title>
<ellipse fill="#ee7621" stroke="black" cx="9300.36" cy="-6468.08" rx="105.393" ry="18"/>
<text text-anchor="middle" x="9300.36" y="-6463.88" font-family="Times,serif" font-size="14.00">Bgd_Ar.350.MeV.n_4.1</text>
</g>
<!-- Bgd_Ar.350.MeV.n_8&#45;&gt;Bgd_Ar.350.MeV.n_4.1 -->
<g id="edge16" class="edge"><title>Bgd_Ar.350.MeV.n_8&#45;&gt;Bgd_Ar.350.MeV.n_4.1</title>
<path fill="none" stroke="black" d="M9221.24,-6468.08C9221.32,-6468.08 9221.4,-6468.08 9221.48,-6468.08"/>
<polygon fill="black" stroke="black" points="9211.72,-6471.59 9221.72,-6468.08 9211.71,-6464.59 9211.72,-6471.59"/>
</g>
<!-- FociPerGy_Ar.350.MeV.n_8 -->
<g id="node12" class="node"><title>FociPerGy_Ar.350.MeV.n_8</title>
<ellipse fill="#ee7621" stroke="black" cx="4139.86" cy="-2779.08" rx="123.887" ry="18"/>
<text text-anchor="middle" x="4139.86" y="-2774.88" font-family="Times,serif" font-size="14.00">FociPerGy_Ar.350.MeV.n_8</text>
</g>
<!-- Bgd_Ar.350.MeV.n_48 -->
<g id="node15" class="node"><title>Bgd_Ar.350.MeV.n_48</title>
<ellipse fill="#ee7621" stroke="black" cx="3355.72" cy="-355.091" rx="103.065" ry="18"/>
<text text-anchor="middle" x="3355.72" y="-350.891" font-family="Times,serif" font-size="14.00">Bgd_Ar.350.MeV.n_48</text>
</g>
<!-- Bgd_Ar.350.MeV.n_24&#45;&gt;Bgd_Ar.350.MeV.n_48 -->
<g id="edge19" class="edge"><title>Bgd_Ar.350.MeV.n_24&#45;&gt;Bgd_Ar.350.MeV.n_48</title>
<path fill="none" stroke="black" d="M4879.15,-578.239C4609.65,-538.765 3729.22,-409.8 3445.03,-368.173"/>
<polygon fill="black" stroke="black" points="3445.18,-364.656 3434.77,-366.67 3444.16,-371.582 3445.18,-364.656"/>
</g>
<!-- Bgd_Si.350.MeV.n_48.1 -->
<g id="node37" class="node"><title>Bgd_Si.350.MeV.n_48.1</title>
<ellipse fill="lightcoral" stroke="black" cx="4678.04" cy="-393.566" rx="108.282" ry="18"/>
<text text-anchor="middle" x="4678.04" y="-389.366" font-family="Times,serif" font-size="14.00">Bgd_Si.350.MeV.n_48.1</text>
</g>
<!-- Bgd_Ar.350.MeV.n_24&#45;&gt;Bgd_Si.350.MeV.n_48.1 -->
<g id="edge22" class="edge"><title>Bgd_Ar.350.MeV.n_24&#45;&gt;Bgd_Si.350.MeV.n_48.1</title>
<path fill="none" stroke="black" d="M4932.98,-572.076C4882.22,-536.533 4768.17,-456.674 4711.42,-416.94"/>
<polygon fill="black" stroke="black" points="4713.35,-414.018 4703.15,-411.149 4709.33,-419.752 4713.35,-414.018"/>
</g>
<!-- Bgd_Ar.350.MeV.n_48.1 -->
<g id="node45" class="node"><title>Bgd_Ar.350.MeV.n_48.1</title>
<ellipse fill="#ee7621" stroke="black" cx="4360.02" cy="-267.226" rx="110.051" ry="18"/>
<text text-anchor="middle" x="4360.02" y="-263.026" font-family="Times,serif" font-size="14.00">Bgd_Ar.350.MeV.n_48.1</text>
</g>
<!-- Bgd_Ar.350.MeV.n_24&#45;&gt;Bgd_Ar.350.MeV.n_48.1 -->
<g id="edge20" class="edge"><title>Bgd_Ar.350.MeV.n_24&#45;&gt;Bgd_Ar.350.MeV.n_48.1</title>
<path fill="none" stroke="black" d="M4926.18,-572.496C4825.01,-517.947 4513.39,-349.922 4400.98,-289.313"/>
<polygon fill="black" stroke="black" points="4402.45,-286.126 4391.99,-284.461 4399.13,-292.288 4402.45,-286.126"/>
</g>
<!-- Bgd_Ar.350.MeV.n_24&#45;&gt;Bgd_Fe.600.MeV.n_48.1 -->
<g id="edge21" class="edge"><title>Bgd_Ar.350.MeV.n_24&#45;&gt;Bgd_Fe.600.MeV.n_48.1</title>
<path fill="none" stroke="black" d="M4974.35,-607.816C5013.99,-652.368 5116.92,-768.022 5162.97,-819.776"/>
<polygon fill="black" stroke="black" points="5160.6,-822.369 5169.86,-827.513 5165.83,-817.716 5160.6,-822.369"/>
</g>
<!-- FociPerGy_Ar.350.MeV.n_24 -->
<g id="node14" class="node"><title>FociPerGy_Ar.350.MeV.n_24</title>
<ellipse fill="#ee7621" stroke="black" cx="5901.86" cy="-2528.08" rx="128.544" ry="18"/>
<text text-anchor="middle" x="5901.86" y="-2523.88" font-family="Times,serif" font-size="14.00">FociPerGy_Ar.350.MeV.n_24</text>
</g>
<!-- Bgd_Ar.350.MeV.n_48&#45;&gt;Bgd_Ar.350.MeV.n_24.1 -->
<g id="edge23" class="edge"><title>Bgd_Ar.350.MeV.n_48&#45;&gt;Bgd_Ar.350.MeV.n_24.1</title>
<path fill="none" stroke="black" d="M3327.53,-372.479C3274.71,-405.06 3160.86,-475.288 3101.77,-511.736"/>
<polygon fill="black" stroke="black" points="3099.79,-508.843 3093.11,-517.072 3103.46,-514.801 3099.79,-508.843"/>
</g>
<!-- Bgd_Ar.350.MeV.n_48&#45;&gt;Bgd_Fe.600.MeV.n_4.1 -->
<g id="edge24" class="edge"><title>Bgd_Ar.350.MeV.n_48&#45;&gt;Bgd_Fe.600.MeV.n_4.1</title>
<path fill="none" stroke="black" d="M3333.49,-372.67C3249.22,-439.301 2949.39,-676.38 2852.76,-752.785"/>
<polygon fill="black" stroke="black" points="2850.51,-750.1 2844.84,-759.048 2854.85,-755.591 2850.51,-750.1"/>
</g>
<!-- FociPerGy_Ar.350.MeV.n_48 -->
<g id="node16" class="node"><title>FociPerGy_Ar.350.MeV.n_48</title>
<ellipse fill="#ee7621" stroke="black" cx="1130.84" cy="-2527.06" rx="128.544" ry="18"/>
<text text-anchor="middle" x="1130.84" y="-2522.86" font-family="Times,serif" font-size="14.00">FociPerGy_Ar.350.MeV.n_48</text>
</g>
<!-- FociPerGy_X.ray_24 -->
<g id="node28" class="node"><title>FociPerGy_X.ray_24</title>
<ellipse fill="lightgreen" stroke="black" cx="1046.21" cy="-2851.45" rx="93.8056" ry="18"/>
<text text-anchor="middle" x="1046.21" y="-2847.25" font-family="Times,serif" font-size="14.00">FociPerGy_X.ray_24</text>
</g>
<!-- FociPerGy_Ar.350.MeV.n_48&#45;&gt;FociPerGy_X.ray_24 -->
<g id="edge25" class="edge"><title>FociPerGy_Ar.350.MeV.n_48&#45;&gt;FociPerGy_X.ray_24</title>
<path fill="none" stroke="black" d="M1126.05,-2545.43C1111.94,-2599.51 1070.47,-2758.44 1053.54,-2823.35"/>
<polygon fill="black" stroke="black" points="1050.09,-2822.72 1050.95,-2833.28 1056.86,-2824.49 1050.09,-2822.72"/>
</g>
<!-- FociPerGy_X.ray_24.1 -->
<g id="node58" class="node"><title>FociPerGy_X.ray_24.1</title>
<ellipse fill="lightgreen" stroke="black" cx="347.677" cy="-2322.74" rx="101.291" ry="18"/>
<text text-anchor="middle" x="347.677" y="-2318.54" font-family="Times,serif" font-size="14.00">FociPerGy_X.ray_24.1</text>
</g>
<!-- FociPerGy_Ar.350.MeV.n_48&#45;&gt;FociPerGy_X.ray_24.1 -->
<g id="edge26" class="edge"><title>FociPerGy_Ar.350.MeV.n_48&#45;&gt;FociPerGy_X.ray_24.1</title>
<path fill="none" stroke="black" d="M1069.71,-2511.11C925.52,-2473.49 565.035,-2379.44 414.925,-2340.28"/>
<polygon fill="black" stroke="black" points="415.476,-2336.81 404.916,-2337.67 413.709,-2343.58 415.476,-2336.81"/>
</g>
<!-- Bgd_Fe.600.MeV.n_4 -->
<g id="node17" class="node"><title>Bgd_Fe.600.MeV.n_4</title>
<ellipse fill="lightyellow" stroke="black" cx="4021.44" cy="-217.631" rx="97.8459" ry="18"/>
<text text-anchor="middle" x="4021.44" y="-213.431" font-family="Times,serif" font-size="14.00">Bgd_Fe.600.MeV.n_4</text>
</g>
<!-- Bgd_Fe.600.MeV.n_4&#45;&gt;Bgd_Si.350.MeV.n_48 -->
<g id="edge33" class="edge"><title>Bgd_Fe.600.MeV.n_4&#45;&gt;Bgd_Si.350.MeV.n_48</title>
<path fill="none" stroke="black" d="M3932.77,-225.39C3886.35,-229.45 3829.34,-234.438 3781.27,-238.644"/>
<polygon fill="black" stroke="black" points="3780.81,-235.17 3771.15,-239.529 3781.42,-242.144 3780.81,-235.17"/>
</g>
<!-- Bgd_Fe.600.MeV.n_4&#45;&gt;FociPerGy_Ar.350.MeV.n_4 -->
<g id="edge31" class="edge"><title>Bgd_Fe.600.MeV.n_4&#45;&gt;FociPerGy_Ar.350.MeV.n_4</title>
<path fill="none" stroke="black" d="M4006.85,-199.563C3978.15,-164.006 3914.24,-84.8435 3881.1,-43.7974"/>
<polygon fill="black" stroke="black" points="3883.71,-41.4655 3874.71,-35.8834 3878.27,-45.8628 3883.71,-41.4655"/>
</g>
<!-- Bgd_Fe.600.MeV.n_4&#45;&gt;Bgd_Ar.350.MeV.n_48 -->
<g id="edge29" class="edge"><title>Bgd_Fe.600.MeV.n_4&#45;&gt;Bgd_Ar.350.MeV.n_48</title>
<path fill="none" stroke="black" d="M3956.4,-231.062C3832.84,-256.575 3564.74,-311.932 3432.56,-339.225"/>
<polygon fill="black" stroke="black" points="3431.6,-335.85 3422.51,-341.3 3433.02,-342.705 3431.6,-335.85"/>
</g>
<!-- Bgd_Fe.600.MeV.n_4&#45;&gt;Bgd_Si.350.MeV.n_48.1 -->
<g id="edge27" class="edge"><title>Bgd_Fe.600.MeV.n_4&#45;&gt;Bgd_Si.350.MeV.n_48.1</title>
<path fill="none" stroke="black" d="M4076.86,-232.48C4196.93,-264.655 4480.77,-340.707 4610.83,-375.556"/>
<polygon fill="black" stroke="black" points="4610.11,-378.987 4620.67,-378.195 4611.92,-372.226 4610.11,-378.987"/>
</g>
<!-- FociPerGy_Ar.350.MeV.n_4.1 -->
<g id="node40" class="node"><title>FociPerGy_Ar.350.MeV.n_4.1</title>
<ellipse fill="#ee7621" stroke="black" cx="4186.76" cy="-26.7944" rx="131.373" ry="18"/>
<text text-anchor="middle" x="4186.76" y="-22.5944" font-family="Times,serif" font-size="14.00">FociPerGy_Ar.350.MeV.n_4.1</text>
</g>
<!-- Bgd_Fe.600.MeV.n_4&#45;&gt;FociPerGy_Ar.350.MeV.n_4.1 -->
<g id="edge32" class="edge"><title>Bgd_Fe.600.MeV.n_4&#45;&gt;FociPerGy_Ar.350.MeV.n_4.1</title>
<path fill="none" stroke="black" d="M4036.99,-199.678C4066.41,-165.721 4130.29,-91.9792 4164.34,-52.6765"/>
<polygon fill="black" stroke="black" points="4167.23,-54.6892 4171.13,-44.8392 4161.94,-50.1058 4167.23,-54.6892"/>
</g>
<!-- Bgd_Fe.600.MeV.n_4&#45;&gt;Bgd_Ar.350.MeV.n_48.1 -->
<g id="edge30" class="edge"><title>Bgd_Fe.600.MeV.n_4&#45;&gt;Bgd_Ar.350.MeV.n_48.1</title>
<path fill="none" stroke="black" d="M4098.27,-228.885C4148.59,-236.255 4214.62,-245.928 4267.77,-253.714"/>
<polygon fill="black" stroke="black" points="4267.48,-257.208 4277.88,-255.194 4268.49,-250.282 4267.48,-257.208"/>
</g>
<!-- Bgd_Fe.600.MeV.n_24.1 -->
<g id="node51" class="node"><title>Bgd_Fe.600.MeV.n_24.1</title>
<ellipse fill="lightyellow" stroke="black" cx="3434.44" cy="-3060.47" rx="109.989" ry="18"/>
<text text-anchor="middle" x="3434.44" y="-3056.27" font-family="Times,serif" font-size="14.00">Bgd_Fe.600.MeV.n_24.1</text>
</g>
<!-- Bgd_Fe.600.MeV.n_4&#45;&gt;Bgd_Fe.600.MeV.n_24.1 -->
<g id="edge28" class="edge"><title>Bgd_Fe.600.MeV.n_4&#45;&gt;Bgd_Fe.600.MeV.n_24.1</title>
<path fill="none" stroke="black" d="M4017.69,-235.785C3970.77,-463.038 3498.09,-2752.22 3440.24,-3032.41"/>
<polygon fill="black" stroke="black" points="3436.81,-3031.71 3438.21,-3042.21 3443.66,-3033.13 3436.81,-3031.71"/>
</g>
<!-- FociPerGy_Fe.600.MeV.n_4 -->
<g id="node18" class="node"><title>FociPerGy_Fe.600.MeV.n_4</title>
<ellipse fill="lightyellow" stroke="black" cx="3133.24" cy="-2898.06" rx="123.325" ry="18"/>
<text text-anchor="middle" x="3133.24" y="-2893.86" font-family="Times,serif" font-size="14.00">FociPerGy_Fe.600.MeV.n_4</text>
</g>
<!-- Bgd_Fe.600.MeV.n_24 -->
<g id="node21" class="node"><title>Bgd_Fe.600.MeV.n_24</title>
<ellipse fill="lightyellow" stroke="black" cx="2642.87" cy="-1067.95" rx="102.503" ry="18"/>
<text text-anchor="middle" x="2642.87" y="-1063.75" font-family="Times,serif" font-size="14.00">Bgd_Fe.600.MeV.n_24</text>
</g>
<!-- FociPerGy_Fe.600.MeV.n_4&#45;&gt;Bgd_Fe.600.MeV.n_24 -->
<g id="edge34" class="edge"><title>FociPerGy_Fe.600.MeV.n_4&#45;&gt;Bgd_Fe.600.MeV.n_24</title>
<path fill="none" stroke="black" d="M3128.39,-2879.95C3081.41,-2704.63 2707.99,-1311 2650.33,-1095.81"/>
<polygon fill="black" stroke="black" points="2653.65,-1094.69 2647.69,-1085.93 2646.89,-1096.5 2653.65,-1094.69"/>
</g>
<!-- FociPerGy_Fe.600.MeV.n_4&#45;&gt;Bgd_Fe.600.MeV.n_24.1 -->
<g id="edge35" class="edge"><title>FociPerGy_Fe.600.MeV.n_4&#45;&gt;Bgd_Fe.600.MeV.n_24.1</title>
<path fill="none" stroke="black" d="M3165.48,-2915.44C3220.62,-2945.17 3332.95,-3005.74 3393.54,-3038.41"/>
<polygon fill="black" stroke="black" points="3391.98,-3041.55 3402.44,-3043.21 3395.3,-3035.39 3391.98,-3041.55"/>
</g>
<!-- FociPerGy_Fe.600.MeV.n_24.1 -->
<g id="node52" class="node"><title>FociPerGy_Fe.600.MeV.n_24.1</title>
<ellipse fill="lightyellow" stroke="black" cx="2877.62" cy="-2670.57" rx="135.467" ry="18"/>
<text text-anchor="middle" x="2877.62" y="-2666.37" font-family="Times,serif" font-size="14.00">FociPerGy_Fe.600.MeV.n_24.1</text>
</g>
<!-- FociPerGy_Fe.600.MeV.n_4&#45;&gt;FociPerGy_Fe.600.MeV.n_24.1 -->
<g id="edge36" class="edge"><title>FociPerGy_Fe.600.MeV.n_4&#45;&gt;FociPerGy_Fe.600.MeV.n_24.1</title>
<path fill="none" stroke="black" d="M3113.19,-2880.21C3067.84,-2839.86 2957.38,-2741.55 2905.45,-2695.34"/>
<polygon fill="black" stroke="black" points="2907.73,-2692.69 2897.94,-2688.66 2903.08,-2697.92 2907.73,-2692.69"/>
</g>
<!-- Bgd_Fe.600.MeV.n_8 -->
<g id="node19" class="node"><title>Bgd_Fe.600.MeV.n_8</title>
<ellipse fill="lightyellow" stroke="black" cx="4107.03" cy="-3158.99" rx="97.8459" ry="18"/>
<text text-anchor="middle" x="4107.03" y="-3154.79" font-family="Times,serif" font-size="14.00">Bgd_Fe.600.MeV.n_8</text>
</g>
<!-- Bgd_X.ray_48 -->
<g id="node29" class="node"><title>Bgd_X.ray_48</title>
<ellipse fill="lightgreen" stroke="black" cx="3764.98" cy="-3149.03" rx="68.3267" ry="18"/>
<text text-anchor="middle" x="3764.98" y="-3144.83" font-family="Times,serif" font-size="14.00">Bgd_X.ray_48</text>
</g>
<!-- Bgd_Fe.600.MeV.n_8&#45;&gt;Bgd_X.ray_48 -->
<g id="edge37" class="edge"><title>Bgd_Fe.600.MeV.n_8&#45;&gt;Bgd_X.ray_48</title>
<path fill="none" stroke="black" d="M4010.38,-3156.17C3957.43,-3154.63 3892.66,-3152.75 3842.97,-3151.3"/>
<polygon fill="black" stroke="black" points="3843.01,-3147.8 3832.92,-3151.01 3842.81,-3154.8 3843.01,-3147.8"/>
</g>
<!-- Bgd_X.ray_48.1 -->
<g id="node59" class="node"><title>Bgd_X.ray_48.1</title>
<ellipse fill="lightgreen" stroke="black" cx="4752.28" cy="-2945.17" rx="75.3118" ry="18"/>
<text text-anchor="middle" x="4752.28" y="-2940.97" font-family="Times,serif" font-size="14.00">Bgd_X.ray_48.1</text>
</g>
<!-- Bgd_Fe.600.MeV.n_8&#45;&gt;Bgd_X.ray_48.1 -->
<g id="edge38" class="edge"><title>Bgd_Fe.600.MeV.n_8&#45;&gt;Bgd_X.ray_48.1</title>
<path fill="none" stroke="black" d="M4154.74,-3143.18C4272.12,-3104.28 4574.36,-3004.13 4698.17,-2963.1"/>
<polygon fill="black" stroke="black" points="4699.44,-2966.37 4707.83,-2959.9 4697.24,-2959.72 4699.44,-2966.37"/>
</g>
<!-- FociPerGy_Fe.600.MeV.n_8 -->
<g id="node20" class="node"><title>FociPerGy_Fe.600.MeV.n_8</title>
<ellipse fill="lightyellow" stroke="black" cx="2681.34" cy="-2390.26" rx="123.325" ry="18"/>
<text text-anchor="middle" x="2681.34" y="-2386.06" font-family="Times,serif" font-size="14.00">FociPerGy_Fe.600.MeV.n_8</text>
</g>
<!-- FociPerGy_Fe.600.MeV.n_24 -->
<g id="node22" class="node"><title>FociPerGy_Fe.600.MeV.n_24</title>
<ellipse fill="lightyellow" stroke="black" cx="2555" cy="-2072.25" rx="128.482" ry="18"/>
<text text-anchor="middle" x="2555" y="-2068.05" font-family="Times,serif" font-size="14.00">FociPerGy_Fe.600.MeV.n_24</text>
</g>
<!-- FociPerGy_Fe.600.MeV.n_8&#45;&gt;FociPerGy_Fe.600.MeV.n_24 -->
<g id="edge39" class="edge"><title>FociPerGy_Fe.600.MeV.n_8&#45;&gt;FociPerGy_Fe.600.MeV.n_24</title>
<path fill="none" stroke="black" d="M2674.19,-2372.25C2653.13,-2319.25 2591.26,-2163.52 2565.97,-2099.85"/>
<polygon fill="black" stroke="black" points="2569.18,-2098.45 2562.23,-2090.45 2562.67,-2101.04 2569.18,-2098.45"/>
</g>
<!-- FociPerGy_Fe.600.MeV.n_48 -->
<g id="node24" class="node"><title>FociPerGy_Fe.600.MeV.n_48</title>
<ellipse fill="lightyellow" stroke="black" cx="2505.41" cy="-1733.67" rx="128.482" ry="18"/>
<text text-anchor="middle" x="2505.41" y="-1729.47" font-family="Times,serif" font-size="14.00">FociPerGy_Fe.600.MeV.n_48</text>
</g>
<!-- FociPerGy_Fe.600.MeV.n_8&#45;&gt;FociPerGy_Fe.600.MeV.n_48 -->
<g id="edge41" class="edge"><title>FociPerGy_Fe.600.MeV.n_8&#45;&gt;FociPerGy_Fe.600.MeV.n_48</title>
<path fill="none" stroke="black" d="M2676.45,-2372.02C2651.96,-2280.62 2542.64,-1872.61 2512.9,-1761.62"/>
<polygon fill="black" stroke="black" points="2516.24,-1760.58 2510.27,-1751.82 2509.48,-1762.39 2516.24,-1760.58"/>
</g>
<!-- FociPerGy_Fe.600.MeV.n_8&#45;&gt;FociPerGy_Fe.600.MeV.n_24.1 -->
<g id="edge40" class="edge"><title>FociPerGy_Fe.600.MeV.n_8&#45;&gt;FociPerGy_Fe.600.MeV.n_24.1</title>
<path fill="none" stroke="black" d="M2693.92,-2408.22C2727.49,-2456.17 2819.35,-2587.36 2858.99,-2643.98"/>
<polygon fill="black" stroke="black" points="2856.29,-2646.21 2864.89,-2652.4 2862.02,-2642.2 2856.29,-2646.21"/>
</g>
<!-- FociPerGy_Fe.600.MeV.n_48.1 -->
<g id="node54" class="node"><title>FociPerGy_Fe.600.MeV.n_48.1</title>
<ellipse fill="lightyellow" stroke="black" cx="1507.81" cy="-3023.02" rx="135.467" ry="18"/>
<text text-anchor="middle" x="1507.81" y="-3018.82" font-family="Times,serif" font-size="14.00">FociPerGy_Fe.600.MeV.n_48.1</text>
</g>
<!-- FociPerGy_Fe.600.MeV.n_8&#45;&gt;FociPerGy_Fe.600.MeV.n_48.1 -->
<g id="edge42" class="edge"><title>FociPerGy_Fe.600.MeV.n_8&#45;&gt;FociPerGy_Fe.600.MeV.n_48.1</title>
<path fill="none" stroke="black" d="M2649.04,-2407.68C2483.85,-2496.75 1734.19,-2900.96 1549.18,-3000.72"/>
<polygon fill="black" stroke="black" points="1547.44,-2997.68 1540.3,-3005.51 1550.77,-3003.84 1547.44,-2997.68"/>
</g>
<!-- Bgd_Fe.600.MeV.n_24&#45;&gt;Bgd_Fe.600.MeV.n_4 -->
<g id="edge44" class="edge"><title>Bgd_Fe.600.MeV.n_24&#45;&gt;Bgd_Fe.600.MeV.n_4</title>
<path fill="none" stroke="black" d="M2671.03,-1050.58C2846.28,-942.485 3786.44,-362.585 3984.71,-240.286"/>
<polygon fill="black" stroke="black" points="3986.65,-243.203 3993.32,-234.975 3982.98,-237.245 3986.65,-243.203"/>
</g>
<!-- Bgd_Fe.600.MeV.n_24&#45;&gt;Bgd_Fe.600.MeV.n_4.1 -->
<g id="edge45" class="edge"><title>Bgd_Fe.600.MeV.n_24&#45;&gt;Bgd_Fe.600.MeV.n_4.1</title>
<path fill="none" stroke="black" d="M2654.1,-1049.73C2684.73,-1000.08 2769.77,-862.214 2805.91,-803.613"/>
<polygon fill="black" stroke="black" points="2809.01,-805.263 2811.28,-794.914 2803.05,-801.588 2809.01,-805.263"/>
</g>
<!-- FociPerGy_Fe.600.MeV.n_4.1 -->
<g id="node48" class="node"><title>FociPerGy_Fe.600.MeV.n_4.1</title>
<ellipse fill="lightyellow" stroke="black" cx="636.903" cy="-2153.2" rx="130.81" ry="18"/>
<text text-anchor="middle" x="636.903" y="-2149" font-family="Times,serif" font-size="14.00">FociPerGy_Fe.600.MeV.n_4.1</text>
</g>
<!-- Bgd_Fe.600.MeV.n_24&#45;&gt;FociPerGy_Fe.600.MeV.n_4.1 -->
<g id="edge43" class="edge"><title>Bgd_Fe.600.MeV.n_24&#45;&gt;FociPerGy_Fe.600.MeV.n_4.1</title>
<path fill="none" stroke="black" d="M2610.95,-1085.22C2378.03,-1211.23 941.517,-1988.4 678.304,-2130.8"/>
<polygon fill="black" stroke="black" points="676.569,-2127.76 669.439,-2135.6 679.9,-2133.92 676.569,-2127.76"/>
</g>
<!-- FociPerGy_Fe.600.MeV.n_24&#45;&gt;FociPerGy_Fe.600.MeV.n_4 -->
<g id="edge47" class="edge"><title>FociPerGy_Fe.600.MeV.n_24&#45;&gt;FociPerGy_Fe.600.MeV.n_4</title>
<path fill="none" stroke="black" d="M2567.62,-2090.26C2642.21,-2196.8 3025.36,-2743.99 3114.64,-2871.49"/>
<polygon fill="black" stroke="black" points="3111.94,-2873.75 3120.55,-2879.93 3117.68,-2869.73 3111.94,-2873.75"/>
</g>
<!-- FociPerGy_Fe.600.MeV.n_24&#45;&gt;FociPerGy_Fe.600.MeV.n_4.1 -->
<g id="edge48" class="edge"><title>FociPerGy_Fe.600.MeV.n_24&#45;&gt;FociPerGy_Fe.600.MeV.n_4.1</title>
<path fill="none" stroke="black" d="M2432.1,-2077.43C2089.97,-2091.87 1128.37,-2132.46 771.998,-2147.5"/>
<polygon fill="black" stroke="black" points="771.733,-2144 761.89,-2147.92 772.029,-2151 771.733,-2144"/>
</g>
<!-- FociPerGy_Fe.600.MeV.n_8.1 -->
<g id="node50" class="node"><title>FociPerGy_Fe.600.MeV.n_8.1</title>
<ellipse fill="lightyellow" stroke="black" cx="2535.23" cy="-1392.77" rx="130.81" ry="18"/>
<text text-anchor="middle" x="2535.23" y="-1388.57" font-family="Times,serif" font-size="14.00">FociPerGy_Fe.600.MeV.n_8.1</text>
</g>
<!-- FociPerGy_Fe.600.MeV.n_24&#45;&gt;FociPerGy_Fe.600.MeV.n_8.1 -->
<g id="edge46" class="edge"><title>FociPerGy_Fe.600.MeV.n_24&#45;&gt;FociPerGy_Fe.600.MeV.n_8.1</title>
<path fill="none" stroke="black" d="M2554.47,-2054.07C2551.76,-1960.74 2539.38,-1535.28 2536.05,-1421.06"/>
<polygon fill="black" stroke="black" points="2539.55,-1420.9 2535.76,-1411 2532.55,-1421.1 2539.55,-1420.9"/>
</g>
<!-- Bgd_Fe.600.MeV.n_48&#45;&gt;Bgd_Ar.350.MeV.n_24 -->
<g id="edge50" class="edge"><title>Bgd_Fe.600.MeV.n_48&#45;&gt;Bgd_Ar.350.MeV.n_24</title>
<path fill="none" stroke="black" d="M5335.71,-1128.77C5278.83,-1047.54 5044.79,-713.289 4976.89,-616.323"/>
<polygon fill="black" stroke="black" points="4979.63,-614.134 4971.03,-607.95 4973.9,-618.149 4979.63,-614.134"/>
</g>
<!-- FociPerGy_Si.350.MeV.n_24.1 -->
<g id="node36" class="node"><title>FociPerGy_Si.350.MeV.n_24.1</title>
<ellipse fill="lightcoral" stroke="black" cx="5436.81" cy="-1477.2" rx="133.761" ry="18"/>
<text text-anchor="middle" x="5436.81" y="-1473" font-family="Times,serif" font-size="14.00">FociPerGy_Si.350.MeV.n_24.1</text>
</g>
<!-- Bgd_Fe.600.MeV.n_48&#45;&gt;FociPerGy_Si.350.MeV.n_24.1 -->
<g id="edge51" class="edge"><title>Bgd_Fe.600.MeV.n_48&#45;&gt;FociPerGy_Si.350.MeV.n_24.1</title>
<path fill="none" stroke="black" d="M5353.13,-1164.91C5367.83,-1219.76 5411.7,-1383.48 5429.34,-1449.32"/>
<polygon fill="black" stroke="black" points="5425.97,-1450.26 5431.94,-1459.02 5432.73,-1448.45 5425.97,-1450.26"/>
</g>
<!-- Bgd_Fe.600.MeV.n_48&#45;&gt;Bgd_Ar.350.MeV.n_24.1 -->
<g id="edge49" class="edge"><title>Bgd_Fe.600.MeV.n_48&#45;&gt;Bgd_Ar.350.MeV.n_24.1</title>
<path fill="none" stroke="black" d="M5291.79,-1131.54C4980.01,-1048 3470.46,-643.518 3131.94,-552.812"/>
<polygon fill="black" stroke="black" points="3132.6,-549.365 3122.04,-550.158 3130.79,-556.127 3132.6,-549.365"/>
</g>
<!-- FociPerGy_Fe.600.MeV.n_48&#45;&gt;FociPerGy_Fe.600.MeV.n_8.1 -->
<g id="edge52" class="edge"><title>FociPerGy_Fe.600.MeV.n_48&#45;&gt;FociPerGy_Fe.600.MeV.n_8.1</title>
<path fill="none" stroke="black" d="M2507.01,-1715.34C2511.93,-1659.14 2526.82,-1488.95 2532.75,-1421.12"/>
<polygon fill="black" stroke="black" points="2536.27,-1421.05 2533.66,-1410.78 2529.3,-1420.44 2536.27,-1421.05"/>
</g>
<!-- Bgd_X.ray_4 -->
<g id="node25" class="node"><title>Bgd_X.ray_4</title>
<ellipse fill="lightgreen" stroke="black" cx="5020.71" cy="-2732.93" rx="63.1697" ry="18"/>
<text text-anchor="middle" x="5020.71" y="-2728.73" font-family="Times,serif" font-size="14.00">Bgd_X.ray_4</text>
</g>
<!-- Bgd_X.ray_4&#45;&gt;Bgd_Si.350.MeV.n_4 -->
<g id="edge56" class="edge"><title>Bgd_X.ray_4&#45;&gt;Bgd_Si.350.MeV.n_4</title>
<path fill="none" stroke="black" d="M5036.2,-2750.74C5274.65,-3024.81 8189.05,-6374.47 8473.95,-6701.92"/>
<polygon fill="black" stroke="black" points="8471.34,-6704.26 8480.54,-6709.5 8476.62,-6699.66 8471.34,-6704.26"/>
</g>
<!-- Bgd_X.ray_24 -->
<g id="node27" class="node"><title>Bgd_X.ray_24</title>
<ellipse fill="lightgreen" stroke="black" cx="5232.95" cy="-2464.51" rx="68.3267" ry="18"/>
<text text-anchor="middle" x="5232.95" y="-2460.31" font-family="Times,serif" font-size="14.00">Bgd_X.ray_24</text>
</g>
<!-- Bgd_X.ray_4&#45;&gt;Bgd_X.ray_24 -->
<g id="edge54" class="edge"><title>Bgd_X.ray_4&#45;&gt;Bgd_X.ray_24</title>
<path fill="none" stroke="black" d="M5034.63,-2715.32C5071.14,-2669.15 5169.73,-2544.46 5212.59,-2490.26"/>
<polygon fill="black" stroke="black" points="5215.51,-2492.2 5218.97,-2482.18 5210.02,-2487.86 5215.51,-2492.2"/>
</g>
<!-- Bgd_X.ray_4&#45;&gt;Bgd_Si.350.MeV.n_4.1 -->
<g id="edge57" class="edge"><title>Bgd_X.ray_4&#45;&gt;Bgd_Si.350.MeV.n_4.1</title>
<path fill="none" stroke="black" d="M5038.17,-2750.39C5289.35,-3001.57 8170.03,-5882.26 8470.94,-6183.17"/>
<polygon fill="black" stroke="black" points="8468.79,-6185.96 8478.34,-6190.56 8473.74,-6181.01 8468.79,-6185.96"/>
</g>
<!-- Bgd_X.ray_4&#45;&gt;Bgd_X.ray_24.1 -->
<g id="edge55" class="edge"><title>Bgd_X.ray_4&#45;&gt;Bgd_X.ray_24.1</title>
<path fill="none" stroke="black" d="M5031.78,-2714.98C5083.29,-2631.47 5299.56,-2280.84 5361.14,-2181"/>
<polygon fill="black" stroke="black" points="5364.17,-2182.75 5366.45,-2172.4 5358.22,-2179.07 5364.17,-2182.75"/>
</g>
<!-- Bgd_X.ray_4&#45;&gt;Bgd_X.ray_48.1 -->
<g id="edge53" class="edge"><title>Bgd_X.ray_4&#45;&gt;Bgd_X.ray_48.1</title>
<path fill="none" stroke="black" d="M4999.19,-2749.94C4951.51,-2787.65 4836.83,-2878.32 4782.2,-2921.52"/>
<polygon fill="black" stroke="black" points="4779.95,-2918.84 4774.27,-2927.78 4784.29,-2924.33 4779.95,-2918.84"/>
</g>
<!-- FociPerGy_X.ray_4 -->
<g id="node26" class="node"><title>FociPerGy_X.ray_4</title>
<ellipse fill="lightgreen" stroke="black" cx="432.586" cy="-2936.36" rx="89.1486" ry="18"/>
<text text-anchor="middle" x="432.586" y="-2932.16" font-family="Times,serif" font-size="14.00">FociPerGy_X.ray_4</text>
</g>
<!-- FociPerGy_X.ray_48.1 -->
<g id="node60" class="node"><title>FociPerGy_X.ray_48.1</title>
<ellipse fill="lightgreen" stroke="black" cx="756.983" cy="-3020.99" rx="101.291" ry="18"/>
<text text-anchor="middle" x="756.983" y="-3016.79" font-family="Times,serif" font-size="14.00">FociPerGy_X.ray_48.1</text>
</g>
<!-- FociPerGy_X.ray_4&#45;&gt;FociPerGy_X.ray_48.1 -->
<g id="edge58" class="edge"><title>FociPerGy_X.ray_4&#45;&gt;FociPerGy_X.ray_48.1</title>
<path fill="none" stroke="black" d="M487.248,-2950.62C543.18,-2965.21 630.162,-2987.91 690.152,-3003.56"/>
<polygon fill="black" stroke="black" points="689.351,-3006.97 699.91,-3006.1 691.118,-3000.19 689.351,-3006.97"/>
</g>
<!-- Bgd_X.ray_24&#45;&gt;FociPerGy_Si.350.MeV.n_24 -->
<g id="edge59" class="edge"><title>Bgd_X.ray_24&#45;&gt;FociPerGy_Si.350.MeV.n_24</title>
<path fill="none" stroke="black" d="M5239,-2446.24C5268.96,-2355.84 5401.32,-1956.4 5437.56,-1847.02"/>
<polygon fill="black" stroke="black" points="5440.94,-1847.96 5440.76,-1837.36 5434.29,-1845.75 5440.94,-1847.96"/>
</g>
<!-- Bgd_X.ray_24&#45;&gt;FociPerGy_Si.350.MeV.n_24.1 -->
<g id="edge60" class="edge"><title>Bgd_X.ray_24&#45;&gt;FociPerGy_Si.350.MeV.n_24.1</title>
<path fill="none" stroke="black" d="M5236.66,-2446.53C5261.25,-2327.46 5400.56,-1652.77 5430.95,-1505.56"/>
<polygon fill="black" stroke="black" points="5434.43,-1506.02 5433.03,-1495.52 5427.58,-1504.61 5434.43,-1506.02"/>
</g>
<!-- Bgd_X.ray_4.1 -->
<g id="node55" class="node"><title>Bgd_X.ray_4.1</title>
<ellipse fill="lightgreen" stroke="black" cx="4442.15" cy="-3089.79" rx="70.6548" ry="18"/>
<text text-anchor="middle" x="4442.15" y="-3085.59" font-family="Times,serif" font-size="14.00">Bgd_X.ray_4.1</text>
</g>
<!-- Bgd_X.ray_24&#45;&gt;Bgd_X.ray_4.1 -->
<g id="edge61" class="edge"><title>Bgd_X.ray_24&#45;&gt;Bgd_X.ray_4.1</title>
<path fill="none" stroke="black" d="M5210.97,-2481.88C5099.79,-2569.8 4599.55,-2965.34 4471.88,-3066.28"/>
<polygon fill="black" stroke="black" points="4469.69,-3063.55 4464.02,-3072.5 4474.04,-3069.04 4469.69,-3063.55"/>
</g>
<!-- FociPerGy_X.ray_48 -->
<g id="node30" class="node"><title>FociPerGy_X.ray_48</title>
<ellipse fill="lightgreen" stroke="black" cx="263.045" cy="-2647.14" rx="93.8056" ry="18"/>
<text text-anchor="middle" x="263.045" y="-2642.94" font-family="Times,serif" font-size="14.00">FociPerGy_X.ray_48</text>
</g>
<!-- FociPerGy_X.ray_24&#45;&gt;FociPerGy_X.ray_48 -->
<g id="edge62" class="edge"><title>FociPerGy_X.ray_24&#45;&gt;FociPerGy_X.ray_48</title>
<path fill="none" stroke="black" d="M990.514,-2836.92C849.687,-2800.18 479.872,-2703.7 328.781,-2664.28"/>
<polygon fill="black" stroke="black" points="329.278,-2660.8 318.718,-2661.66 327.511,-2667.57 329.278,-2660.8"/>
</g>
<!-- FociPerGy_Ar.350.MeV.n_48.1 -->
<g id="node46" class="node"><title>FociPerGy_Ar.350.MeV.n_48.1</title>
<ellipse fill="#ee7621" stroke="black" cx="961.301" cy="-2237.83" rx="136.03" ry="18"/>
<text text-anchor="middle" x="961.301" y="-2233.63" font-family="Times,serif" font-size="14.00">FociPerGy_Ar.350.MeV.n_48.1</text>
</g>
<!-- FociPerGy_X.ray_24&#45;&gt;FociPerGy_Ar.350.MeV.n_48.1 -->
<g id="edge64" class="edge"><title>FociPerGy_X.ray_24&#45;&gt;FociPerGy_Ar.350.MeV.n_48.1</title>
<path fill="none" stroke="black" d="M1043.71,-2833.42C1031.7,-2746.63 979.829,-2371.73 965.171,-2265.8"/>
<polygon fill="black" stroke="black" points="968.634,-2265.29 963.796,-2255.86 961.7,-2266.25 968.634,-2265.29"/>
</g>
<!-- FociPerGy_X.ray_24&#45;&gt;FociPerGy_X.ray_48.1 -->
<g id="edge63" class="edge"><title>FociPerGy_X.ray_24&#45;&gt;FociPerGy_X.ray_48.1</title>
<path fill="none" stroke="black" d="M1016.89,-2868.64C964.266,-2899.49 853.858,-2964.21 795.318,-2998.52"/>
<polygon fill="black" stroke="black" points="793.242,-2995.68 786.385,-3003.76 796.782,-3001.72 793.242,-2995.68"/>
</g>
<!-- Bgd_X.ray_48&#45;&gt;Bgd_Fe.600.MeV.n_24 -->
<g id="edge68" class="edge"><title>Bgd_X.ray_48&#45;&gt;Bgd_Fe.600.MeV.n_24</title>
<path fill="none" stroke="black" d="M3755.28,-3131.04C3653.44,-2942.17 2781.58,-1325.22 2657.53,-1095.14"/>
<polygon fill="black" stroke="black" points="2660.48,-1093.24 2652.65,-1086.1 2654.32,-1096.56 2660.48,-1093.24"/>
</g>
<!-- Bgd_X.ray_48&#45;&gt;Bgd_X.ray_4 -->
<g id="edge66" class="edge"><title>Bgd_X.ray_48&#45;&gt;Bgd_X.ray_4</title>
<path fill="none" stroke="black" d="M3807.48,-3134.95C3996.84,-3072.2 4763.46,-2818.17 4969.51,-2749.9"/>
<polygon fill="black" stroke="black" points="4970.78,-2753.16 4979.18,-2746.69 4968.58,-2746.52 4970.78,-2753.16"/>
</g>
<!-- Bgd_Fe.600.MeV.n_8.1 -->
<g id="node49" class="node"><title>Bgd_Fe.600.MeV.n_8.1</title>
<ellipse fill="lightyellow" stroke="black" cx="3739.34" cy="-3324.08" rx="104.831" ry="18"/>
<text text-anchor="middle" x="3739.34" y="-3319.88" font-family="Times,serif" font-size="14.00">Bgd_Fe.600.MeV.n_8.1</text>
</g>
<!-- Bgd_X.ray_48&#45;&gt;Bgd_Fe.600.MeV.n_8.1 -->
<g id="edge65" class="edge"><title>Bgd_X.ray_48&#45;&gt;Bgd_Fe.600.MeV.n_8.1</title>
<path fill="none" stroke="black" d="M3762.33,-3167.11C3757.86,-3197.64 3748.78,-3259.63 3743.46,-3295.91"/>
<polygon fill="black" stroke="black" points="3739.99,-3295.44 3742.01,-3305.84 3746.92,-3296.46 3739.99,-3295.44"/>
</g>
<!-- Bgd_X.ray_48&#45;&gt;Bgd_Fe.600.MeV.n_24.1 -->
<g id="edge69" class="edge"><title>Bgd_X.ray_48&#45;&gt;Bgd_Fe.600.MeV.n_24.1</title>
<path fill="none" stroke="black" d="M3716.91,-3136.16C3660.32,-3120.99 3565.94,-3095.7 3502.01,-3078.57"/>
<polygon fill="black" stroke="black" points="3502.58,-3075.1 3492.02,-3075.89 3500.77,-3081.86 3502.58,-3075.1"/>
</g>
<!-- Bgd_X.ray_48&#45;&gt;Bgd_X.ray_4.1 -->
<g id="edge67" class="edge"><title>Bgd_X.ray_48&#45;&gt;Bgd_X.ray_4.1</title>
<path fill="none" stroke="black" d="M3829.91,-3143.35C3955.33,-3132.38 4230.39,-3108.32 4364.94,-3096.54"/>
<polygon fill="black" stroke="black" points="4365.51,-3100.01 4375.17,-3095.65 4364.9,-3093.03 4365.51,-3100.01"/>
</g>
<!-- FociPerGy_X.ray_48&#45;&gt;FociPerGy_X.ray_4 -->
<g id="edge71" class="edge"><title>FociPerGy_X.ray_48&#45;&gt;FociPerGy_X.ray_4</title>
<path fill="none" stroke="black" d="M273.651,-2665.23C302.552,-2714.53 382.808,-2851.44 416.92,-2909.64"/>
<polygon fill="black" stroke="black" points="413.907,-2911.42 421.984,-2918.28 419.946,-2907.88 413.907,-2911.42"/>
</g>
<!-- FociPerGy_X.ray_4.1 -->
<g id="node56" class="node"><title>FociPerGy_X.ray_4.1</title>
<ellipse fill="lightgreen" stroke="black" cx="96.317" cy="-2670.21" rx="96.1343" ry="18"/>
<text text-anchor="middle" x="96.317" y="-2666.01" font-family="Times,serif" font-size="14.00">FociPerGy_X.ray_4.1</text>
</g>
<!-- FociPerGy_X.ray_48&#45;&gt;FociPerGy_X.ray_4.1 -->
<g id="edge72" class="edge"><title>FociPerGy_X.ray_48&#45;&gt;FociPerGy_X.ray_4.1</title>
<path fill="none" stroke="black" d="M186.513,-2657.73C185.726,-2657.83 184.939,-2657.94 184.151,-2658.05"/>
<polygon fill="black" stroke="black" points="183.328,-2654.63 173.902,-2659.47 184.287,-2661.57 183.328,-2654.63"/>
</g>
<!-- FociPerGy_X.ray_48&#45;&gt;FociPerGy_X.ray_24.1 -->
<g id="edge70" class="edge"><title>FociPerGy_X.ray_48&#45;&gt;FociPerGy_X.ray_24.1</title>
<path fill="none" stroke="black" d="M267.838,-2628.76C281.948,-2574.68 323.411,-2415.75 340.345,-2350.84"/>
<polygon fill="black" stroke="black" points="343.799,-2351.47 342.937,-2340.91 337.025,-2349.7 343.799,-2351.47"/>
</g>
<!-- FociPerGy_Si.350.MeV.n_4.1 -->
<g id="node32" class="node"><title>FociPerGy_Si.350.MeV.n_4.1</title>
<ellipse fill="lightcoral" stroke="black" cx="5901.86" cy="-4536.08" rx="129.104" ry="18"/>
<text text-anchor="middle" x="5901.86" y="-4531.88" font-family="Times,serif" font-size="14.00">FociPerGy_Si.350.MeV.n_4.1</text>
</g>
<!-- FociPerGy_Si.350.MeV.n_8.1 -->
<g id="node34" class="node"><title>FociPerGy_Si.350.MeV.n_8.1</title>
<ellipse fill="lightcoral" stroke="black" cx="5148.86" cy="-4536.08" rx="129.104" ry="18"/>
<text text-anchor="middle" x="5148.86" y="-4531.88" font-family="Times,serif" font-size="14.00">FociPerGy_Si.350.MeV.n_8.1</text>
</g>
<!-- FociPerGy_Si.350.MeV.n_48.1 -->
<g id="node38" class="node"><title>FociPerGy_Si.350.MeV.n_48.1</title>
<ellipse fill="lightcoral" stroke="black" cx="4400.86" cy="-4536.08" rx="133.761" ry="18"/>
<text text-anchor="middle" x="4400.86" y="-4531.88" font-family="Times,serif" font-size="14.00">FociPerGy_Si.350.MeV.n_48.1</text>
</g>
<!-- FociPerGy_Ar.350.MeV.n_8.1 -->
<g id="node42" class="node"><title>FociPerGy_Ar.350.MeV.n_8.1</title>
<ellipse fill="#ee7621" stroke="black" cx="3895.86" cy="-4034.08" rx="131.373" ry="18"/>
<text text-anchor="middle" x="3895.86" y="-4029.88" font-family="Times,serif" font-size="14.00">FociPerGy_Ar.350.MeV.n_8.1</text>
</g>
<!-- FociPerGy_Ar.350.MeV.n_24.1 -->
<g id="node44" class="node"><title>FociPerGy_Ar.350.MeV.n_24.1</title>
<ellipse fill="#ee7621" stroke="black" cx="6159.86" cy="-3030.08" rx="136.03" ry="18"/>
<text text-anchor="middle" x="6159.86" y="-3025.88" font-family="Times,serif" font-size="14.00">FociPerGy_Ar.350.MeV.n_24.1</text>
</g>
<!-- FociPerGy_Fe.600.MeV.n_4.1&#45;&gt;FociPerGy_Ar.350.MeV.n_48 -->
<g id="edge73" class="edge"><title>FociPerGy_Fe.600.MeV.n_4.1&#45;&gt;FociPerGy_Ar.350.MeV.n_48</title>
<path fill="none" stroke="black" d="M660.395,-2170.98C741.083,-2232.05 1006.99,-2433.31 1099.1,-2503.03"/>
<polygon fill="black" stroke="black" points="1097.12,-2505.92 1107.21,-2509.17 1101.34,-2500.34 1097.12,-2505.92"/>
</g>
<!-- FociPerGy_Fe.600.MeV.n_4.1&#45;&gt;FociPerGy_Ar.350.MeV.n_48.1 -->
<g id="edge74" class="edge"><title>FociPerGy_Fe.600.MeV.n_4.1&#45;&gt;FociPerGy_Ar.350.MeV.n_48.1</title>
<path fill="none" stroke="black" d="M697.92,-2169.12C752.485,-2183.35 832.487,-2204.22 889.987,-2219.22"/>
<polygon fill="black" stroke="black" points="889.171,-2222.63 899.731,-2221.77 890.939,-2215.86 889.171,-2222.63"/>
</g>
</g>
</svg>

