<?xml version="1.0" encoding="UTF-8" standalone="no"?>
<!DOCTYPE svg PUBLIC "-//W3C//DTD SVG 1.1//EN"
 "http://www.w3.org/Graphics/SVG/1.1/DTD/svg11.dtd">
<!-- Generated by graphviz version 2.38.0 (20140413.2041)
 -->
<!-- Title: %3 Pages: 1 -->
<svg width="1787pt" height="620pt"
 viewBox="0.00 0.00 1786.67 620.00" xmlns="http://www.w3.org/2000/svg" xmlns:xlink="http://www.w3.org/1999/xlink">
<g id="graph0" class="graph" transform="scale(1 1) rotate(0) translate(4 616)">
<title>%3</title>
<polygon fill="white" stroke="none" points="-4,4 -4,-616 1782.67,-616 1782.67,4 -4,4"/>
<!-- Bgd_Si.350.MeV.n_4 -->
<g id="node1" class="node"><title>Bgd_Si.350.MeV.n_4</title>
<ellipse fill="lightcoral" stroke="black" cx="229.898" cy="-594" rx="96.1396" ry="18"/>
<text text-anchor="middle" x="229.898" y="-589.8" font-family="Times,serif" font-size="14.00">Bgd_Si.350.MeV.n_4</text>
</g>
<!-- Bgd_Si.350.MeV.n_8 -->
<g id="node3" class="node"><title>Bgd_Si.350.MeV.n_8</title>
<ellipse fill="lightcoral" stroke="black" cx="265.898" cy="-306" rx="96.1396" ry="18"/>
<text text-anchor="middle" x="265.898" y="-301.8" font-family="Times,serif" font-size="14.00">Bgd_Si.350.MeV.n_8</text>
</g>
<!-- Bgd_Si.350.MeV.n_4&#45;&gt;Bgd_Si.350.MeV.n_8 -->
<g id="edge3" class="edge"><title>Bgd_Si.350.MeV.n_4&#45;&gt;Bgd_Si.350.MeV.n_8</title>
<path fill="none" stroke="black" d="M232.792,-575.645C236.754,-551.538 243.938,-506.535 248.898,-468 254.927,-421.165 260.365,-366.46 263.39,-334.388"/>
<polygon fill="black" stroke="black" points="266.876,-334.705 264.321,-324.422 259.906,-334.053 266.876,-334.705"/>
</g>
<!-- Bgd_Si.350.MeV.n_24 -->
<g id="node5" class="node"><title>Bgd_Si.350.MeV.n_24</title>
<ellipse fill="lightcoral" stroke="black" cx="100.898" cy="-522" rx="100.797" ry="18"/>
<text text-anchor="middle" x="100.898" y="-517.8" font-family="Times,serif" font-size="14.00">Bgd_Si.350.MeV.n_24</text>
</g>
<!-- Bgd_Si.350.MeV.n_4&#45;&gt;Bgd_Si.350.MeV.n_24 -->
<g id="edge1" class="edge"><title>Bgd_Si.350.MeV.n_4&#45;&gt;Bgd_Si.350.MeV.n_24</title>
<path fill="none" stroke="black" d="M199.979,-576.765C182.116,-567.072 159.23,-554.653 139.954,-544.193"/>
<polygon fill="black" stroke="black" points="141.561,-541.083 131.102,-539.39 138.222,-547.236 141.561,-541.083"/>
</g>
<!-- Bgd_Ar.350.MeV.n_4 -->
<g id="node9" class="node"><title>Bgd_Ar.350.MeV.n_4</title>
<ellipse fill="#ee7621" stroke="black" cx="141.898" cy="-450" rx="98.4083" ry="18"/>
<text text-anchor="middle" x="141.898" y="-445.8" font-family="Times,serif" font-size="14.00">Bgd_Ar.350.MeV.n_4</text>
</g>
<!-- Bgd_Si.350.MeV.n_4&#45;&gt;Bgd_Ar.350.MeV.n_4 -->
<g id="edge2" class="edge"><title>Bgd_Si.350.MeV.n_4&#45;&gt;Bgd_Ar.350.MeV.n_4</title>
<path fill="none" stroke="black" d="M229.695,-575.958C228.731,-557.016 224.898,-526.178 210.898,-504 203.177,-491.769 191.578,-481.272 180.083,-472.924"/>
<polygon fill="black" stroke="black" points="182.013,-470.004 171.787,-467.231 178.052,-475.775 182.013,-470.004"/>
</g>
<!-- FociPerGy_Si.350.MeV.n_4 -->
<g id="node2" class="node"><title>FociPerGy_Si.350.MeV.n_4</title>
<ellipse fill="lightcoral" stroke="black" cx="1118.9" cy="-594" rx="121.619" ry="18"/>
<text text-anchor="middle" x="1118.9" y="-589.8" font-family="Times,serif" font-size="14.00">FociPerGy_Si.350.MeV.n_4</text>
</g>
<!-- FociPerGy_Ar.350.MeV.n_8 -->
<g id="node12" class="node"><title>FociPerGy_Ar.350.MeV.n_8</title>
<ellipse fill="#ee7621" stroke="black" cx="378.898" cy="-234" rx="123.887" ry="18"/>
<text text-anchor="middle" x="378.898" y="-229.8" font-family="Times,serif" font-size="14.00">FociPerGy_Ar.350.MeV.n_8</text>
</g>
<!-- Bgd_Si.350.MeV.n_8&#45;&gt;FociPerGy_Ar.350.MeV.n_8 -->
<g id="edge4" class="edge"><title>Bgd_Si.350.MeV.n_8&#45;&gt;FociPerGy_Ar.350.MeV.n_8</title>
<path fill="none" stroke="black" d="M292.392,-288.588C307.473,-279.246 326.572,-267.414 342.986,-257.247"/>
<polygon fill="black" stroke="black" points="345.128,-260.037 351.786,-251.795 341.442,-254.086 345.128,-260.037"/>
</g>
<!-- FociPerGy_Si.350.MeV.n_8 -->
<g id="node4" class="node"><title>FociPerGy_Si.350.MeV.n_8</title>
<ellipse fill="lightcoral" stroke="black" cx="1380.9" cy="-594" rx="121.619" ry="18"/>
<text text-anchor="middle" x="1380.9" y="-589.8" font-family="Times,serif" font-size="14.00">FociPerGy_Si.350.MeV.n_8</text>
</g>
<!-- Bgd_Si.350.MeV.n_24&#45;&gt;Bgd_Ar.350.MeV.n_4 -->
<g id="edge5" class="edge"><title>Bgd_Si.350.MeV.n_24&#45;&gt;Bgd_Ar.350.MeV.n_4</title>
<path fill="none" stroke="black" d="M110.823,-504.055C115.587,-495.922 121.399,-485.998 126.703,-476.943"/>
<polygon fill="black" stroke="black" points="129.746,-478.673 131.78,-468.275 123.706,-475.135 129.746,-478.673"/>
</g>
<!-- FociPerGy_Si.350.MeV.n_24 -->
<g id="node6" class="node"><title>FociPerGy_Si.350.MeV.n_24</title>
<ellipse fill="lightcoral" stroke="black" cx="1611.9" cy="-306" rx="126.776" ry="18"/>
<text text-anchor="middle" x="1611.9" y="-301.8" font-family="Times,serif" font-size="14.00">FociPerGy_Si.350.MeV.n_24</text>
</g>
<!-- FociPerGy_X.ray_48 -->
<g id="node30" class="node"><title>FociPerGy_X.ray_48</title>
<ellipse fill="lightgreen" stroke="black" cx="1595.9" cy="-234" rx="93.8056" ry="18"/>
<text text-anchor="middle" x="1595.9" y="-229.8" font-family="Times,serif" font-size="14.00">FociPerGy_X.ray_48</text>
</g>
<!-- FociPerGy_Si.350.MeV.n_24&#45;&gt;FociPerGy_X.ray_48 -->
<g id="edge6" class="edge"><title>FociPerGy_Si.350.MeV.n_24&#45;&gt;FociPerGy_X.ray_48</title>
<path fill="none" stroke="black" d="M1607.94,-287.697C1606.18,-279.983 1604.06,-270.712 1602.1,-262.112"/>
<polygon fill="black" stroke="black" points="1605.45,-261.073 1599.81,-252.104 1598.62,-262.633 1605.45,-261.073"/>
</g>
<!-- Bgd_Si.350.MeV.n_48 -->
<g id="node7" class="node"><title>Bgd_Si.350.MeV.n_48</title>
<ellipse fill="lightcoral" stroke="black" cx="425.898" cy="-18" rx="100.797" ry="18"/>
<text text-anchor="middle" x="425.898" y="-13.8" font-family="Times,serif" font-size="14.00">Bgd_Si.350.MeV.n_48</text>
</g>
<!-- FociPerGy_Si.350.MeV.n_48 -->
<g id="node8" class="node"><title>FociPerGy_Si.350.MeV.n_48</title>
<ellipse fill="lightcoral" stroke="black" cx="684.898" cy="-378" rx="126.776" ry="18"/>
<text text-anchor="middle" x="684.898" y="-373.8" font-family="Times,serif" font-size="14.00">FociPerGy_Si.350.MeV.n_48</text>
</g>
<!-- Bgd_Fe.600.MeV.n_24 -->
<g id="node21" class="node"><title>Bgd_Fe.600.MeV.n_24</title>
<ellipse fill="lightyellow" stroke="black" cx="915.898" cy="-306" rx="102.503" ry="18"/>
<text text-anchor="middle" x="915.898" y="-301.8" font-family="Times,serif" font-size="14.00">Bgd_Fe.600.MeV.n_24</text>
</g>
<!-- FociPerGy_Si.350.MeV.n_48&#45;&gt;Bgd_Fe.600.MeV.n_24 -->
<g id="edge7" class="edge"><title>FociPerGy_Si.350.MeV.n_48&#45;&gt;Bgd_Fe.600.MeV.n_24</title>
<path fill="none" stroke="black" d="M736.165,-361.465C771.915,-350.631 819.704,-336.15 857.018,-324.842"/>
<polygon fill="black" stroke="black" points="858.199,-328.142 866.754,-321.892 856.169,-321.443 858.199,-328.142"/>
</g>
<!-- Bgd_Ar.350.MeV.n_4&#45;&gt;Bgd_Si.350.MeV.n_48 -->
<g id="edge10" class="edge"><title>Bgd_Ar.350.MeV.n_4&#45;&gt;Bgd_Si.350.MeV.n_48</title>
<path fill="none" stroke="black" d="M90.8406,-434.517C70.6136,-426.324 48.8904,-414.006 34.8982,-396 10.0801,-364.062 15.8982,-347.447 15.8982,-307 15.8982,-307 15.8982,-307 15.8982,-161 15.8982,-93.2261 218.464,-50.5713 338.83,-31.2079"/>
<polygon fill="black" stroke="black" points="339.452,-34.6531 348.78,-29.63 338.356,-27.7395 339.452,-34.6531"/>
</g>
<!-- Bgd_Ar.350.MeV.n_4&#45;&gt;FociPerGy_Si.350.MeV.n_48 -->
<g id="edge9" class="edge"><title>Bgd_Ar.350.MeV.n_4&#45;&gt;FociPerGy_Si.350.MeV.n_48</title>
<path fill="none" stroke="black" d="M219.697,-438.971C315.718,-426.592 479.188,-405.519 584.564,-391.934"/>
<polygon fill="black" stroke="black" points="585.105,-395.394 594.576,-390.644 584.21,-388.451 585.105,-395.394"/>
</g>
<!-- Bgd_Ar.350.MeV.n_8 -->
<g id="node11" class="node"><title>Bgd_Ar.350.MeV.n_8</title>
<ellipse fill="#ee7621" stroke="black" cx="141.898" cy="-378" rx="98.4083" ry="18"/>
<text text-anchor="middle" x="141.898" y="-373.8" font-family="Times,serif" font-size="14.00">Bgd_Ar.350.MeV.n_8</text>
</g>
<!-- Bgd_Ar.350.MeV.n_4&#45;&gt;Bgd_Ar.350.MeV.n_8 -->
<g id="edge8" class="edge"><title>Bgd_Ar.350.MeV.n_4&#45;&gt;Bgd_Ar.350.MeV.n_8</title>
<path fill="none" stroke="black" d="M141.898,-431.697C141.898,-423.983 141.898,-414.712 141.898,-406.112"/>
<polygon fill="black" stroke="black" points="145.398,-406.104 141.898,-396.104 138.398,-406.104 145.398,-406.104"/>
</g>
<!-- FociPerGy_Ar.350.MeV.n_4 -->
<g id="node10" class="node"><title>FociPerGy_Ar.350.MeV.n_4</title>
<ellipse fill="#ee7621" stroke="black" cx="922.898" cy="-162" rx="123.887" ry="18"/>
<text text-anchor="middle" x="922.898" y="-157.8" font-family="Times,serif" font-size="14.00">FociPerGy_Ar.350.MeV.n_4</text>
</g>
<!-- FociPerGy_Ar.350.MeV.n_4&#45;&gt;Bgd_Si.350.MeV.n_48 -->
<g id="edge12" class="edge"><title>FociPerGy_Ar.350.MeV.n_4&#45;&gt;Bgd_Si.350.MeV.n_48</title>
<path fill="none" stroke="black" d="M908.358,-143.943C889.552,-123.151 854.694,-88.7239 816.898,-72 766.681,-49.7797 626.005,-34.6038 527.871,-26.364"/>
<polygon fill="black" stroke="black" points="527.873,-22.8523 517.618,-25.5153 527.295,-29.8284 527.873,-22.8523"/>
</g>
<!-- Bgd_Fe.600.MeV.n_4 -->
<g id="node17" class="node"><title>Bgd_Fe.600.MeV.n_4</title>
<ellipse fill="lightyellow" stroke="black" cx="709.898" cy="-90" rx="97.8459" ry="18"/>
<text text-anchor="middle" x="709.898" y="-85.8" font-family="Times,serif" font-size="14.00">Bgd_Fe.600.MeV.n_4</text>
</g>
<!-- FociPerGy_Ar.350.MeV.n_4&#45;&gt;Bgd_Fe.600.MeV.n_4 -->
<g id="edge11" class="edge"><title>FociPerGy_Ar.350.MeV.n_4&#45;&gt;Bgd_Fe.600.MeV.n_4</title>
<path fill="none" stroke="black" d="M875.097,-145.291C842.499,-134.578 799.232,-120.359 765.155,-109.159"/>
<polygon fill="black" stroke="black" points="765.944,-105.735 755.351,-105.938 763.759,-112.385 765.944,-105.735"/>
</g>
<!-- Bgd_Ar.350.MeV.n_8&#45;&gt;Bgd_Si.350.MeV.n_8 -->
<g id="edge14" class="edge"><title>Bgd_Ar.350.MeV.n_8&#45;&gt;Bgd_Si.350.MeV.n_8</title>
<path fill="none" stroke="black" d="M170.658,-360.765C187.75,-351.116 209.628,-338.765 228.104,-328.335"/>
<polygon fill="black" stroke="black" points="229.877,-331.354 236.865,-323.39 226.436,-325.258 229.877,-331.354"/>
</g>
<!-- Bgd_Ar.350.MeV.n_8&#45;&gt;Bgd_Si.350.MeV.n_48 -->
<g id="edge13" class="edge"><title>Bgd_Ar.350.MeV.n_8&#45;&gt;Bgd_Si.350.MeV.n_48</title>
<path fill="none" stroke="black" d="M141.898,-359.951C141.898,-333.292 141.898,-280.115 141.898,-235 141.898,-235 141.898,-235 141.898,-161 141.898,-75.98 244.979,-41.8623 326.936,-28.1723"/>
<polygon fill="black" stroke="black" points="327.491,-31.6281 336.818,-26.602 326.393,-24.7149 327.491,-31.6281"/>
</g>
<!-- FociPerGy_Ar.350.MeV.n_8&#45;&gt;FociPerGy_Ar.350.MeV.n_4 -->
<g id="edge15" class="edge"><title>FociPerGy_Ar.350.MeV.n_8&#45;&gt;FociPerGy_Ar.350.MeV.n_4</title>
<path fill="none" stroke="black" d="M468.424,-221.48C566.06,-208.917 721.913,-188.862 823.334,-175.812"/>
<polygon fill="black" stroke="black" points="823.81,-179.279 833.281,-174.532 822.916,-172.337 823.81,-179.279"/>
</g>
<!-- Bgd_Ar.350.MeV.n_24 -->
<g id="node13" class="node"><title>Bgd_Ar.350.MeV.n_24</title>
<ellipse fill="#ee7621" stroke="black" cx="436.898" cy="-450" rx="103.065" ry="18"/>
<text text-anchor="middle" x="436.898" y="-445.8" font-family="Times,serif" font-size="14.00">Bgd_Ar.350.MeV.n_24</text>
</g>
<!-- Bgd_Ar.350.MeV.n_24&#45;&gt;FociPerGy_Ar.350.MeV.n_4 -->
<g id="edge19" class="edge"><title>Bgd_Ar.350.MeV.n_24&#45;&gt;FociPerGy_Ar.350.MeV.n_4</title>
<path fill="none" stroke="black" d="M530.481,-442.45C637.976,-433.955 802.052,-417.626 820.898,-396 831.41,-383.938 824.399,-375.612 820.898,-360 817.027,-342.735 807.77,-341.265 803.898,-324 800.397,-308.388 797.957,-302.856 803.898,-288 821.162,-244.827 861.223,-208.064 890.099,-185.803"/>
<polygon fill="black" stroke="black" points="892.402,-188.45 898.291,-179.643 888.195,-182.856 892.402,-188.45"/>
</g>
<!-- Bgd_Ar.350.MeV.n_24&#45;&gt;Bgd_Ar.350.MeV.n_8 -->
<g id="edge17" class="edge"><title>Bgd_Ar.350.MeV.n_24&#45;&gt;Bgd_Ar.350.MeV.n_8</title>
<path fill="none" stroke="black" d="M378.263,-435.087C329.587,-423.536 260.326,-407.102 209.356,-395.007"/>
<polygon fill="black" stroke="black" points="209.956,-391.552 199.418,-392.649 208.34,-398.363 209.956,-391.552"/>
</g>
<!-- Bgd_Ar.350.MeV.n_48 -->
<g id="node15" class="node"><title>Bgd_Ar.350.MeV.n_48</title>
<ellipse fill="#ee7621" stroke="black" cx="436.898" cy="-378" rx="103.065" ry="18"/>
<text text-anchor="middle" x="436.898" y="-373.8" font-family="Times,serif" font-size="14.00">Bgd_Ar.350.MeV.n_48</text>
</g>
<!-- Bgd_Ar.350.MeV.n_24&#45;&gt;Bgd_Ar.350.MeV.n_48 -->
<g id="edge16" class="edge"><title>Bgd_Ar.350.MeV.n_24&#45;&gt;Bgd_Ar.350.MeV.n_48</title>
<path fill="none" stroke="black" d="M436.898,-431.697C436.898,-423.983 436.898,-414.712 436.898,-406.112"/>
<polygon fill="black" stroke="black" points="440.398,-406.104 436.898,-396.104 433.398,-406.104 440.398,-406.104"/>
</g>
<!-- Bgd_Fe.600.MeV.n_48 -->
<g id="node23" class="node"><title>Bgd_Fe.600.MeV.n_48</title>
<ellipse fill="lightyellow" stroke="black" cx="482.898" cy="-306" rx="102.503" ry="18"/>
<text text-anchor="middle" x="482.898" y="-301.8" font-family="Times,serif" font-size="14.00">Bgd_Fe.600.MeV.n_48</text>
</g>
<!-- Bgd_Ar.350.MeV.n_24&#45;&gt;Bgd_Fe.600.MeV.n_48 -->
<g id="edge18" class="edge"><title>Bgd_Ar.350.MeV.n_24&#45;&gt;Bgd_Fe.600.MeV.n_48</title>
<path fill="none" stroke="black" d="M377.989,-435.126C357.594,-427.194 336.865,-414.902 324.898,-396 316.34,-382.481 315.555,-372.989 324.898,-360 339.813,-339.265 363.231,-326.528 387.513,-318.739"/>
<polygon fill="black" stroke="black" points="388.602,-322.067 397.211,-315.891 386.63,-315.35 388.602,-322.067"/>
</g>
<!-- FociPerGy_Ar.350.MeV.n_24 -->
<g id="node14" class="node"><title>FociPerGy_Ar.350.MeV.n_24</title>
<ellipse fill="#ee7621" stroke="black" cx="1649.9" cy="-594" rx="128.544" ry="18"/>
<text text-anchor="middle" x="1649.9" y="-589.8" font-family="Times,serif" font-size="14.00">FociPerGy_Ar.350.MeV.n_24</text>
</g>
<!-- Bgd_Ar.350.MeV.n_48&#45;&gt;Bgd_Fe.600.MeV.n_4 -->
<g id="edge21" class="edge"><title>Bgd_Ar.350.MeV.n_48&#45;&gt;Bgd_Fe.600.MeV.n_4</title>
<path fill="none" stroke="black" d="M509.864,-365.165C538.977,-357.435 571.147,-344.747 594.898,-324 659.49,-267.579 691.57,-166.451 703.803,-118.14"/>
<polygon fill="black" stroke="black" points="707.276,-118.671 706.244,-108.127 700.475,-117.013 707.276,-118.671"/>
</g>
<!-- Bgd_Ar.350.MeV.n_48&#45;&gt;Bgd_Fe.600.MeV.n_48 -->
<g id="edge20" class="edge"><title>Bgd_Ar.350.MeV.n_48&#45;&gt;Bgd_Fe.600.MeV.n_48</title>
<path fill="none" stroke="black" d="M448.034,-360.055C453.434,-351.837 460.036,-341.791 466.036,-332.66"/>
<polygon fill="black" stroke="black" points="468.979,-334.555 471.546,-324.275 463.129,-330.71 468.979,-334.555"/>
</g>
<!-- FociPerGy_Ar.350.MeV.n_48 -->
<g id="node16" class="node"><title>FociPerGy_Ar.350.MeV.n_48</title>
<ellipse fill="#ee7621" stroke="black" cx="1253.9" cy="-450" rx="128.544" ry="18"/>
<text text-anchor="middle" x="1253.9" y="-445.8" font-family="Times,serif" font-size="14.00">FociPerGy_Ar.350.MeV.n_48</text>
</g>
<!-- FociPerGy_Ar.350.MeV.n_48&#45;&gt;FociPerGy_Ar.350.MeV.n_4 -->
<g id="edge25" class="edge"><title>FociPerGy_Ar.350.MeV.n_48&#45;&gt;FociPerGy_Ar.350.MeV.n_4</title>
<path fill="none" stroke="black" d="M1245.92,-431.898C1236.51,-412.902 1219.5,-382.016 1198.9,-360 1126.55,-282.678 1019.61,-216.755 962.405,-184.387"/>
<polygon fill="black" stroke="black" points="964.098,-181.324 953.664,-179.483 960.673,-187.429 964.098,-181.324"/>
</g>
<!-- FociPerGy_Fe.600.MeV.n_4 -->
<g id="node18" class="node"><title>FociPerGy_Fe.600.MeV.n_4</title>
<ellipse fill="lightyellow" stroke="black" cx="1066.9" cy="-378" rx="123.325" ry="18"/>
<text text-anchor="middle" x="1066.9" y="-373.8" font-family="Times,serif" font-size="14.00">FociPerGy_Fe.600.MeV.n_4</text>
</g>
<!-- FociPerGy_Ar.350.MeV.n_48&#45;&gt;FociPerGy_Fe.600.MeV.n_4 -->
<g id="edge23" class="edge"><title>FociPerGy_Ar.350.MeV.n_48&#45;&gt;FociPerGy_Fe.600.MeV.n_4</title>
<path fill="none" stroke="black" d="M1211,-432.941C1183.68,-422.714 1148.11,-409.4 1119.15,-398.559"/>
<polygon fill="black" stroke="black" points="1120.19,-395.213 1109.6,-394.985 1117.74,-401.768 1120.19,-395.213"/>
</g>
<!-- Bgd_X.ray_24 -->
<g id="node27" class="node"><title>Bgd_X.ray_24</title>
<ellipse fill="lightgreen" stroke="black" cx="1519.9" cy="-378" rx="68.3267" ry="18"/>
<text text-anchor="middle" x="1519.9" y="-373.8" font-family="Times,serif" font-size="14.00">Bgd_X.ray_24</text>
</g>
<!-- FociPerGy_Ar.350.MeV.n_48&#45;&gt;Bgd_X.ray_24 -->
<g id="edge24" class="edge"><title>FociPerGy_Ar.350.MeV.n_48&#45;&gt;Bgd_X.ray_24</title>
<path fill="none" stroke="black" d="M1311.62,-433.811C1356.65,-421.961 1418.85,-405.592 1463.53,-393.834"/>
<polygon fill="black" stroke="black" points="1464.57,-397.179 1473.35,-391.249 1462.79,-390.409 1464.57,-397.179"/>
</g>
<!-- FociPerGy_X.ray_24 -->
<g id="node28" class="node"><title>FociPerGy_X.ray_24</title>
<ellipse fill="lightgreen" stroke="black" cx="1339.9" cy="-378" rx="93.8056" ry="18"/>
<text text-anchor="middle" x="1339.9" y="-373.8" font-family="Times,serif" font-size="14.00">FociPerGy_X.ray_24</text>
</g>
<!-- FociPerGy_Ar.350.MeV.n_48&#45;&gt;FociPerGy_X.ray_24 -->
<g id="edge22" class="edge"><title>FociPerGy_Ar.350.MeV.n_48&#45;&gt;FociPerGy_X.ray_24</title>
<path fill="none" stroke="black" d="M1274.72,-432.055C1285.7,-423.113 1299.35,-412.005 1311.31,-402.268"/>
<polygon fill="black" stroke="black" points="1313.73,-404.816 1319.27,-395.789 1309.31,-399.387 1313.73,-404.816"/>
</g>
<!-- Bgd_Fe.600.MeV.n_4&#45;&gt;Bgd_Si.350.MeV.n_48 -->
<g id="edge26" class="edge"><title>Bgd_Fe.600.MeV.n_4&#45;&gt;Bgd_Si.350.MeV.n_48</title>
<path fill="none" stroke="black" d="M653.789,-75.1703C607.36,-63.7265 541.309,-47.4462 492.26,-35.3567"/>
<polygon fill="black" stroke="black" points="492.923,-31.9156 482.376,-32.9206 491.248,-38.7122 492.923,-31.9156"/>
</g>
<!-- FociPerGy_Fe.600.MeV.n_4&#45;&gt;Bgd_Fe.600.MeV.n_24 -->
<g id="edge27" class="edge"><title>FociPerGy_Fe.600.MeV.n_4&#45;&gt;Bgd_Fe.600.MeV.n_24</title>
<path fill="none" stroke="black" d="M1031.5,-360.588C1010.04,-350.643 982.507,-337.878 959.692,-327.302"/>
<polygon fill="black" stroke="black" points="961.103,-324.098 950.558,-323.068 958.159,-330.449 961.103,-324.098"/>
</g>
<!-- FociPerGy_Fe.600.MeV.n_24 -->
<g id="node22" class="node"><title>FociPerGy_Fe.600.MeV.n_24</title>
<ellipse fill="lightyellow" stroke="black" cx="1355.9" cy="-162" rx="128.482" ry="18"/>
<text text-anchor="middle" x="1355.9" y="-157.8" font-family="Times,serif" font-size="14.00">FociPerGy_Fe.600.MeV.n_24</text>
</g>
<!-- FociPerGy_Fe.600.MeV.n_4&#45;&gt;FociPerGy_Fe.600.MeV.n_24 -->
<g id="edge28" class="edge"><title>FociPerGy_Fe.600.MeV.n_4&#45;&gt;FociPerGy_Fe.600.MeV.n_24</title>
<path fill="none" stroke="black" d="M1078.8,-360.065C1102.2,-327.874 1157.32,-257.377 1218.9,-216 1240.57,-201.436 1266.83,-190.044 1290.53,-181.616"/>
<polygon fill="black" stroke="black" points="1291.84,-184.865 1300.16,-178.301 1289.57,-178.246 1291.84,-184.865"/>
</g>
<!-- Bgd_Fe.600.MeV.n_8 -->
<g id="node19" class="node"><title>Bgd_Fe.600.MeV.n_8</title>
<ellipse fill="lightyellow" stroke="black" cx="789.898" cy="-450" rx="97.8459" ry="18"/>
<text text-anchor="middle" x="789.898" y="-445.8" font-family="Times,serif" font-size="14.00">Bgd_Fe.600.MeV.n_8</text>
</g>
<!-- Bgd_Fe.600.MeV.n_8&#45;&gt;Bgd_Fe.600.MeV.n_24 -->
<g id="edge29" class="edge"><title>Bgd_Fe.600.MeV.n_8&#45;&gt;Bgd_Fe.600.MeV.n_24</title>
<path fill="none" stroke="black" d="M812.823,-432.46C825.645,-422.632 841.493,-409.483 853.898,-396 871.978,-376.35 889.05,-351.163 900.685,-332.601"/>
<polygon fill="black" stroke="black" points="903.673,-334.424 905.94,-324.075 897.714,-330.751 903.673,-334.424"/>
</g>
<!-- FociPerGy_Fe.600.MeV.n_8 -->
<g id="node20" class="node"><title>FociPerGy_Fe.600.MeV.n_8</title>
<ellipse fill="lightyellow" stroke="black" cx="1454.9" cy="-90" rx="123.325" ry="18"/>
<text text-anchor="middle" x="1454.9" y="-85.8" font-family="Times,serif" font-size="14.00">FociPerGy_Fe.600.MeV.n_8</text>
</g>
<!-- Bgd_Fe.600.MeV.n_24&#45;&gt;Bgd_Fe.600.MeV.n_4 -->
<g id="edge30" class="edge"><title>Bgd_Fe.600.MeV.n_24&#45;&gt;Bgd_Fe.600.MeV.n_4</title>
<path fill="none" stroke="black" d="M898.05,-287.921C873.341,-264.136 827.503,-219.503 789.898,-180 769.65,-158.729 747.372,-133.814 731.479,-115.764"/>
<polygon fill="black" stroke="black" points="733.884,-113.198 724.656,-107.992 728.623,-117.816 733.884,-113.198"/>
</g>
<!-- FociPerGy_Fe.600.MeV.n_24&#45;&gt;FociPerGy_Fe.600.MeV.n_8 -->
<g id="edge31" class="edge"><title>FociPerGy_Fe.600.MeV.n_24&#45;&gt;FociPerGy_Fe.600.MeV.n_8</title>
<path fill="none" stroke="black" d="M1379.61,-144.233C1392.5,-135.123 1408.62,-123.725 1422.63,-113.816"/>
<polygon fill="black" stroke="black" points="1424.89,-116.504 1431.04,-107.873 1420.85,-110.788 1424.89,-116.504"/>
</g>
<!-- FociPerGy_Fe.600.MeV.n_48 -->
<g id="node24" class="node"><title>FociPerGy_Fe.600.MeV.n_48</title>
<ellipse fill="lightyellow" stroke="black" cx="1355.9" cy="-234" rx="128.482" ry="18"/>
<text text-anchor="middle" x="1355.9" y="-229.8" font-family="Times,serif" font-size="14.00">FociPerGy_Fe.600.MeV.n_48</text>
</g>
<!-- FociPerGy_Fe.600.MeV.n_48&#45;&gt;FociPerGy_Fe.600.MeV.n_24 -->
<g id="edge32" class="edge"><title>FociPerGy_Fe.600.MeV.n_48&#45;&gt;FociPerGy_Fe.600.MeV.n_24</title>
<path fill="none" stroke="black" d="M1355.9,-215.697C1355.9,-207.983 1355.9,-198.712 1355.9,-190.112"/>
<polygon fill="black" stroke="black" points="1359.4,-190.104 1355.9,-180.104 1352.4,-190.104 1359.4,-190.104"/>
</g>
<!-- Bgd_X.ray_4 -->
<g id="node25" class="node"><title>Bgd_X.ray_4</title>
<ellipse fill="lightgreen" stroke="black" cx="915.898" cy="-594" rx="63.1697" ry="18"/>
<text text-anchor="middle" x="915.898" y="-589.8" font-family="Times,serif" font-size="14.00">Bgd_X.ray_4</text>
</g>
<!-- Bgd_X.ray_4&#45;&gt;Bgd_Fe.600.MeV.n_24 -->
<g id="edge35" class="edge"><title>Bgd_X.ray_4&#45;&gt;Bgd_Fe.600.MeV.n_24</title>
<path fill="none" stroke="black" d="M915.898,-575.966C915.898,-528.291 915.898,-393.185 915.898,-334.63"/>
<polygon fill="black" stroke="black" points="919.398,-334.306 915.898,-324.306 912.398,-334.306 919.398,-334.306"/>
</g>
<!-- Bgd_X.ray_4&#45;&gt;Bgd_X.ray_24 -->
<g id="edge34" class="edge"><title>Bgd_X.ray_4&#45;&gt;Bgd_X.ray_24</title>
<path fill="none" stroke="black" d="M962.765,-581.682C1074.92,-554.455 1352.43,-486.207 1391.9,-468 1429.66,-450.583 1468.2,-422.017 1492.98,-401.957"/>
<polygon fill="black" stroke="black" points="1495.33,-404.558 1500.83,-395.508 1490.88,-399.147 1495.33,-404.558"/>
</g>
<!-- Bgd_X.ray_48 -->
<g id="node29" class="node"><title>Bgd_X.ray_48</title>
<ellipse fill="lightgreen" stroke="black" cx="789.898" cy="-522" rx="68.3267" ry="18"/>
<text text-anchor="middle" x="789.898" y="-517.8" font-family="Times,serif" font-size="14.00">Bgd_X.ray_48</text>
</g>
<!-- Bgd_X.ray_4&#45;&gt;Bgd_X.ray_48 -->
<g id="edge33" class="edge"><title>Bgd_X.ray_4&#45;&gt;Bgd_X.ray_48</title>
<path fill="none" stroke="black" d="M888.247,-577.638C870.236,-567.632 846.526,-554.46 826.899,-543.556"/>
<polygon fill="black" stroke="black" points="828.362,-540.365 817.92,-538.568 824.962,-546.484 828.362,-540.365"/>
</g>
<!-- FociPerGy_X.ray_4 -->
<g id="node26" class="node"><title>FociPerGy_X.ray_4</title>
<ellipse fill="lightgreen" stroke="black" cx="1339.9" cy="-306" rx="89.1486" ry="18"/>
<text text-anchor="middle" x="1339.9" y="-301.8" font-family="Times,serif" font-size="14.00">FociPerGy_X.ray_4</text>
</g>
<!-- FociPerGy_X.ray_4&#45;&gt;FociPerGy_Fe.600.MeV.n_48 -->
<g id="edge36" class="edge"><title>FociPerGy_X.ray_4&#45;&gt;FociPerGy_Fe.600.MeV.n_48</title>
<path fill="none" stroke="black" d="M1343.85,-287.697C1345.62,-279.983 1347.74,-270.712 1349.7,-262.112"/>
<polygon fill="black" stroke="black" points="1353.17,-262.633 1351.99,-252.104 1346.35,-261.073 1353.17,-262.633"/>
</g>
<!-- FociPerGy_X.ray_4&#45;&gt;FociPerGy_X.ray_48 -->
<g id="edge37" class="edge"><title>FociPerGy_X.ray_4&#45;&gt;FociPerGy_X.ray_48</title>
<path fill="none" stroke="black" d="M1390.48,-291.17C1431.79,-279.872 1490.35,-263.86 1534.38,-251.821"/>
<polygon fill="black" stroke="black" points="1535.39,-255.175 1544.11,-249.161 1533.54,-248.422 1535.39,-255.175"/>
</g>
<!-- Bgd_X.ray_24&#45;&gt;FociPerGy_Si.350.MeV.n_24 -->
<g id="edge38" class="edge"><title>Bgd_X.ray_24&#45;&gt;FociPerGy_Si.350.MeV.n_24</title>
<path fill="none" stroke="black" d="M1541.24,-360.765C1553.17,-351.687 1568.24,-340.218 1581.4,-330.207"/>
<polygon fill="black" stroke="black" points="1583.88,-332.719 1589.72,-323.878 1579.64,-327.148 1583.88,-332.719"/>
</g>
<!-- FociPerGy_X.ray_24&#45;&gt;FociPerGy_X.ray_4 -->
<g id="edge40" class="edge"><title>FociPerGy_X.ray_24&#45;&gt;FociPerGy_X.ray_4</title>
<path fill="none" stroke="black" d="M1339.9,-359.697C1339.9,-351.983 1339.9,-342.712 1339.9,-334.112"/>
<polygon fill="black" stroke="black" points="1343.4,-334.104 1339.9,-324.104 1336.4,-334.104 1343.4,-334.104"/>
</g>
<!-- FociPerGy_X.ray_24&#45;&gt;FociPerGy_X.ray_48 -->
<g id="edge39" class="edge"><title>FociPerGy_X.ray_24&#45;&gt;FociPerGy_X.ray_48</title>
<path fill="none" stroke="black" d="M1374.32,-361.17C1393.73,-351.571 1418.01,-338.414 1437.9,-324 1456.74,-310.349 1456.53,-300.888 1475.9,-288 1496.54,-274.262 1521.34,-262.622 1543.01,-253.781"/>
<polygon fill="black" stroke="black" points="1544.41,-256.992 1552.41,-250.042 1541.82,-250.488 1544.41,-256.992"/>
</g>
<!-- Bgd_X.ray_48&#45;&gt;Bgd_Ar.350.MeV.n_24 -->
<g id="edge42" class="edge"><title>Bgd_X.ray_48&#45;&gt;Bgd_Ar.350.MeV.n_24</title>
<path fill="none" stroke="black" d="M737.051,-510.52C677.411,-498.694 579.919,-479.361 512.298,-465.952"/>
<polygon fill="black" stroke="black" points="512.619,-462.447 502.129,-463.935 511.257,-469.314 512.619,-462.447"/>
</g>
<!-- Bgd_X.ray_48&#45;&gt;Bgd_Fe.600.MeV.n_8 -->
<g id="edge41" class="edge"><title>Bgd_X.ray_48&#45;&gt;Bgd_Fe.600.MeV.n_8</title>
<path fill="none" stroke="black" d="M789.898,-503.697C789.898,-495.983 789.898,-486.712 789.898,-478.112"/>
<polygon fill="black" stroke="black" points="793.398,-478.104 789.898,-468.104 786.398,-478.104 793.398,-478.104"/>
</g>
<!-- FociPerGy_X.ray_48&#45;&gt;FociPerGy_Fe.600.MeV.n_8 -->
<g id="edge43" class="edge"><title>FociPerGy_X.ray_48&#45;&gt;FociPerGy_Fe.600.MeV.n_8</title>
<path fill="none" stroke="black" d="M1579.17,-216.153C1554.39,-191.201 1507.8,-144.278 1479.24,-115.515"/>
<polygon fill="black" stroke="black" points="1481.57,-112.898 1472.04,-108.268 1476.61,-117.83 1481.57,-112.898"/>
</g>
</g>
</svg>

