<?xml version="1.0" encoding="UTF-8" standalone="no"?>
<!DOCTYPE svg PUBLIC "-//W3C//DTD SVG 1.1//EN"
 "http://www.w3.org/Graphics/SVG/1.1/DTD/svg11.dtd">
<!-- Generated by graphviz version 2.38.0 (20140413.2041)
 -->
<!-- Title: %3 Pages: 1 -->
<svg width="3062pt" height="2871pt"
 viewBox="0.00 0.00 3061.92 2871.43" xmlns="http://www.w3.org/2000/svg" xmlns:xlink="http://www.w3.org/1999/xlink">
<g id="graph0" class="graph" transform="scale(1 1) rotate(0) translate(4 2867.43)">
<title>%3</title>
<polygon fill="white" stroke="none" points="-4,4 -4,-2867.43 3057.92,-2867.43 3057.92,4 -4,4"/>
<!-- Bgd_Si.350.MeV.n_4 -->
<g id="node1" class="node"><title>Bgd_Si.350.MeV.n_4</title>
<ellipse fill="lightcoral" stroke="black" cx="2775.05" cy="-796.166" rx="96.1396" ry="18"/>
<text text-anchor="middle" x="2775.05" y="-791.966" font-family="Times,serif" font-size="14.00">Bgd_Si.350.MeV.n_4</text>
</g>
<!-- Bgd_Si.350.MeV.n_8 -->
<g id="node3" class="node"><title>Bgd_Si.350.MeV.n_8</title>
<ellipse fill="lightcoral" stroke="black" cx="2070.46" cy="-131.419" rx="96.1396" ry="18"/>
<text text-anchor="middle" x="2070.46" y="-127.219" font-family="Times,serif" font-size="14.00">Bgd_Si.350.MeV.n_8</text>
</g>
<!-- Bgd_Si.350.MeV.n_4&#45;&gt;Bgd_Si.350.MeV.n_8 -->
<g id="edge3" class="edge"><title>Bgd_Si.350.MeV.n_4&#45;&gt;Bgd_Si.350.MeV.n_8</title>
<path fill="none" stroke="black" d="M2756.21,-778.386C2658.55,-686.248 2210.2,-263.256 2096.65,-156.131"/>
<polygon fill="black" stroke="black" points="2099.04,-153.571 2089.37,-149.255 2094.24,-158.663 2099.04,-153.571"/>
</g>
<!-- Bgd_Si.350.MeV.n_24 -->
<g id="node5" class="node"><title>Bgd_Si.350.MeV.n_24</title>
<ellipse fill="lightcoral" stroke="black" cx="2887.51" cy="-1105.14" rx="100.797" ry="18"/>
<text text-anchor="middle" x="2887.51" y="-1100.94" font-family="Times,serif" font-size="14.00">Bgd_Si.350.MeV.n_24</text>
</g>
<!-- Bgd_Si.350.MeV.n_4&#45;&gt;Bgd_Si.350.MeV.n_24 -->
<g id="edge1" class="edge"><title>Bgd_Si.350.MeV.n_4&#45;&gt;Bgd_Si.350.MeV.n_24</title>
<path fill="none" stroke="black" d="M2781.75,-814.568C2800.7,-866.624 2854.76,-1015.17 2877.37,-1077.29"/>
<polygon fill="black" stroke="black" points="2874.14,-1078.63 2880.85,-1086.83 2880.71,-1076.24 2874.14,-1078.63"/>
</g>
<!-- Bgd_Ar.350.MeV.n_4 -->
<g id="node9" class="node"><title>Bgd_Ar.350.MeV.n_4</title>
<ellipse fill="#ee7621" stroke="black" cx="2594.37" cy="-521.457" rx="98.4083" ry="18"/>
<text text-anchor="middle" x="2594.37" y="-517.257" font-family="Times,serif" font-size="14.00">Bgd_Ar.350.MeV.n_4</text>
</g>
<!-- Bgd_Si.350.MeV.n_4&#45;&gt;Bgd_Ar.350.MeV.n_4 -->
<g id="edge2" class="edge"><title>Bgd_Si.350.MeV.n_4&#45;&gt;Bgd_Ar.350.MeV.n_4</title>
<path fill="none" stroke="black" d="M2763.2,-778.141C2732.19,-730.991 2648.54,-603.811 2611.93,-548.152"/>
<polygon fill="black" stroke="black" points="2614.69,-545.979 2606.27,-539.548 2608.84,-549.826 2614.69,-545.979"/>
</g>
<!-- FociPerGy_Si.350.MeV.n_4 -->
<g id="node2" class="node"><title>FociPerGy_Si.350.MeV.n_4</title>
<ellipse fill="lightcoral" stroke="black" cx="1701.57" cy="-1439.72" rx="121.619" ry="18"/>
<text text-anchor="middle" x="1701.57" y="-1435.52" font-family="Times,serif" font-size="14.00">FociPerGy_Si.350.MeV.n_4</text>
</g>
<!-- FociPerGy_Ar.350.MeV.n_8 -->
<g id="node12" class="node"><title>FociPerGy_Ar.350.MeV.n_8</title>
<ellipse fill="#ee7621" stroke="black" cx="1427.23" cy="-18" rx="123.887" ry="18"/>
<text text-anchor="middle" x="1427.23" y="-13.8" font-family="Times,serif" font-size="14.00">FociPerGy_Ar.350.MeV.n_8</text>
</g>
<!-- Bgd_Si.350.MeV.n_8&#45;&gt;FociPerGy_Ar.350.MeV.n_8 -->
<g id="edge4" class="edge"><title>Bgd_Si.350.MeV.n_8&#45;&gt;FociPerGy_Ar.350.MeV.n_8</title>
<path fill="none" stroke="black" d="M2000.4,-119.066C1882.67,-98.3059 1645.36,-56.4628 1516.09,-33.6685"/>
<polygon fill="black" stroke="black" points="1516.67,-30.2162 1506.21,-31.9265 1515.45,-37.1099 1516.67,-30.2162"/>
</g>
<!-- FociPerGy_Si.350.MeV.n_8 -->
<g id="node4" class="node"><title>FociPerGy_Si.350.MeV.n_8</title>
<ellipse fill="lightcoral" stroke="black" cx="1701.57" cy="-1123.72" rx="121.619" ry="18"/>
<text text-anchor="middle" x="1701.57" y="-1119.52" font-family="Times,serif" font-size="14.00">FociPerGy_Si.350.MeV.n_8</text>
</g>
<!-- Bgd_Si.350.MeV.n_24&#45;&gt;Bgd_Ar.350.MeV.n_4 -->
<g id="edge5" class="edge"><title>Bgd_Si.350.MeV.n_24&#45;&gt;Bgd_Ar.350.MeV.n_4</title>
<path fill="none" stroke="black" d="M2878.41,-1087.03C2836.15,-1002.87 2658.8,-649.75 2608.02,-548.624"/>
<polygon fill="black" stroke="black" points="2611.12,-547.008 2603.51,-539.642 2604.87,-550.149 2611.12,-547.008"/>
</g>
<!-- FociPerGy_Si.350.MeV.n_24 -->
<g id="node6" class="node"><title>FociPerGy_Si.350.MeV.n_24</title>
<ellipse fill="lightcoral" stroke="black" cx="1755.47" cy="-2826.31" rx="126.776" ry="18"/>
<text text-anchor="middle" x="1755.47" y="-2822.11" font-family="Times,serif" font-size="14.00">FociPerGy_Si.350.MeV.n_24</text>
</g>
<!-- FociPerGy_X.ray_48 -->
<g id="node30" class="node"><title>FociPerGy_X.ray_48</title>
<ellipse fill="lightgreen" stroke="black" cx="2355.21" cy="-2567.61" rx="93.8056" ry="18"/>
<text text-anchor="middle" x="2355.21" y="-2563.41" font-family="Times,serif" font-size="14.00">FociPerGy_X.ray_48</text>
</g>
<!-- FociPerGy_Si.350.MeV.n_24&#45;&gt;FociPerGy_X.ray_48 -->
<g id="edge6" class="edge"><title>FociPerGy_Si.350.MeV.n_24&#45;&gt;FociPerGy_X.ray_48</title>
<path fill="none" stroke="black" d="M1795.29,-2809.14C1901.78,-2763.2 2192.86,-2637.64 2307.71,-2588.1"/>
<polygon fill="black" stroke="black" points="2309.17,-2591.28 2316.97,-2584.11 2306.4,-2584.86 2309.17,-2591.28"/>
</g>
<!-- Bgd_Si.350.MeV.n_48 -->
<g id="node7" class="node"><title>Bgd_Si.350.MeV.n_48</title>
<ellipse fill="lightcoral" stroke="black" cx="1103.42" cy="-75.0957" rx="100.797" ry="18"/>
<text text-anchor="middle" x="1103.42" y="-70.8957" font-family="Times,serif" font-size="14.00">Bgd_Si.350.MeV.n_48</text>
</g>
<!-- FociPerGy_Si.350.MeV.n_48 -->
<g id="node8" class="node"><title>FociPerGy_Si.350.MeV.n_48</title>
<ellipse fill="lightcoral" stroke="black" cx="2355.21" cy="-295.82" rx="126.776" ry="18"/>
<text text-anchor="middle" x="2355.21" y="-291.62" font-family="Times,serif" font-size="14.00">FociPerGy_Si.350.MeV.n_48</text>
</g>
<!-- Bgd_Fe.600.MeV.n_24 -->
<g id="node21" class="node"><title>Bgd_Fe.600.MeV.n_24</title>
<ellipse fill="lightyellow" stroke="black" cx="103.032" cy="-1596.12" rx="102.503" ry="18"/>
<text text-anchor="middle" x="103.032" y="-1591.92" font-family="Times,serif" font-size="14.00">Bgd_Fe.600.MeV.n_24</text>
</g>
<!-- FociPerGy_Si.350.MeV.n_48&#45;&gt;Bgd_Fe.600.MeV.n_24 -->
<g id="edge7" class="edge"><title>FociPerGy_Si.350.MeV.n_48&#45;&gt;Bgd_Fe.600.MeV.n_24</title>
<path fill="none" stroke="black" d="M2324.66,-313.461C2078.26,-455.715 417.944,-1414.3 141.896,-1573.68"/>
<polygon fill="black" stroke="black" points="139.94,-1570.77 133.03,-1578.8 143.44,-1576.83 139.94,-1570.77"/>
</g>
<!-- Bgd_Ar.350.MeV.n_4&#45;&gt;Bgd_Si.350.MeV.n_48 -->
<g id="edge10" class="edge"><title>Bgd_Ar.350.MeV.n_4&#45;&gt;Bgd_Si.350.MeV.n_48</title>
<path fill="none" stroke="black" d="M2543.05,-506.092C2317.04,-438.429 1410.82,-167.123 1165.13,-93.5697"/>
<polygon fill="black" stroke="black" points="1165.88,-90.1413 1155.3,-90.6261 1163.87,-96.8472 1165.88,-90.1413"/>
</g>
<!-- Bgd_Ar.350.MeV.n_4&#45;&gt;FociPerGy_Si.350.MeV.n_48 -->
<g id="edge9" class="edge"><title>Bgd_Ar.350.MeV.n_4&#45;&gt;FociPerGy_Si.350.MeV.n_48</title>
<path fill="none" stroke="black" d="M2575.61,-503.751C2533.27,-463.812 2430.26,-366.624 2381.55,-320.673"/>
<polygon fill="black" stroke="black" points="2383.9,-318.072 2374.22,-313.755 2379.09,-323.163 2383.9,-318.072"/>
</g>
<!-- Bgd_Ar.350.MeV.n_8 -->
<g id="node11" class="node"><title>Bgd_Ar.350.MeV.n_8</title>
<ellipse fill="#ee7621" stroke="black" cx="1755.47" cy="-37.1181" rx="98.4083" ry="18"/>
<text text-anchor="middle" x="1755.47" y="-32.9181" font-family="Times,serif" font-size="14.00">Bgd_Ar.350.MeV.n_8</text>
</g>
<!-- Bgd_Ar.350.MeV.n_4&#45;&gt;Bgd_Ar.350.MeV.n_8 -->
<g id="edge8" class="edge"><title>Bgd_Ar.350.MeV.n_4&#45;&gt;Bgd_Ar.350.MeV.n_8</title>
<path fill="none" stroke="black" d="M2564.52,-504.219C2436.99,-430.593 1937.98,-142.489 1794.35,-59.5627"/>
<polygon fill="black" stroke="black" points="1795.82,-56.3706 1785.41,-54.4016 1792.32,-62.4328 1795.82,-56.3706"/>
</g>
<!-- FociPerGy_Ar.350.MeV.n_4 -->
<g id="node10" class="node"><title>FociPerGy_Ar.350.MeV.n_4</title>
<ellipse fill="#ee7621" stroke="black" cx="801.513" cy="-205.327" rx="123.887" ry="18"/>
<text text-anchor="middle" x="801.513" y="-201.127" font-family="Times,serif" font-size="14.00">FociPerGy_Ar.350.MeV.n_4</text>
</g>
<!-- FociPerGy_Ar.350.MeV.n_4&#45;&gt;Bgd_Si.350.MeV.n_48 -->
<g id="edge12" class="edge"><title>FociPerGy_Ar.350.MeV.n_4&#45;&gt;Bgd_Si.350.MeV.n_48</title>
<path fill="none" stroke="black" d="M841.293,-188.168C896.352,-164.418 995.688,-121.568 1054.99,-95.986"/>
<polygon fill="black" stroke="black" points="1056.72,-99.0549 1064.51,-91.8803 1053.94,-92.6274 1056.72,-99.0549"/>
</g>
<!-- Bgd_Fe.600.MeV.n_4 -->
<g id="node17" class="node"><title>Bgd_Fe.600.MeV.n_4</title>
<ellipse fill="lightyellow" stroke="black" cx="537.774" cy="-401.673" rx="97.8459" ry="18"/>
<text text-anchor="middle" x="537.774" y="-397.473" font-family="Times,serif" font-size="14.00">Bgd_Fe.600.MeV.n_4</text>
</g>
<!-- FociPerGy_Ar.350.MeV.n_4&#45;&gt;Bgd_Fe.600.MeV.n_4 -->
<g id="edge11" class="edge"><title>FociPerGy_Ar.350.MeV.n_4&#45;&gt;Bgd_Fe.600.MeV.n_4</title>
<path fill="none" stroke="black" d="M777.643,-223.098C729.98,-258.582 623.014,-338.215 569.511,-378.046"/>
<polygon fill="black" stroke="black" points="567.331,-375.305 561.4,-384.084 571.512,-380.92 567.331,-375.305"/>
</g>
<!-- Bgd_Ar.350.MeV.n_8&#45;&gt;Bgd_Si.350.MeV.n_8 -->
<g id="edge14" class="edge"><title>Bgd_Ar.350.MeV.n_8&#45;&gt;Bgd_Si.350.MeV.n_8</title>
<path fill="none" stroke="black" d="M1806.78,-52.4791C1862.24,-69.0806 1950.56,-95.5241 2009.51,-113.172"/>
<polygon fill="black" stroke="black" points="2008.85,-116.628 2019.44,-116.143 2010.86,-109.922 2008.85,-116.628"/>
</g>
<!-- Bgd_Ar.350.MeV.n_8&#45;&gt;Bgd_Si.350.MeV.n_48 -->
<g id="edge13" class="edge"><title>Bgd_Ar.350.MeV.n_8&#45;&gt;Bgd_Si.350.MeV.n_48</title>
<path fill="none" stroke="black" d="M1661.7,-42.5796C1541.87,-49.5592 1334.96,-61.6103 1209.49,-68.9179"/>
<polygon fill="black" stroke="black" points="1209.26,-65.4253 1199.48,-69.5009 1209.67,-72.4135 1209.26,-65.4253"/>
</g>
<!-- FociPerGy_Ar.350.MeV.n_8&#45;&gt;FociPerGy_Ar.350.MeV.n_4 -->
<g id="edge15" class="edge"><title>FociPerGy_Ar.350.MeV.n_8&#45;&gt;FociPerGy_Ar.350.MeV.n_4</title>
<path fill="none" stroke="black" d="M1373.07,-34.2149C1257.88,-68.7002 989.05,-149.182 865.585,-186.145"/>
<polygon fill="black" stroke="black" points="864.456,-182.83 855.88,-189.051 866.464,-189.535 864.456,-182.83"/>
</g>
<!-- Bgd_Ar.350.MeV.n_24 -->
<g id="node13" class="node"><title>Bgd_Ar.350.MeV.n_24</title>
<ellipse fill="#ee7621" stroke="black" cx="103.032" cy="-1267.32" rx="103.065" ry="18"/>
<text text-anchor="middle" x="103.032" y="-1263.12" font-family="Times,serif" font-size="14.00">Bgd_Ar.350.MeV.n_24</text>
</g>
<!-- Bgd_Ar.350.MeV.n_24&#45;&gt;FociPerGy_Ar.350.MeV.n_4 -->
<g id="edge19" class="edge"><title>Bgd_Ar.350.MeV.n_24&#45;&gt;FociPerGy_Ar.350.MeV.n_4</title>
<path fill="none" stroke="black" d="M114.863,-1249.33C197.216,-1124.12 684.558,-383.148 783.856,-232.173"/>
<polygon fill="black" stroke="black" points="787.005,-233.755 789.576,-223.476 781.157,-229.908 787.005,-233.755"/>
</g>
<!-- Bgd_Ar.350.MeV.n_24&#45;&gt;Bgd_Ar.350.MeV.n_8 -->
<g id="edge17" class="edge"><title>Bgd_Ar.350.MeV.n_24&#45;&gt;Bgd_Ar.350.MeV.n_8</title>
<path fill="none" stroke="black" d="M126.709,-1249.69C310.797,-1112.64 1511.74,-218.574 1723.58,-60.864"/>
<polygon fill="black" stroke="black" points="1725.88,-63.5133 1731.81,-54.7342 1721.7,-57.8984 1725.88,-63.5133"/>
</g>
<!-- Bgd_Ar.350.MeV.n_48 -->
<g id="node15" class="node"><title>Bgd_Ar.350.MeV.n_48</title>
<ellipse fill="#ee7621" stroke="black" cx="326.425" cy="-653.55" rx="103.065" ry="18"/>
<text text-anchor="middle" x="326.425" y="-649.35" font-family="Times,serif" font-size="14.00">Bgd_Ar.350.MeV.n_48</text>
</g>
<!-- Bgd_Ar.350.MeV.n_24&#45;&gt;Bgd_Ar.350.MeV.n_48 -->
<g id="edge16" class="edge"><title>Bgd_Ar.350.MeV.n_24&#45;&gt;Bgd_Ar.350.MeV.n_48</title>
<path fill="none" stroke="black" d="M109.597,-1249.28C141.227,-1162.38 277.953,-786.724 316.358,-681.209"/>
<polygon fill="black" stroke="black" points="319.728,-682.181 319.86,-671.587 313.151,-679.787 319.728,-682.181"/>
</g>
<!-- Bgd_Fe.600.MeV.n_48 -->
<g id="node23" class="node"><title>Bgd_Fe.600.MeV.n_48</title>
<ellipse fill="lightyellow" stroke="black" cx="178.859" cy="-947.377" rx="102.503" ry="18"/>
<text text-anchor="middle" x="178.859" y="-943.177" font-family="Times,serif" font-size="14.00">Bgd_Fe.600.MeV.n_48</text>
</g>
<!-- Bgd_Ar.350.MeV.n_24&#45;&gt;Bgd_Fe.600.MeV.n_48 -->
<g id="edge18" class="edge"><title>Bgd_Ar.350.MeV.n_24&#45;&gt;Bgd_Fe.600.MeV.n_48</title>
<path fill="none" stroke="black" d="M107.326,-1249.2C119.939,-1195.98 156.944,-1039.84 172.183,-975.544"/>
<polygon fill="black" stroke="black" points="175.618,-976.23 174.518,-965.693 168.806,-974.616 175.618,-976.23"/>
</g>
<!-- FociPerGy_Ar.350.MeV.n_24 -->
<g id="node14" class="node"><title>FociPerGy_Ar.350.MeV.n_24</title>
<ellipse fill="#ee7621" stroke="black" cx="2024.57" cy="-1755.72" rx="128.544" ry="18"/>
<text text-anchor="middle" x="2024.57" y="-1751.52" font-family="Times,serif" font-size="14.00">FociPerGy_Ar.350.MeV.n_24</text>
</g>
<!-- Bgd_Ar.350.MeV.n_48&#45;&gt;Bgd_Fe.600.MeV.n_4 -->
<g id="edge21" class="edge"><title>Bgd_Ar.350.MeV.n_48&#45;&gt;Bgd_Fe.600.MeV.n_4</title>
<path fill="none" stroke="black" d="M341.624,-635.435C378.564,-591.413 473.157,-478.68 516.048,-427.565"/>
<polygon fill="black" stroke="black" points="518.965,-429.534 522.712,-419.624 513.603,-425.034 518.965,-429.534"/>
</g>
<!-- Bgd_Ar.350.MeV.n_48&#45;&gt;Bgd_Fe.600.MeV.n_48 -->
<g id="edge20" class="edge"><title>Bgd_Ar.350.MeV.n_48&#45;&gt;Bgd_Fe.600.MeV.n_48</title>
<path fill="none" stroke="black" d="M317.416,-671.488C292.461,-721.177 222.32,-860.84 192.524,-920.168"/>
<polygon fill="black" stroke="black" points="189.298,-918.793 187.938,-929.3 195.553,-921.935 189.298,-918.793"/>
</g>
<!-- FociPerGy_Ar.350.MeV.n_48 -->
<g id="node16" class="node"><title>FociPerGy_Ar.350.MeV.n_48</title>
<ellipse fill="#ee7621" stroke="black" cx="1103.42" cy="-2788.34" rx="128.544" ry="18"/>
<text text-anchor="middle" x="1103.42" y="-2784.14" font-family="Times,serif" font-size="14.00">FociPerGy_Ar.350.MeV.n_48</text>
</g>
<!-- FociPerGy_Ar.350.MeV.n_48&#45;&gt;FociPerGy_Ar.350.MeV.n_4 -->
<g id="edge25" class="edge"><title>FociPerGy_Ar.350.MeV.n_48&#45;&gt;FociPerGy_Ar.350.MeV.n_4</title>
<path fill="none" stroke="black" d="M1101.29,-2770.11C1076.12,-2554.75 835.804,-498.703 804.801,-233.461"/>
<polygon fill="black" stroke="black" points="808.271,-232.999 803.634,-223.473 801.319,-233.812 808.271,-232.999"/>
</g>
<!-- FociPerGy_Fe.600.MeV.n_4 -->
<g id="node18" class="node"><title>FociPerGy_Fe.600.MeV.n_4</title>
<ellipse fill="lightyellow" stroke="black" cx="801.513" cy="-2658.1" rx="123.325" ry="18"/>
<text text-anchor="middle" x="801.513" y="-2653.9" font-family="Times,serif" font-size="14.00">FociPerGy_Fe.600.MeV.n_4</text>
</g>
<!-- FociPerGy_Ar.350.MeV.n_48&#45;&gt;FociPerGy_Fe.600.MeV.n_4 -->
<g id="edge23" class="edge"><title>FociPerGy_Ar.350.MeV.n_48&#45;&gt;FociPerGy_Fe.600.MeV.n_4</title>
<path fill="none" stroke="black" d="M1063.64,-2771.18C1008.89,-2747.56 910.342,-2705.05 850.926,-2679.42"/>
<polygon fill="black" stroke="black" points="851.949,-2676.05 841.381,-2675.3 849.177,-2682.48 851.949,-2676.05"/>
</g>
<!-- Bgd_X.ray_24 -->
<g id="node27" class="node"><title>Bgd_X.ray_24</title>
<ellipse fill="lightgreen" stroke="black" cx="1427.23" cy="-2845.43" rx="68.3267" ry="18"/>
<text text-anchor="middle" x="1427.23" y="-2841.23" font-family="Times,serif" font-size="14.00">Bgd_X.ray_24</text>
</g>
<!-- FociPerGy_Ar.350.MeV.n_48&#45;&gt;Bgd_X.ray_24 -->
<g id="edge24" class="edge"><title>FociPerGy_Ar.350.MeV.n_48&#45;&gt;Bgd_X.ray_24</title>
<path fill="none" stroke="black" d="M1183.47,-2802.45C1237.89,-2812.05 1309.07,-2824.6 1360.45,-2833.66"/>
<polygon fill="black" stroke="black" points="1359.99,-2837.13 1370.45,-2835.42 1361.21,-2830.24 1359.99,-2837.13"/>
</g>
<!-- FociPerGy_X.ray_24 -->
<g id="node28" class="node"><title>FociPerGy_X.ray_24</title>
<ellipse fill="lightgreen" stroke="black" cx="2070.46" cy="-2732.01" rx="93.8056" ry="18"/>
<text text-anchor="middle" x="2070.46" y="-2727.81" font-family="Times,serif" font-size="14.00">FociPerGy_X.ray_24</text>
</g>
<!-- FociPerGy_Ar.350.MeV.n_48&#45;&gt;FociPerGy_X.ray_24 -->
<g id="edge22" class="edge"><title>FociPerGy_Ar.350.MeV.n_48&#45;&gt;FociPerGy_X.ray_24</title>
<path fill="none" stroke="black" d="M1222.49,-2781.4C1414.88,-2770.2 1790.68,-2748.31 1970.25,-2737.85"/>
<polygon fill="black" stroke="black" points="1970.71,-2741.33 1980.49,-2737.25 1970.3,-2734.34 1970.71,-2741.33"/>
</g>
<!-- Bgd_Fe.600.MeV.n_4&#45;&gt;Bgd_Si.350.MeV.n_48 -->
<g id="edge26" class="edge"><title>Bgd_Fe.600.MeV.n_4&#45;&gt;Bgd_Si.350.MeV.n_48</title>
<path fill="none" stroke="black" d="M567.786,-384.346C662.995,-329.377 958.225,-158.926 1064.67,-97.4717"/>
<polygon fill="black" stroke="black" points="1066.57,-100.413 1073.48,-92.3816 1063.07,-94.3506 1066.57,-100.413"/>
</g>
<!-- FociPerGy_Fe.600.MeV.n_4&#45;&gt;Bgd_Fe.600.MeV.n_24 -->
<g id="edge27" class="edge"><title>FociPerGy_Fe.600.MeV.n_4&#45;&gt;Bgd_Fe.600.MeV.n_24</title>
<path fill="none" stroke="black" d="M789.683,-2640.12C707.33,-2514.91 219.987,-1773.94 120.689,-1622.96"/>
<polygon fill="black" stroke="black" points="123.389,-1620.7 114.969,-1614.27 117.54,-1624.54 123.389,-1620.7"/>
</g>
<!-- FociPerGy_Fe.600.MeV.n_24 -->
<g id="node22" class="node"><title>FociPerGy_Fe.600.MeV.n_24</title>
<ellipse fill="lightyellow" stroke="black" cx="2887.51" cy="-1758.29" rx="128.482" ry="18"/>
<text text-anchor="middle" x="2887.51" y="-1754.09" font-family="Times,serif" font-size="14.00">FociPerGy_Fe.600.MeV.n_24</text>
</g>
<!-- FociPerGy_Fe.600.MeV.n_4&#45;&gt;FociPerGy_Fe.600.MeV.n_24 -->
<g id="edge28" class="edge"><title>FociPerGy_Fe.600.MeV.n_4&#45;&gt;FociPerGy_Fe.600.MeV.n_24</title>
<path fill="none" stroke="black" d="M841.321,-2640.93C1100.99,-2528.92 2551.99,-1903.02 2838.4,-1779.48"/>
<polygon fill="black" stroke="black" points="2839.91,-1782.64 2847.71,-1775.46 2837.14,-1776.21 2839.91,-1782.64"/>
</g>
<!-- Bgd_Fe.600.MeV.n_8 -->
<g id="node19" class="node"><title>Bgd_Fe.600.MeV.n_8</title>
<ellipse fill="lightyellow" stroke="black" cx="178.859" cy="-1916.05" rx="97.8459" ry="18"/>
<text text-anchor="middle" x="178.859" y="-1911.85" font-family="Times,serif" font-size="14.00">Bgd_Fe.600.MeV.n_8</text>
</g>
<!-- Bgd_Fe.600.MeV.n_8&#45;&gt;Bgd_Fe.600.MeV.n_24 -->
<g id="edge29" class="edge"><title>Bgd_Fe.600.MeV.n_8&#45;&gt;Bgd_Fe.600.MeV.n_24</title>
<path fill="none" stroke="black" d="M174.565,-1897.94C161.952,-1844.72 124.948,-1688.58 109.708,-1624.28"/>
<polygon fill="black" stroke="black" points="113.085,-1623.36 107.373,-1614.43 106.274,-1624.97 113.085,-1623.36"/>
</g>
<!-- FociPerGy_Fe.600.MeV.n_8 -->
<g id="node20" class="node"><title>FociPerGy_Fe.600.MeV.n_8</title>
<ellipse fill="lightyellow" stroke="black" cx="2775.05" cy="-2067.27" rx="123.325" ry="18"/>
<text text-anchor="middle" x="2775.05" y="-2063.07" font-family="Times,serif" font-size="14.00">FociPerGy_Fe.600.MeV.n_8</text>
</g>
<!-- Bgd_Fe.600.MeV.n_24&#45;&gt;Bgd_Fe.600.MeV.n_4 -->
<g id="edge30" class="edge"><title>Bgd_Fe.600.MeV.n_24&#45;&gt;Bgd_Fe.600.MeV.n_4</title>
<path fill="none" stroke="black" d="M109.687,-1577.83C159.024,-1442.28 467.659,-594.313 527.67,-429.435"/>
<polygon fill="black" stroke="black" points="530.976,-430.583 531.108,-419.989 524.398,-428.189 530.976,-430.583"/>
</g>
<!-- FociPerGy_Fe.600.MeV.n_24&#45;&gt;FociPerGy_Fe.600.MeV.n_8 -->
<g id="edge31" class="edge"><title>FociPerGy_Fe.600.MeV.n_24&#45;&gt;FociPerGy_Fe.600.MeV.n_8</title>
<path fill="none" stroke="black" d="M2880.81,-1776.7C2861.86,-1828.75 2807.8,-1977.29 2785.19,-2039.42"/>
<polygon fill="black" stroke="black" points="2781.85,-2038.37 2781.71,-2048.96 2788.42,-2040.76 2781.85,-2038.37"/>
</g>
<!-- FociPerGy_Fe.600.MeV.n_48 -->
<g id="node24" class="node"><title>FociPerGy_Fe.600.MeV.n_48</title>
<ellipse fill="lightyellow" stroke="black" cx="2925.68" cy="-1431.72" rx="128.482" ry="18"/>
<text text-anchor="middle" x="2925.68" y="-1427.52" font-family="Times,serif" font-size="14.00">FociPerGy_Fe.600.MeV.n_48</text>
</g>
<!-- FociPerGy_Fe.600.MeV.n_48&#45;&gt;FociPerGy_Fe.600.MeV.n_24 -->
<g id="edge32" class="edge"><title>FociPerGy_Fe.600.MeV.n_48&#45;&gt;FociPerGy_Fe.600.MeV.n_24</title>
<path fill="none" stroke="black" d="M2923.57,-1449.74C2917.27,-1503.7 2898.5,-1664.27 2890.83,-1729.88"/>
<polygon fill="black" stroke="black" points="2887.34,-1729.58 2889.66,-1739.92 2894.29,-1730.4 2887.34,-1729.58"/>
</g>
<!-- Bgd_X.ray_4 -->
<g id="node25" class="node"><title>Bgd_X.ray_4</title>
<ellipse fill="lightgreen" stroke="black" cx="537.774" cy="-2461.76" rx="63.1697" ry="18"/>
<text text-anchor="middle" x="537.774" y="-2457.56" font-family="Times,serif" font-size="14.00">Bgd_X.ray_4</text>
</g>
<!-- Bgd_X.ray_4&#45;&gt;Bgd_Fe.600.MeV.n_24 -->
<g id="edge35" class="edge"><title>Bgd_X.ray_4&#45;&gt;Bgd_Fe.600.MeV.n_24</title>
<path fill="none" stroke="black" d="M528.694,-2443.68C473.498,-2333.77 183.173,-1755.69 116.631,-1623.19"/>
<polygon fill="black" stroke="black" points="119.678,-1621.46 112.063,-1614.1 113.423,-1624.6 119.678,-1621.46"/>
</g>
<!-- Bgd_X.ray_4&#45;&gt;Bgd_X.ray_24 -->
<g id="edge34" class="edge"><title>Bgd_X.ray_4&#45;&gt;Bgd_X.ray_24</title>
<path fill="none" stroke="black" d="M572.642,-2476.8C711.695,-2536.78 1226.62,-2758.9 1382.33,-2826.07"/>
<polygon fill="black" stroke="black" points="1381.07,-2829.33 1391.64,-2830.08 1383.84,-2822.9 1381.07,-2829.33"/>
</g>
<!-- Bgd_X.ray_48 -->
<g id="node29" class="node"><title>Bgd_X.ray_48</title>
<ellipse fill="lightgreen" stroke="black" cx="326.425" cy="-2209.88" rx="68.3267" ry="18"/>
<text text-anchor="middle" x="326.425" y="-2205.68" font-family="Times,serif" font-size="14.00">Bgd_X.ray_48</text>
</g>
<!-- Bgd_X.ray_4&#45;&gt;Bgd_X.ray_48 -->
<g id="edge33" class="edge"><title>Bgd_X.ray_4&#45;&gt;Bgd_X.ray_48</title>
<path fill="none" stroke="black" d="M522.912,-2444.05C486.153,-2400.24 390.85,-2286.66 347.932,-2235.51"/>
<polygon fill="black" stroke="black" points="350.379,-2232.98 341.27,-2227.57 345.017,-2237.48 350.379,-2232.98"/>
</g>
<!-- FociPerGy_X.ray_4 -->
<g id="node26" class="node"><title>FociPerGy_X.ray_4</title>
<ellipse fill="lightgreen" stroke="black" cx="2594.37" cy="-2341.97" rx="89.1486" ry="18"/>
<text text-anchor="middle" x="2594.37" y="-2337.77" font-family="Times,serif" font-size="14.00">FociPerGy_X.ray_4</text>
</g>
<!-- FociPerGy_X.ray_4&#45;&gt;FociPerGy_Fe.600.MeV.n_48 -->
<g id="edge36" class="edge"><title>FociPerGy_X.ray_4&#45;&gt;FociPerGy_Fe.600.MeV.n_48</title>
<path fill="none" stroke="black" d="M2600.99,-2323.79C2642.36,-2210.12 2865.32,-1597.56 2915.6,-1459.41"/>
<polygon fill="black" stroke="black" points="2918.91,-1460.54 2919.05,-1449.94 2912.34,-1458.14 2918.91,-1460.54"/>
</g>
<!-- FociPerGy_X.ray_4&#45;&gt;FociPerGy_X.ray_48 -->
<g id="edge37" class="edge"><title>FociPerGy_X.ray_4&#45;&gt;FociPerGy_X.ray_48</title>
<path fill="none" stroke="black" d="M2575.61,-2359.68C2533.27,-2399.62 2430.26,-2496.81 2381.55,-2542.76"/>
<polygon fill="black" stroke="black" points="2379.09,-2540.27 2374.22,-2549.68 2383.9,-2545.36 2379.09,-2540.27"/>
</g>
<!-- Bgd_X.ray_24&#45;&gt;FociPerGy_Si.350.MeV.n_24 -->
<g id="edge38" class="edge"><title>Bgd_X.ray_24&#45;&gt;FociPerGy_Si.350.MeV.n_24</title>
<path fill="none" stroke="black" d="M1494.05,-2841.54C1532.64,-2839.29 1582.47,-2836.39 1628.26,-2833.72"/>
<polygon fill="black" stroke="black" points="1628.49,-2837.22 1638.27,-2833.14 1628.08,-2830.23 1628.49,-2837.22"/>
</g>
<!-- FociPerGy_X.ray_24&#45;&gt;FociPerGy_X.ray_4 -->
<g id="edge40" class="edge"><title>FociPerGy_X.ray_24&#45;&gt;FociPerGy_X.ray_4</title>
<path fill="none" stroke="black" d="M2093.99,-2714.5C2178.45,-2651.62 2466.44,-2437.22 2562.72,-2365.54"/>
<polygon fill="black" stroke="black" points="2564.98,-2368.22 2570.91,-2359.44 2560.8,-2362.61 2564.98,-2368.22"/>
</g>
<!-- FociPerGy_X.ray_24&#45;&gt;FociPerGy_X.ray_48 -->
<g id="edge39" class="edge"><title>FociPerGy_X.ray_24&#45;&gt;FociPerGy_X.ray_48</title>
<path fill="none" stroke="black" d="M2100.13,-2714.88C2152.05,-2684.91 2259.33,-2622.97 2316.83,-2589.77"/>
<polygon fill="black" stroke="black" points="2318.7,-2592.73 2325.61,-2584.7 2315.2,-2586.67 2318.7,-2592.73"/>
</g>
<!-- Bgd_X.ray_48&#45;&gt;Bgd_Ar.350.MeV.n_24 -->
<g id="edge42" class="edge"><title>Bgd_X.ray_48&#45;&gt;Bgd_Ar.350.MeV.n_24</title>
<path fill="none" stroke="black" d="M322.162,-2191.89C294.766,-2076.3 143.551,-1438.27 109.74,-1295.61"/>
<polygon fill="black" stroke="black" points="113.052,-1294.41 107.34,-1285.49 106.241,-1296.03 113.052,-1294.41"/>
</g>
<!-- Bgd_X.ray_48&#45;&gt;Bgd_Fe.600.MeV.n_8 -->
<g id="edge41" class="edge"><title>Bgd_X.ray_48&#45;&gt;Bgd_Fe.600.MeV.n_8</title>
<path fill="none" stroke="black" d="M317.416,-2191.94C292.461,-2142.25 222.32,-2002.59 192.524,-1943.26"/>
<polygon fill="black" stroke="black" points="195.553,-1941.5 187.938,-1934.13 189.298,-1944.64 195.553,-1941.5"/>
</g>
<!-- FociPerGy_X.ray_48&#45;&gt;FociPerGy_Fe.600.MeV.n_8 -->
<g id="edge43" class="edge"><title>FociPerGy_X.ray_48&#45;&gt;FociPerGy_Fe.600.MeV.n_8</title>
<path fill="none" stroke="black" d="M2370.15,-2549.8C2433.33,-2474.51 2678.69,-2182.1 2753.37,-2093.11"/>
<polygon fill="black" stroke="black" points="2756.1,-2095.29 2759.85,-2085.38 2750.74,-2090.79 2756.1,-2095.29"/>
</g>
</g>
</svg>

