<?xml version="1.0" encoding="UTF-8" standalone="no"?>
<!DOCTYPE svg PUBLIC "-//W3C//DTD SVG 1.1//EN"
 "http://www.w3.org/Graphics/SVG/1.1/DTD/svg11.dtd">
<!-- Generated by graphviz version 2.38.0 (20140413.2041)
 -->
<!-- Title: %3 Pages: 1 -->
<svg width="1290pt" height="1034pt"
 viewBox="0.00 0.00 1289.52 1034.00" xmlns="http://www.w3.org/2000/svg" xmlns:xlink="http://www.w3.org/1999/xlink">
<g id="graph0" class="graph" transform="scale(1 1) rotate(0) translate(4 1030)">
<title>%3</title>
<polygon fill="white" stroke="none" points="-4,4 -4,-1030 1285.52,-1030 1285.52,4 -4,4"/>
<!-- Bgd_Si.350.MeV.n_4 -->
<g id="node1" class="node"><title>Bgd_Si.350.MeV.n_4</title>
<ellipse fill="lightcoral" stroke="black" cx="392.446" cy="-699.941" rx="96.1396" ry="18"/>
<text text-anchor="middle" x="392.446" y="-695.741" font-family="Times,serif" font-size="14.00">Bgd_Si.350.MeV.n_4</text>
</g>
<!-- Bgd_Si.350.MeV.n_24 -->
<g id="node5" class="node"><title>Bgd_Si.350.MeV.n_24</title>
<ellipse fill="lightcoral" stroke="black" cx="344.851" cy="-761.259" rx="100.797" ry="18"/>
<text text-anchor="middle" x="344.851" y="-757.059" font-family="Times,serif" font-size="14.00">Bgd_Si.350.MeV.n_24</text>
</g>
<!-- Bgd_Si.350.MeV.n_4&#45;&gt;Bgd_Si.350.MeV.n_24 -->
<g id="edge2" class="edge"><title>Bgd_Si.350.MeV.n_4&#45;&gt;Bgd_Si.350.MeV.n_24</title>
<path fill="none" stroke="black" d="M378.424,-718.006C374.297,-723.323 369.695,-729.251 365.255,-734.972"/>
<polygon fill="black" stroke="black" points="362.305,-733.064 358.938,-743.11 367.834,-737.357 362.305,-733.064"/>
</g>
<!-- Bgd_Si.350.MeV.n_24.1 -->
<g id="node35" class="node"><title>Bgd_Si.350.MeV.n_24.1</title>
<ellipse fill="lightcoral" stroke="black" cx="297.471" cy="-603" rx="108.282" ry="18"/>
<text text-anchor="middle" x="297.471" y="-598.8" font-family="Times,serif" font-size="14.00">Bgd_Si.350.MeV.n_24.1</text>
</g>
<!-- Bgd_Si.350.MeV.n_4&#45;&gt;Bgd_Si.350.MeV.n_24.1 -->
<g id="edge1" class="edge"><title>Bgd_Si.350.MeV.n_4&#45;&gt;Bgd_Si.350.MeV.n_24.1</title>
<path fill="none" stroke="black" d="M375.026,-682.16C360.259,-667.087 338.9,-645.287 322.335,-628.379"/>
<polygon fill="black" stroke="black" points="324.601,-625.69 315.102,-620.996 319.6,-630.589 324.601,-625.69"/>
</g>
<!-- FociPerGy_Si.350.MeV.n_4 -->
<g id="node2" class="node"><title>FociPerGy_Si.350.MeV.n_4</title>
<ellipse fill="lightcoral" stroke="black" cx="1145.47" cy="-480" rx="121.619" ry="18"/>
<text text-anchor="middle" x="1145.47" y="-475.8" font-family="Times,serif" font-size="14.00">FociPerGy_Si.350.MeV.n_4</text>
</g>
<!-- Bgd_Si.350.MeV.n_8 -->
<g id="node3" class="node"><title>Bgd_Si.350.MeV.n_8</title>
<ellipse fill="lightcoral" stroke="black" cx="370.494" cy="-891.764" rx="96.1396" ry="18"/>
<text text-anchor="middle" x="370.494" y="-887.564" font-family="Times,serif" font-size="14.00">Bgd_Si.350.MeV.n_8</text>
</g>
<!-- Bgd_Si.350.MeV.n_8&#45;&gt;Bgd_Si.350.MeV.n_24.1 -->
<g id="edge3" class="edge"><title>Bgd_Si.350.MeV.n_8&#45;&gt;Bgd_Si.350.MeV.n_24.1</title>
<path fill="none" stroke="black" d="M365.926,-873.701C353.555,-824.78 319.337,-689.467 304.493,-630.766"/>
<polygon fill="black" stroke="black" points="307.882,-629.893 302.037,-621.057 301.096,-631.61 307.882,-629.893"/>
</g>
<!-- FociPerGy_Si.350.MeV.n_8 -->
<g id="node4" class="node"><title>FociPerGy_Si.350.MeV.n_8</title>
<ellipse fill="lightcoral" stroke="black" cx="1145.47" cy="-579" rx="121.619" ry="18"/>
<text text-anchor="middle" x="1145.47" y="-574.8" font-family="Times,serif" font-size="14.00">FociPerGy_Si.350.MeV.n_8</text>
</g>
<!-- Bgd_Si.350.MeV.n_24&#45;&gt;Bgd_Si.350.MeV.n_8 -->
<g id="edge4" class="edge"><title>Bgd_Si.350.MeV.n_24&#45;&gt;Bgd_Si.350.MeV.n_8</title>
<path fill="none" stroke="black" d="M348.416,-779.405C352.722,-801.319 360.01,-838.411 365.028,-863.946"/>
<polygon fill="black" stroke="black" points="361.596,-864.635 366.959,-873.772 368.465,-863.285 361.596,-864.635"/>
</g>
<!-- Bgd_Si.350.MeV.n_4.1 -->
<g id="node31" class="node"><title>Bgd_Si.350.MeV.n_4.1</title>
<ellipse fill="lightcoral" stroke="black" cx="375.293" cy="-553.187" rx="103.125" ry="18"/>
<text text-anchor="middle" x="375.293" y="-548.987" font-family="Times,serif" font-size="14.00">Bgd_Si.350.MeV.n_4.1</text>
</g>
<!-- Bgd_Si.350.MeV.n_24&#45;&gt;Bgd_Si.350.MeV.n_4.1 -->
<g id="edge6" class="edge"><title>Bgd_Si.350.MeV.n_24&#45;&gt;Bgd_Si.350.MeV.n_4.1</title>
<path fill="none" stroke="black" d="M347.499,-743.158C352.818,-706.804 364.831,-624.693 371.181,-581.293"/>
<polygon fill="black" stroke="black" points="374.645,-581.796 372.629,-571.394 367.719,-580.782 374.645,-581.796"/>
</g>
<!-- Bgd_Si.350.MeV.n_8.1 -->
<g id="node33" class="node"><title>Bgd_Si.350.MeV.n_8.1</title>
<ellipse fill="lightcoral" stroke="black" cx="309.695" cy="-834.404" rx="103.125" ry="18"/>
<text text-anchor="middle" x="309.695" y="-830.204" font-family="Times,serif" font-size="14.00">Bgd_Si.350.MeV.n_8.1</text>
</g>
<!-- Bgd_Si.350.MeV.n_24&#45;&gt;Bgd_Si.350.MeV.n_8.1 -->
<g id="edge5" class="edge"><title>Bgd_Si.350.MeV.n_24&#45;&gt;Bgd_Si.350.MeV.n_8.1</title>
<path fill="none" stroke="black" d="M336.16,-779.339C332.146,-787.691 327.293,-797.789 322.844,-807.045"/>
<polygon fill="black" stroke="black" points="319.584,-805.748 318.407,-816.277 325.894,-808.78 319.584,-805.748"/>
</g>
<!-- Bgd_Ar.350.MeV.n_8.1 -->
<g id="node41" class="node"><title>Bgd_Ar.350.MeV.n_8.1</title>
<ellipse fill="#ee7621" stroke="black" cx="263.763" cy="-764.568" rx="105.393" ry="18"/>
<text text-anchor="middle" x="263.763" y="-760.368" font-family="Times,serif" font-size="14.00">Bgd_Ar.350.MeV.n_8.1</text>
</g>
<!-- Bgd_Si.350.MeV.n_24&#45;&gt;Bgd_Ar.350.MeV.n_8.1 -->
<g id="edge7" class="edge"><title>Bgd_Si.350.MeV.n_24&#45;&gt;Bgd_Ar.350.MeV.n_8.1</title>
<path fill="none" stroke="black" d="M263.822,-764.565C263.812,-764.566 263.804,-764.566 263.796,-764.566"/>
<polygon fill="black" stroke="black" points="273.609,-760.61 263.778,-764.567 273.931,-767.605 273.609,-760.61"/>
</g>
<!-- FociPerGy_Si.350.MeV.n_24 -->
<g id="node6" class="node"><title>FociPerGy_Si.350.MeV.n_24</title>
<ellipse fill="lightcoral" stroke="black" cx="585.471" cy="-603" rx="126.776" ry="18"/>
<text text-anchor="middle" x="585.471" y="-598.8" font-family="Times,serif" font-size="14.00">FociPerGy_Si.350.MeV.n_24</text>
</g>
<!-- Bgd_Fe.600.MeV.n_48 -->
<g id="node23" class="node"><title>Bgd_Fe.600.MeV.n_48</title>
<ellipse fill="lightyellow" stroke="black" cx="628.466" cy="-660.753" rx="102.503" ry="18"/>
<text text-anchor="middle" x="628.466" y="-656.553" font-family="Times,serif" font-size="14.00">Bgd_Fe.600.MeV.n_48</text>
</g>
<!-- FociPerGy_Si.350.MeV.n_24&#45;&gt;Bgd_Fe.600.MeV.n_48 -->
<g id="edge9" class="edge"><title>FociPerGy_Si.350.MeV.n_24&#45;&gt;Bgd_Fe.600.MeV.n_48</title>
<path fill="none" stroke="black" d="M598.839,-620.957C602.044,-625.261 605.531,-629.946 608.951,-634.539"/>
<polygon fill="black" stroke="black" points="606.179,-636.677 614.958,-642.608 611.794,-632.497 606.179,-636.677"/>
</g>
<!-- Bgd_Fe.600.MeV.n_48.1 -->
<g id="node53" class="node"><title>Bgd_Fe.600.MeV.n_48.1</title>
<ellipse fill="lightyellow" stroke="black" cx="556.953" cy="-669.112" rx="109.989" ry="18"/>
<text text-anchor="middle" x="556.953" y="-664.912" font-family="Times,serif" font-size="14.00">Bgd_Fe.600.MeV.n_48.1</text>
</g>
<!-- FociPerGy_Si.350.MeV.n_24&#45;&gt;Bgd_Fe.600.MeV.n_48.1 -->
<g id="edge10" class="edge"><title>FociPerGy_Si.350.MeV.n_24&#45;&gt;Bgd_Fe.600.MeV.n_48.1</title>
<path fill="none" stroke="black" d="M577.678,-621.065C574.912,-627.479 571.734,-634.847 568.71,-641.856"/>
<polygon fill="black" stroke="black" points="565.484,-640.5 564.737,-651.068 571.911,-643.272 565.484,-640.5"/>
</g>
<!-- Bgd_X.ray_24.1 -->
<g id="node57" class="node"><title>Bgd_X.ray_24.1</title>
<ellipse fill="lightgreen" stroke="black" cx="542.476" cy="-545.247" rx="75.3118" ry="18"/>
<text text-anchor="middle" x="542.476" y="-541.047" font-family="Times,serif" font-size="14.00">Bgd_X.ray_24.1</text>
</g>
<!-- FociPerGy_Si.350.MeV.n_24&#45;&gt;Bgd_X.ray_24.1 -->
<g id="edge8" class="edge"><title>FociPerGy_Si.350.MeV.n_24&#45;&gt;Bgd_X.ray_24.1</title>
<path fill="none" stroke="black" d="M572.103,-585.043C568.836,-580.656 565.277,-575.874 561.794,-571.196"/>
<polygon fill="black" stroke="black" points="564.467,-568.926 555.688,-562.994 558.852,-573.106 564.467,-568.926"/>
</g>
<!-- Bgd_Si.350.MeV.n_48 -->
<g id="node7" class="node"><title>Bgd_Si.350.MeV.n_48</title>
<ellipse fill="lightcoral" stroke="black" cx="647.421" cy="-809.926" rx="100.797" ry="18"/>
<text text-anchor="middle" x="647.421" y="-805.726" font-family="Times,serif" font-size="14.00">Bgd_Si.350.MeV.n_48</text>
</g>
<!-- Bgd_Ar.350.MeV.n_24 -->
<g id="node13" class="node"><title>Bgd_Ar.350.MeV.n_24</title>
<ellipse fill="#ee7621" stroke="black" cx="695.781" cy="-695.561" rx="103.065" ry="18"/>
<text text-anchor="middle" x="695.781" y="-691.361" font-family="Times,serif" font-size="14.00">Bgd_Ar.350.MeV.n_24</text>
</g>
<!-- Bgd_Si.350.MeV.n_48&#45;&gt;Bgd_Ar.350.MeV.n_24 -->
<g id="edge12" class="edge"><title>Bgd_Si.350.MeV.n_48&#45;&gt;Bgd_Ar.350.MeV.n_24</title>
<path fill="none" stroke="black" d="M655.084,-791.804C662.901,-773.318 675.13,-744.397 684.144,-723.082"/>
<polygon fill="black" stroke="black" points="687.483,-724.172 688.154,-713.598 681.036,-721.445 687.483,-724.172"/>
</g>
<!-- Bgd_Ar.350.MeV.n_24.1 -->
<g id="node43" class="node"><title>Bgd_Ar.350.MeV.n_24.1</title>
<ellipse fill="#ee7621" stroke="black" cx="560.466" cy="-744.812" rx="110.051" ry="18"/>
<text text-anchor="middle" x="560.466" y="-740.612" font-family="Times,serif" font-size="14.00">Bgd_Ar.350.MeV.n_24.1</text>
</g>
<!-- Bgd_Si.350.MeV.n_48&#45;&gt;Bgd_Ar.350.MeV.n_24.1 -->
<g id="edge13" class="edge"><title>Bgd_Si.350.MeV.n_48&#45;&gt;Bgd_Ar.350.MeV.n_24.1</title>
<path fill="none" stroke="black" d="M623.66,-792.133C613.978,-784.884 602.642,-776.395 592.265,-768.624"/>
<polygon fill="black" stroke="black" points="594.3,-765.776 584.198,-762.583 590.104,-771.379 594.3,-765.776"/>
</g>
<!-- Bgd_Fe.600.MeV.n_4.1 -->
<g id="node47" class="node"><title>Bgd_Fe.600.MeV.n_4.1</title>
<ellipse fill="lightyellow" stroke="black" cx="871.524" cy="-636.435" rx="104.831" ry="18"/>
<text text-anchor="middle" x="871.524" y="-632.235" font-family="Times,serif" font-size="14.00">Bgd_Fe.600.MeV.n_4.1</text>
</g>
<!-- Bgd_Si.350.MeV.n_48&#45;&gt;Bgd_Fe.600.MeV.n_4.1 -->
<g id="edge11" class="edge"><title>Bgd_Si.350.MeV.n_48&#45;&gt;Bgd_Fe.600.MeV.n_4.1</title>
<path fill="none" stroke="black" d="M670.142,-792.336C710.578,-761.032 795.056,-695.632 840.692,-660.303"/>
<polygon fill="black" stroke="black" points="842.977,-662.96 848.742,-654.071 838.692,-657.425 842.977,-662.96"/>
</g>
<!-- FociPerGy_Si.350.MeV.n_48 -->
<g id="node8" class="node"><title>FociPerGy_Si.350.MeV.n_48</title>
<ellipse fill="lightcoral" stroke="black" cx="292.471" cy="-381" rx="126.776" ry="18"/>
<text text-anchor="middle" x="292.471" y="-376.8" font-family="Times,serif" font-size="14.00">FociPerGy_Si.350.MeV.n_48</text>
</g>
<!-- Bgd_Ar.350.MeV.n_4 -->
<g id="node9" class="node"><title>Bgd_Ar.350.MeV.n_4</title>
<ellipse fill="#ee7621" stroke="black" cx="199.422" cy="-796.881" rx="98.4083" ry="18"/>
<text text-anchor="middle" x="199.422" y="-792.681" font-family="Times,serif" font-size="14.00">Bgd_Ar.350.MeV.n_4</text>
</g>
<!-- Bgd_Ar.350.MeV.n_8 -->
<g id="node11" class="node"><title>Bgd_Ar.350.MeV.n_8</title>
<ellipse fill="#ee7621" stroke="black" cx="235.175" cy="-686.022" rx="98.4083" ry="18"/>
<text text-anchor="middle" x="235.175" y="-681.822" font-family="Times,serif" font-size="14.00">Bgd_Ar.350.MeV.n_8</text>
</g>
<!-- Bgd_Ar.350.MeV.n_4&#45;&gt;Bgd_Ar.350.MeV.n_8 -->
<g id="edge14" class="edge"><title>Bgd_Ar.350.MeV.n_4&#45;&gt;Bgd_Ar.350.MeV.n_8</title>
<path fill="none" stroke="black" d="M205.326,-778.575C210.993,-761.003 219.631,-734.22 226.159,-713.978"/>
<polygon fill="black" stroke="black" points="229.524,-714.947 229.262,-704.355 222.862,-712.798 229.524,-714.947"/>
</g>
<!-- Bgd_Ar.350.MeV.n_4&#45;&gt;Bgd_Ar.350.MeV.n_8.1 -->
<g id="edge15" class="edge"><title>Bgd_Ar.350.MeV.n_4&#45;&gt;Bgd_Ar.350.MeV.n_8.1</title>
<path fill="none" stroke="black" d="M233.1,-779.967C233.161,-779.937 233.222,-779.906 233.282,-779.876"/>
<polygon fill="black" stroke="black" points="226.1,-787.403 233.465,-779.784 222.956,-781.147 226.1,-787.403"/>
</g>
<!-- FociPerGy_Ar.350.MeV.n_4 -->
<g id="node10" class="node"><title>FociPerGy_Ar.350.MeV.n_4</title>
<ellipse fill="#ee7621" stroke="black" cx="923.76" cy="-726.127" rx="123.887" ry="18"/>
<text text-anchor="middle" x="923.76" y="-721.927" font-family="Times,serif" font-size="14.00">FociPerGy_Ar.350.MeV.n_4</text>
</g>
<!-- Bgd_Ar.350.MeV.n_8&#45;&gt;Bgd_Si.350.MeV.n_24 -->
<g id="edge17" class="edge"><title>Bgd_Ar.350.MeV.n_8&#45;&gt;Bgd_Si.350.MeV.n_24</title>
<path fill="none" stroke="black" d="M260.612,-703.472C275.455,-713.654 294.379,-726.635 310.528,-737.714"/>
<polygon fill="black" stroke="black" points="308.945,-740.872 319.171,-743.643 312.905,-735.1 308.945,-740.872"/>
</g>
<!-- Bgd_Ar.350.MeV.n_8&#45;&gt;Bgd_Si.350.MeV.n_24.1 -->
<g id="edge18" class="edge"><title>Bgd_Ar.350.MeV.n_8&#45;&gt;Bgd_Si.350.MeV.n_24.1</title>
<path fill="none" stroke="black" d="M248.692,-668.007C257.182,-656.693 268.278,-641.906 277.741,-629.294"/>
<polygon fill="black" stroke="black" points="280.778,-631.079 283.98,-620.979 275.179,-626.877 280.778,-631.079"/>
</g>
<!-- Bgd_Ar.350.MeV.n_4.1 -->
<g id="node39" class="node"><title>Bgd_Ar.350.MeV.n_4.1</title>
<ellipse fill="#ee7621" stroke="black" cx="165.116" cy="-702.626" rx="105.393" ry="18"/>
<text text-anchor="middle" x="165.116" y="-698.426" font-family="Times,serif" font-size="14.00">Bgd_Ar.350.MeV.n_4.1</text>
</g>
<!-- Bgd_Ar.350.MeV.n_8&#45;&gt;Bgd_Ar.350.MeV.n_4.1 -->
<g id="edge16" class="edge"><title>Bgd_Ar.350.MeV.n_8&#45;&gt;Bgd_Ar.350.MeV.n_4.1</title>
<path fill="none" stroke="black" d="M174.857,-700.317C174.811,-700.328 174.765,-700.339 174.719,-700.35"/>
<polygon fill="black" stroke="black" points="183.504,-694.665 174.582,-700.382 185.122,-701.477 183.504,-694.665"/>
</g>
<!-- FociPerGy_Ar.350.MeV.n_8 -->
<g id="node12" class="node"><title>FociPerGy_Ar.350.MeV.n_8</title>
<ellipse fill="#ee7621" stroke="black" cx="1147.47" cy="-1008" rx="123.887" ry="18"/>
<text text-anchor="middle" x="1147.47" y="-1003.8" font-family="Times,serif" font-size="14.00">FociPerGy_Ar.350.MeV.n_8</text>
</g>
<!-- Bgd_Ar.350.MeV.n_48 -->
<g id="node15" class="node"><title>Bgd_Ar.350.MeV.n_48</title>
<ellipse fill="#ee7621" stroke="black" cx="788.445" cy="-676.876" rx="103.065" ry="18"/>
<text text-anchor="middle" x="788.445" y="-672.676" font-family="Times,serif" font-size="14.00">Bgd_Ar.350.MeV.n_48</text>
</g>
<!-- Bgd_Ar.350.MeV.n_24&#45;&gt;Bgd_Ar.350.MeV.n_48 -->
<g id="edge19" class="edge"><title>Bgd_Ar.350.MeV.n_24&#45;&gt;Bgd_Ar.350.MeV.n_48</title>
<path fill="none" stroke="black" d="M763.613,-681.884C763.668,-681.872 763.723,-681.861 763.778,-681.85"/>
<polygon fill="black" stroke="black" points="754.834,-687.229 763.943,-681.817 753.447,-680.367 754.834,-687.229"/>
</g>
<!-- Bgd_Si.350.MeV.n_48.1 -->
<g id="node37" class="node"><title>Bgd_Si.350.MeV.n_48.1</title>
<ellipse fill="lightcoral" stroke="black" cx="733.699" cy="-760.113" rx="108.282" ry="18"/>
<text text-anchor="middle" x="733.699" y="-755.913" font-family="Times,serif" font-size="14.00">Bgd_Si.350.MeV.n_48.1</text>
</g>
<!-- Bgd_Ar.350.MeV.n_24&#45;&gt;Bgd_Si.350.MeV.n_48.1 -->
<g id="edge22" class="edge"><title>Bgd_Ar.350.MeV.n_24&#45;&gt;Bgd_Si.350.MeV.n_48.1</title>
<path fill="none" stroke="black" d="M706.344,-713.543C709.899,-719.595 713.948,-726.489 717.821,-733.082"/>
<polygon fill="black" stroke="black" points="714.847,-734.93 722.93,-741.779 720.883,-731.384 714.847,-734.93"/>
</g>
<!-- Bgd_Ar.350.MeV.n_48.1 -->
<g id="node45" class="node"><title>Bgd_Ar.350.MeV.n_48.1</title>
<ellipse fill="#ee7621" stroke="black" cx="693.471" cy="-790.061" rx="110.051" ry="18"/>
<text text-anchor="middle" x="693.471" y="-785.861" font-family="Times,serif" font-size="14.00">Bgd_Ar.350.MeV.n_48.1</text>
</g>
<!-- Bgd_Ar.350.MeV.n_24&#45;&gt;Bgd_Ar.350.MeV.n_48.1 -->
<g id="edge20" class="edge"><title>Bgd_Ar.350.MeV.n_24&#45;&gt;Bgd_Ar.350.MeV.n_48.1</title>
<path fill="none" stroke="black" d="M695.336,-713.782C695.004,-727.378 694.543,-746.21 694.163,-761.76"/>
<polygon fill="black" stroke="black" points="690.661,-761.814 693.915,-771.897 697.659,-761.985 690.661,-761.814"/>
</g>
<!-- Bgd_Ar.350.MeV.n_24&#45;&gt;Bgd_Fe.600.MeV.n_48.1 -->
<g id="edge21" class="edge"><title>Bgd_Ar.350.MeV.n_24&#45;&gt;Bgd_Fe.600.MeV.n_48.1</title>
<path fill="none" stroke="black" d="M625.961,-682.259C625.893,-682.246 625.826,-682.233 625.758,-682.22"/>
<polygon fill="black" stroke="black" points="636.035,-680.619 625.556,-682.182 634.723,-687.495 636.035,-680.619"/>
</g>
<!-- FociPerGy_Ar.350.MeV.n_24 -->
<g id="node14" class="node"><title>FociPerGy_Ar.350.MeV.n_24</title>
<ellipse fill="#ee7621" stroke="black" cx="1053.47" cy="-18" rx="128.544" ry="18"/>
<text text-anchor="middle" x="1053.47" y="-13.8" font-family="Times,serif" font-size="14.00">FociPerGy_Ar.350.MeV.n_24</text>
</g>
<!-- Bgd_Ar.350.MeV.n_48&#45;&gt;Bgd_Ar.350.MeV.n_24.1 -->
<g id="edge23" class="edge"><title>Bgd_Ar.350.MeV.n_48&#45;&gt;Bgd_Ar.350.MeV.n_24.1</title>
<path fill="none" stroke="black" d="M736.142,-692.462C702.616,-702.452 658.904,-715.478 623.47,-726.037"/>
<polygon fill="black" stroke="black" points="622.295,-722.736 613.711,-728.946 624.294,-729.444 622.295,-722.736"/>
</g>
<!-- Bgd_Ar.350.MeV.n_48&#45;&gt;Bgd_Fe.600.MeV.n_4.1 -->
<g id="edge24" class="edge"><title>Bgd_Ar.350.MeV.n_48&#45;&gt;Bgd_Fe.600.MeV.n_4.1</title>
<path fill="none" stroke="black" d="M823.678,-659.725C824.872,-659.144 826.073,-658.559 827.277,-657.973"/>
<polygon fill="black" stroke="black" points="829.042,-661.007 836.501,-653.483 825.978,-654.713 829.042,-661.007"/>
</g>
<!-- FociPerGy_Ar.350.MeV.n_48 -->
<g id="node16" class="node"><title>FociPerGy_Ar.350.MeV.n_48</title>
<ellipse fill="#ee7621" stroke="black" cx="369.471" cy="-228.877" rx="128.544" ry="18"/>
<text text-anchor="middle" x="369.471" y="-224.677" font-family="Times,serif" font-size="14.00">FociPerGy_Ar.350.MeV.n_48</text>
</g>
<!-- FociPerGy_X.ray_24 -->
<g id="node28" class="node"><title>FociPerGy_X.ray_24</title>
<ellipse fill="lightgreen" stroke="black" cx="284.503" cy="-198.73" rx="93.8056" ry="18"/>
<text text-anchor="middle" x="284.503" y="-194.53" font-family="Times,serif" font-size="14.00">FociPerGy_X.ray_24</text>
</g>
<!-- FociPerGy_Ar.350.MeV.n_48&#45;&gt;FociPerGy_X.ray_24 -->
<g id="edge25" class="edge"><title>FociPerGy_Ar.350.MeV.n_48&#45;&gt;FociPerGy_X.ray_24</title>
<path fill="none" stroke="black" d="M322.019,-212.041C321.943,-212.014 321.867,-211.987 321.791,-211.96"/>
<polygon fill="black" stroke="black" points="332.159,-211.927 321.563,-211.879 329.816,-218.524 332.159,-211.927"/>
</g>
<!-- FociPerGy_X.ray_24.1 -->
<g id="node58" class="node"><title>FociPerGy_X.ray_24.1</title>
<ellipse fill="lightgreen" stroke="black" cx="497.952" cy="-106.657" rx="101.291" ry="18"/>
<text text-anchor="middle" x="497.952" y="-102.457" font-family="Times,serif" font-size="14.00">FociPerGy_X.ray_24.1</text>
</g>
<!-- FociPerGy_Ar.350.MeV.n_48&#45;&gt;FociPerGy_X.ray_24.1 -->
<g id="edge26" class="edge"><title>FociPerGy_Ar.350.MeV.n_48&#45;&gt;FociPerGy_X.ray_24.1</title>
<path fill="none" stroke="black" d="M388.429,-210.843C410.57,-189.781 447.312,-154.83 472.066,-131.282"/>
<polygon fill="black" stroke="black" points="474.501,-133.796 479.334,-124.368 469.677,-128.724 474.501,-133.796"/>
</g>
<!-- Bgd_Fe.600.MeV.n_4 -->
<g id="node17" class="node"><title>Bgd_Fe.600.MeV.n_4</title>
<ellipse fill="lightyellow" stroke="black" cx="842.837" cy="-732.254" rx="97.8459" ry="18"/>
<text text-anchor="middle" x="842.837" y="-728.054" font-family="Times,serif" font-size="14.00">Bgd_Fe.600.MeV.n_4</text>
</g>
<!-- Bgd_Fe.600.MeV.n_4&#45;&gt;Bgd_Si.350.MeV.n_48 -->
<g id="edge33" class="edge"><title>Bgd_Fe.600.MeV.n_4&#45;&gt;Bgd_Si.350.MeV.n_48</title>
<path fill="none" stroke="black" d="M801.394,-748.726C771.341,-760.672 730.513,-776.899 698.451,-789.643"/>
<polygon fill="black" stroke="black" points="696.804,-786.531 688.804,-793.477 699.389,-793.036 696.804,-786.531"/>
</g>
<!-- Bgd_Fe.600.MeV.n_4&#45;&gt;FociPerGy_Ar.350.MeV.n_4 -->
<g id="edge31" class="edge"><title>Bgd_Fe.600.MeV.n_4&#45;&gt;FociPerGy_Ar.350.MeV.n_4</title>
<path fill="none" stroke="black" d="M923.702,-726.132C923.711,-726.131 923.72,-726.13 923.727,-726.13"/>
<polygon fill="black" stroke="black" points="914.056,-730.423 923.746,-726.128 913.492,-723.443 914.056,-730.423"/>
</g>
<!-- Bgd_Fe.600.MeV.n_4&#45;&gt;Bgd_Ar.350.MeV.n_48 -->
<g id="edge29" class="edge"><title>Bgd_Fe.600.MeV.n_4&#45;&gt;Bgd_Ar.350.MeV.n_48</title>
<path fill="none" stroke="black" d="M825.328,-714.427C821.446,-710.475 817.261,-706.214 813.152,-702.032"/>
<polygon fill="black" stroke="black" points="815.426,-699.351 805.921,-694.67 810.432,-704.257 815.426,-699.351"/>
</g>
<!-- Bgd_Fe.600.MeV.n_4&#45;&gt;Bgd_Si.350.MeV.n_48.1 -->
<g id="edge27" class="edge"><title>Bgd_Fe.600.MeV.n_4&#45;&gt;Bgd_Si.350.MeV.n_48.1</title>
<path fill="none" stroke="black" d="M785.392,-746.918C785.34,-746.931 785.289,-746.944 785.238,-746.957"/>
<polygon fill="black" stroke="black" points="793.906,-741.127 785.084,-746.996 795.641,-747.91 793.906,-741.127"/>
</g>
<!-- FociPerGy_Ar.350.MeV.n_4.1 -->
<g id="node40" class="node"><title>FociPerGy_Ar.350.MeV.n_4.1</title>
<ellipse fill="#ee7621" stroke="black" cx="886.247" cy="-800.823" rx="131.373" ry="18"/>
<text text-anchor="middle" x="886.247" y="-796.623" font-family="Times,serif" font-size="14.00">FociPerGy_Ar.350.MeV.n_4.1</text>
</g>
<!-- Bgd_Fe.600.MeV.n_4&#45;&gt;FociPerGy_Ar.350.MeV.n_4.1 -->
<g id="edge32" class="edge"><title>Bgd_Fe.600.MeV.n_4&#45;&gt;FociPerGy_Ar.350.MeV.n_4.1</title>
<path fill="none" stroke="black" d="M854.243,-750.27C858.842,-757.535 864.244,-766.069 869.288,-774.035"/>
<polygon fill="black" stroke="black" points="866.461,-776.113 874.767,-782.69 872.375,-772.368 866.461,-776.113"/>
</g>
<!-- Bgd_Fe.600.MeV.n_4&#45;&gt;Bgd_Ar.350.MeV.n_48.1 -->
<g id="edge30" class="edge"><title>Bgd_Fe.600.MeV.n_4&#45;&gt;Bgd_Ar.350.MeV.n_48.1</title>
<path fill="none" stroke="black" d="M800.833,-748.511C783.87,-755.076 764.104,-762.725 746.19,-769.658"/>
<polygon fill="black" stroke="black" points="744.52,-766.552 736.457,-773.425 747.046,-773.08 744.52,-766.552"/>
</g>
<!-- Bgd_Fe.600.MeV.n_24.1 -->
<g id="node51" class="node"><title>Bgd_Fe.600.MeV.n_24.1</title>
<ellipse fill="lightyellow" stroke="black" cx="856.103" cy="-504.498" rx="109.989" ry="18"/>
<text text-anchor="middle" x="856.103" y="-500.298" font-family="Times,serif" font-size="14.00">Bgd_Fe.600.MeV.n_24.1</text>
</g>
<!-- Bgd_Fe.600.MeV.n_4&#45;&gt;Bgd_Fe.600.MeV.n_24.1 -->
<g id="edge28" class="edge"><title>Bgd_Fe.600.MeV.n_4&#45;&gt;Bgd_Fe.600.MeV.n_24.1</title>
<path fill="none" stroke="black" d="M843.9,-714.001C846.21,-674.339 851.701,-580.064 854.461,-532.691"/>
<polygon fill="black" stroke="black" points="857.965,-532.709 855.053,-522.522 850.977,-532.302 857.965,-532.709"/>
</g>
<!-- FociPerGy_Fe.600.MeV.n_4 -->
<g id="node18" class="node"><title>FociPerGy_Fe.600.MeV.n_4</title>
<ellipse fill="lightyellow" stroke="black" cx="832.518" cy="-341.145" rx="123.325" ry="18"/>
<text text-anchor="middle" x="832.518" y="-336.945" font-family="Times,serif" font-size="14.00">FociPerGy_Fe.600.MeV.n_4</text>
</g>
<!-- Bgd_Fe.600.MeV.n_24 -->
<g id="node21" class="node"><title>Bgd_Fe.600.MeV.n_24</title>
<ellipse fill="lightyellow" stroke="black" cx="568.725" cy="-315.487" rx="102.503" ry="18"/>
<text text-anchor="middle" x="568.725" y="-311.287" font-family="Times,serif" font-size="14.00">Bgd_Fe.600.MeV.n_24</text>
</g>
<!-- FociPerGy_Fe.600.MeV.n_4&#45;&gt;Bgd_Fe.600.MeV.n_24 -->
<g id="edge34" class="edge"><title>FociPerGy_Fe.600.MeV.n_4&#45;&gt;Bgd_Fe.600.MeV.n_24</title>
<path fill="none" stroke="black" d="M729.774,-331.152C709.725,-329.202 688.731,-327.16 668.771,-325.218"/>
<polygon fill="black" stroke="black" points="669.045,-321.729 658.753,-324.244 668.367,-328.696 669.045,-321.729"/>
</g>
<!-- FociPerGy_Fe.600.MeV.n_4&#45;&gt;Bgd_Fe.600.MeV.n_24.1 -->
<g id="edge35" class="edge"><title>FociPerGy_Fe.600.MeV.n_4&#45;&gt;Bgd_Fe.600.MeV.n_24.1</title>
<path fill="none" stroke="black" d="M835.132,-359.251C839.223,-387.585 847.17,-442.628 852.02,-476.22"/>
<polygon fill="black" stroke="black" points="848.584,-476.914 853.477,-486.311 855.512,-475.914 848.584,-476.914"/>
</g>
<!-- FociPerGy_Fe.600.MeV.n_24.1 -->
<g id="node52" class="node"><title>FociPerGy_Fe.600.MeV.n_24.1</title>
<ellipse fill="lightyellow" stroke="black" cx="881.927" cy="-288.775" rx="135.467" ry="18"/>
<text text-anchor="middle" x="881.927" y="-284.575" font-family="Times,serif" font-size="14.00">FociPerGy_Fe.600.MeV.n_24.1</text>
</g>
<!-- FociPerGy_Fe.600.MeV.n_4&#45;&gt;FociPerGy_Fe.600.MeV.n_24.1 -->
<g id="edge36" class="edge"><title>FociPerGy_Fe.600.MeV.n_4&#45;&gt;FociPerGy_Fe.600.MeV.n_24.1</title>
<path fill="none" stroke="black" d="M849.522,-323.122C852.27,-320.21 855.159,-317.148 858.033,-314.101"/>
<polygon fill="black" stroke="black" points="860.743,-316.329 865.06,-306.653 855.651,-311.525 860.743,-316.329"/>
</g>
<!-- Bgd_Fe.600.MeV.n_8 -->
<g id="node19" class="node"><title>Bgd_Fe.600.MeV.n_8</title>
<ellipse fill="lightyellow" stroke="black" cx="328.105" cy="-473.746" rx="97.8459" ry="18"/>
<text text-anchor="middle" x="328.105" y="-469.546" font-family="Times,serif" font-size="14.00">Bgd_Fe.600.MeV.n_8</text>
</g>
<!-- Bgd_X.ray_48 -->
<g id="node29" class="node"><title>Bgd_X.ray_48</title>
<ellipse fill="lightgreen" stroke="black" cx="622.979" cy="-390.282" rx="68.3267" ry="18"/>
<text text-anchor="middle" x="622.979" y="-386.082" font-family="Times,serif" font-size="14.00">Bgd_X.ray_48</text>
</g>
<!-- Bgd_Fe.600.MeV.n_8&#45;&gt;Bgd_X.ray_48 -->
<g id="edge37" class="edge"><title>Bgd_Fe.600.MeV.n_8&#45;&gt;Bgd_X.ray_48</title>
<path fill="none" stroke="black" d="M381.504,-458.631C433.845,-443.816 513.323,-421.32 566.649,-406.226"/>
<polygon fill="black" stroke="black" points="567.621,-409.588 576.29,-403.497 565.714,-402.853 567.621,-409.588"/>
</g>
<!-- Bgd_X.ray_48.1 -->
<g id="node59" class="node"><title>Bgd_X.ray_48.1</title>
<ellipse fill="lightgreen" stroke="black" cx="392.446" cy="-506.059" rx="75.3118" ry="18"/>
<text text-anchor="middle" x="392.446" y="-501.859" font-family="Times,serif" font-size="14.00">Bgd_X.ray_48.1</text>
</g>
<!-- Bgd_Fe.600.MeV.n_8&#45;&gt;Bgd_X.ray_48.1 -->
<g id="edge38" class="edge"><title>Bgd_Fe.600.MeV.n_8&#45;&gt;Bgd_X.ray_48.1</title>
<path fill="none" stroke="black" d="M361.783,-490.66C361.844,-490.69 361.905,-490.721 361.966,-490.751"/>
<polygon fill="black" stroke="black" points="351.639,-489.48 362.148,-490.843 354.783,-483.224 351.639,-489.48"/>
</g>
<!-- FociPerGy_Fe.600.MeV.n_8 -->
<g id="node20" class="node"><title>FociPerGy_Fe.600.MeV.n_8</title>
<ellipse fill="lightyellow" stroke="black" cx="837.471" cy="-166.523" rx="123.325" ry="18"/>
<text text-anchor="middle" x="837.471" y="-162.323" font-family="Times,serif" font-size="14.00">FociPerGy_Fe.600.MeV.n_8</text>
</g>
<!-- FociPerGy_Fe.600.MeV.n_24 -->
<g id="node22" class="node"><title>FociPerGy_Fe.600.MeV.n_24</title>
<ellipse fill="lightyellow" stroke="black" cx="756.578" cy="-206.331" rx="128.482" ry="18"/>
<text text-anchor="middle" x="756.578" y="-202.131" font-family="Times,serif" font-size="14.00">FociPerGy_Fe.600.MeV.n_24</text>
</g>
<!-- FociPerGy_Fe.600.MeV.n_8&#45;&gt;FociPerGy_Fe.600.MeV.n_24 -->
<g id="edge39" class="edge"><title>FociPerGy_Fe.600.MeV.n_8&#45;&gt;FociPerGy_Fe.600.MeV.n_24</title>
<path fill="none" stroke="black" d="M802.225,-183.868C801.8,-184.077 801.373,-184.287 800.946,-184.497"/>
<polygon fill="black" stroke="black" points="799.383,-181.365 791.956,-188.921 802.473,-187.646 799.383,-181.365"/>
</g>
<!-- FociPerGy_Fe.600.MeV.n_48 -->
<g id="node24" class="node"><title>FociPerGy_Fe.600.MeV.n_48</title>
<ellipse fill="lightyellow" stroke="black" cx="750.67" cy="-51.198" rx="128.482" ry="18"/>
<text text-anchor="middle" x="750.67" y="-46.998" font-family="Times,serif" font-size="14.00">FociPerGy_Fe.600.MeV.n_48</text>
</g>
<!-- FociPerGy_Fe.600.MeV.n_8&#45;&gt;FociPerGy_Fe.600.MeV.n_48 -->
<g id="edge41" class="edge"><title>FociPerGy_Fe.600.MeV.n_8&#45;&gt;FociPerGy_Fe.600.MeV.n_48</title>
<path fill="none" stroke="black" d="M823.908,-148.504C809.596,-129.489 786.894,-99.3265 770.558,-77.6221"/>
<polygon fill="black" stroke="black" points="773.234,-75.3567 764.424,-69.4717 767.641,-79.5662 773.234,-75.3567"/>
</g>
<!-- FociPerGy_Fe.600.MeV.n_8&#45;&gt;FociPerGy_Fe.600.MeV.n_24.1 -->
<g id="edge40" class="edge"><title>FociPerGy_Fe.600.MeV.n_8&#45;&gt;FociPerGy_Fe.600.MeV.n_24.1</title>
<path fill="none" stroke="black" d="M844.031,-184.562C851.385,-204.786 863.396,-237.815 871.923,-261.264"/>
<polygon fill="black" stroke="black" points="868.634,-262.46 875.341,-270.662 875.213,-260.068 868.634,-262.46"/>
</g>
<!-- FociPerGy_Fe.600.MeV.n_48.1 -->
<g id="node54" class="node"><title>FociPerGy_Fe.600.MeV.n_48.1</title>
<ellipse fill="lightyellow" stroke="black" cx="873.471" cy="-104.169" rx="135.467" ry="18"/>
<text text-anchor="middle" x="873.471" y="-99.9694" font-family="Times,serif" font-size="14.00">FociPerGy_Fe.600.MeV.n_48.1</text>
</g>
<!-- FociPerGy_Fe.600.MeV.n_8&#45;&gt;FociPerGy_Fe.600.MeV.n_48.1 -->
<g id="edge42" class="edge"><title>FociPerGy_Fe.600.MeV.n_8&#45;&gt;FociPerGy_Fe.600.MeV.n_48.1</title>
<path fill="none" stroke="black" d="M847.884,-148.488C850.991,-143.106 854.467,-137.085 857.832,-131.258"/>
<polygon fill="black" stroke="black" points="860.988,-132.79 862.957,-122.38 854.926,-129.29 860.988,-132.79"/>
</g>
<!-- Bgd_Fe.600.MeV.n_24&#45;&gt;Bgd_Fe.600.MeV.n_4 -->
<g id="edge44" class="edge"><title>Bgd_Fe.600.MeV.n_24&#45;&gt;Bgd_Fe.600.MeV.n_4</title>
<path fill="none" stroke="black" d="M580.504,-333.395C623.722,-399.105 773.739,-627.195 825.285,-705.567"/>
<polygon fill="black" stroke="black" points="822.375,-707.512 830.794,-713.944 828.223,-703.665 822.375,-707.512"/>
</g>
<!-- Bgd_Fe.600.MeV.n_24&#45;&gt;Bgd_Fe.600.MeV.n_4.1 -->
<g id="edge45" class="edge"><title>Bgd_Fe.600.MeV.n_24&#45;&gt;Bgd_Fe.600.MeV.n_4.1</title>
<path fill="none" stroke="black" d="M585.873,-333.662C636.983,-387.836 788.391,-548.319 847.502,-610.973"/>
<polygon fill="black" stroke="black" points="845.156,-613.587 854.564,-618.459 850.248,-608.783 845.156,-613.587"/>
</g>
<!-- FociPerGy_Fe.600.MeV.n_4.1 -->
<g id="node48" class="node"><title>FociPerGy_Fe.600.MeV.n_4.1</title>
<ellipse fill="lightyellow" stroke="black" cx="522.958" cy="-248.469" rx="130.81" ry="18"/>
<text text-anchor="middle" x="522.958" y="-244.269" font-family="Times,serif" font-size="14.00">FociPerGy_Fe.600.MeV.n_4.1</text>
</g>
<!-- Bgd_Fe.600.MeV.n_24&#45;&gt;FociPerGy_Fe.600.MeV.n_4.1 -->
<g id="edge43" class="edge"><title>Bgd_Fe.600.MeV.n_24&#45;&gt;FociPerGy_Fe.600.MeV.n_4.1</title>
<path fill="none" stroke="black" d="M556.46,-297.528C551.741,-290.616 546.247,-282.571 541.089,-275.019"/>
<polygon fill="black" stroke="black" points="543.786,-272.763 535.256,-266.478 538.006,-276.71 543.786,-272.763"/>
</g>
<!-- FociPerGy_Fe.600.MeV.n_24&#45;&gt;FociPerGy_Fe.600.MeV.n_4 -->
<g id="edge47" class="edge"><title>FociPerGy_Fe.600.MeV.n_24&#45;&gt;FociPerGy_Fe.600.MeV.n_4</title>
<path fill="none" stroke="black" d="M766.819,-224.512C779.784,-247.529 802.233,-287.382 817.23,-314.005"/>
<polygon fill="black" stroke="black" points="814.239,-315.826 822.196,-322.821 820.338,-312.391 814.239,-315.826"/>
</g>
<!-- FociPerGy_Fe.600.MeV.n_24&#45;&gt;FociPerGy_Fe.600.MeV.n_4.1 -->
<g id="edge48" class="edge"><title>FociPerGy_Fe.600.MeV.n_24&#45;&gt;FociPerGy_Fe.600.MeV.n_4.1</title>
<path fill="none" stroke="black" d="M677.81,-220.538C656.883,-224.313 634.128,-228.417 612.664,-232.289"/>
<polygon fill="black" stroke="black" points="611.796,-228.889 602.576,-234.108 613.039,-235.778 611.796,-228.889"/>
</g>
<!-- FociPerGy_Fe.600.MeV.n_8.1 -->
<g id="node50" class="node"><title>FociPerGy_Fe.600.MeV.n_8.1</title>
<ellipse fill="lightyellow" stroke="black" cx="730.02" cy="-120.173" rx="130.81" ry="18"/>
<text text-anchor="middle" x="730.02" y="-115.973" font-family="Times,serif" font-size="14.00">FociPerGy_Fe.600.MeV.n_8.1</text>
</g>
<!-- FociPerGy_Fe.600.MeV.n_24&#45;&gt;FociPerGy_Fe.600.MeV.n_8.1 -->
<g id="edge46" class="edge"><title>FociPerGy_Fe.600.MeV.n_24&#45;&gt;FociPerGy_Fe.600.MeV.n_8.1</title>
<path fill="none" stroke="black" d="M750.945,-188.059C747.389,-176.522 742.723,-161.384 738.699,-148.331"/>
<polygon fill="black" stroke="black" points="741.934,-146.944 735.644,-138.419 735.245,-149.006 741.934,-146.944"/>
</g>
<!-- Bgd_Fe.600.MeV.n_48&#45;&gt;Bgd_Ar.350.MeV.n_24 -->
<g id="edge50" class="edge"><title>Bgd_Fe.600.MeV.n_48&#45;&gt;Bgd_Ar.350.MeV.n_24</title>
<path fill="none" stroke="black" d="M661.73,-677.953C661.862,-678.022 661.995,-678.09 662.127,-678.159"/>
<polygon fill="black" stroke="black" points="652.034,-676.879 662.525,-678.364 655.25,-670.661 652.034,-676.879"/>
</g>
<!-- FociPerGy_Si.350.MeV.n_24.1 -->
<g id="node36" class="node"><title>FociPerGy_Si.350.MeV.n_24.1</title>
<ellipse fill="lightcoral" stroke="black" cx="593.844" cy="-746.756" rx="133.761" ry="18"/>
<text text-anchor="middle" x="593.844" y="-742.556" font-family="Times,serif" font-size="14.00">FociPerGy_Si.350.MeV.n_24.1</text>
</g>
<!-- Bgd_Fe.600.MeV.n_48&#45;&gt;FociPerGy_Si.350.MeV.n_24.1 -->
<g id="edge51" class="edge"><title>Bgd_Fe.600.MeV.n_48&#45;&gt;FociPerGy_Si.350.MeV.n_24.1</title>
<path fill="none" stroke="black" d="M621.124,-678.992C616.442,-690.622 610.284,-705.919 605.004,-719.035"/>
<polygon fill="black" stroke="black" points="601.664,-717.96 601.176,-728.544 608.157,-720.574 601.664,-717.96"/>
</g>
<!-- Bgd_Fe.600.MeV.n_48&#45;&gt;Bgd_Ar.350.MeV.n_24.1 -->
<g id="edge49" class="edge"><title>Bgd_Fe.600.MeV.n_48&#45;&gt;Bgd_Ar.350.MeV.n_24.1</title>
<path fill="none" stroke="black" d="M614.045,-678.58C604.643,-690.203 592.21,-705.571 581.688,-718.578"/>
<polygon fill="black" stroke="black" points="578.669,-716.745 575.101,-726.721 584.111,-721.148 578.669,-716.745"/>
</g>
<!-- FociPerGy_Fe.600.MeV.n_48&#45;&gt;FociPerGy_Fe.600.MeV.n_8.1 -->
<g id="edge52" class="edge"><title>FociPerGy_Fe.600.MeV.n_48&#45;&gt;FociPerGy_Fe.600.MeV.n_8.1</title>
<path fill="none" stroke="black" d="M745.244,-69.3205C743.15,-76.3142 740.707,-84.4769 738.398,-92.1893"/>
<polygon fill="black" stroke="black" points="734.996,-91.3487 735.481,-101.932 741.702,-93.3563 734.996,-91.3487"/>
</g>
<!-- Bgd_X.ray_4 -->
<g id="node25" class="node"><title>Bgd_X.ray_4</title>
<ellipse fill="lightgreen" stroke="black" cx="499.48" cy="-487.494" rx="63.1697" ry="18"/>
<text text-anchor="middle" x="499.48" y="-483.294" font-family="Times,serif" font-size="14.00">Bgd_X.ray_4</text>
</g>
<!-- Bgd_X.ray_4&#45;&gt;Bgd_Si.350.MeV.n_4 -->
<g id="edge56" class="edge"><title>Bgd_X.ray_4&#45;&gt;Bgd_Si.350.MeV.n_4</title>
<path fill="none" stroke="black" d="M490.355,-505.607C471.515,-543.001 428.233,-628.91 406.069,-672.902"/>
<polygon fill="black" stroke="black" points="402.923,-671.368 401.549,-681.873 409.174,-674.518 402.923,-671.368"/>
</g>
<!-- Bgd_X.ray_24 -->
<g id="node27" class="node"><title>Bgd_X.ray_24</title>
<ellipse fill="lightgreen" stroke="black" cx="656.984" cy="-594.641" rx="68.3267" ry="18"/>
<text text-anchor="middle" x="656.984" y="-590.441" font-family="Times,serif" font-size="14.00">Bgd_X.ray_24</text>
</g>
<!-- Bgd_X.ray_4&#45;&gt;Bgd_X.ray_24 -->
<g id="edge54" class="edge"><title>Bgd_X.ray_4&#45;&gt;Bgd_X.ray_24</title>
<path fill="none" stroke="black" d="M524.09,-504.236C550.943,-522.503 594.073,-551.844 623.879,-572.12"/>
<polygon fill="black" stroke="black" points="622.051,-575.11 632.288,-577.841 625.988,-569.322 622.051,-575.11"/>
</g>
<!-- Bgd_X.ray_4&#45;&gt;Bgd_Si.350.MeV.n_4.1 -->
<g id="edge57" class="edge"><title>Bgd_X.ray_4&#45;&gt;Bgd_Si.350.MeV.n_4.1</title>
<path fill="none" stroke="black" d="M469.418,-503.397C453.67,-511.727 434.138,-522.059 416.954,-531.149"/>
<polygon fill="black" stroke="black" points="414.892,-528.281 407.689,-536.05 418.165,-534.468 414.892,-528.281"/>
</g>
<!-- Bgd_X.ray_4&#45;&gt;Bgd_X.ray_24.1 -->
<g id="edge55" class="edge"><title>Bgd_X.ray_4&#45;&gt;Bgd_X.ray_24.1</title>
<path fill="none" stroke="black" d="M512.614,-505.136C515.886,-509.531 519.465,-514.338 522.972,-519.049"/>
<polygon fill="black" stroke="black" points="520.347,-521.384 529.126,-527.315 525.962,-517.204 520.347,-521.384"/>
</g>
<!-- Bgd_X.ray_4&#45;&gt;Bgd_X.ray_48.1 -->
<g id="edge53" class="edge"><title>Bgd_X.ray_4&#45;&gt;Bgd_X.ray_48.1</title>
<path fill="none" stroke="black" d="M445.336,-496.886C445.284,-496.895 445.232,-496.904 445.181,-496.913"/>
<polygon fill="black" stroke="black" points="454.278,-491.777 445.025,-496.94 455.478,-498.674 454.278,-491.777"/>
</g>
<!-- FociPerGy_X.ray_4 -->
<g id="node26" class="node"><title>FociPerGy_X.ray_4</title>
<ellipse fill="lightgreen" stroke="black" cx="89.0743" cy="-186.474" rx="89.1486" ry="18"/>
<text text-anchor="middle" x="89.0743" y="-182.274" font-family="Times,serif" font-size="14.00">FociPerGy_X.ray_4</text>
</g>
<!-- FociPerGy_X.ray_48.1 -->
<g id="node60" class="node"><title>FociPerGy_X.ray_48.1</title>
<ellipse fill="lightgreen" stroke="black" cx="357.329" cy="-74.1075" rx="101.291" ry="18"/>
<text text-anchor="middle" x="357.329" y="-69.9075" font-family="Times,serif" font-size="14.00">FociPerGy_X.ray_48.1</text>
</g>
<!-- FociPerGy_X.ray_4&#45;&gt;FociPerGy_X.ray_48.1 -->
<g id="edge58" class="edge"><title>FociPerGy_X.ray_4&#45;&gt;FociPerGy_X.ray_48.1</title>
<path fill="none" stroke="black" d="M127.794,-170.255C175.465,-150.286 256.473,-116.354 308.403,-94.6016"/>
<polygon fill="black" stroke="black" points="309.875,-97.7796 317.747,-90.6878 307.171,-91.3231 309.875,-97.7796"/>
</g>
<!-- Bgd_X.ray_24&#45;&gt;FociPerGy_Si.350.MeV.n_24 -->
<g id="edge59" class="edge"><title>Bgd_X.ray_24&#45;&gt;FociPerGy_Si.350.MeV.n_24</title>
<path fill="none" stroke="black" d="M594.528,-601.941C594.442,-601.951 594.357,-601.961 594.271,-601.971"/>
<polygon fill="black" stroke="black" points="603.542,-597.36 594.017,-602.001 604.357,-604.313 603.542,-597.36"/>
</g>
<!-- Bgd_X.ray_24&#45;&gt;FociPerGy_Si.350.MeV.n_24.1 -->
<g id="edge60" class="edge"><title>Bgd_X.ray_24&#45;&gt;FociPerGy_Si.350.MeV.n_24.1</title>
<path fill="none" stroke="black" d="M649.493,-612.688C638.528,-639.105 618.021,-688.509 605.197,-719.405"/>
<polygon fill="black" stroke="black" points="601.926,-718.155 601.325,-728.733 608.391,-720.839 601.926,-718.155"/>
</g>
<!-- Bgd_X.ray_4.1 -->
<g id="node55" class="node"><title>Bgd_X.ray_4.1</title>
<ellipse fill="lightgreen" stroke="black" cx="728.497" cy="-586.283" rx="70.6548" ry="18"/>
<text text-anchor="middle" x="728.497" y="-582.083" font-family="Times,serif" font-size="14.00">Bgd_X.ray_4.1</text>
</g>
<!-- Bgd_X.ray_24&#45;&gt;Bgd_X.ray_4.1 -->
<g id="edge61" class="edge"><title>Bgd_X.ray_24&#45;&gt;Bgd_X.ray_4.1</title>
<path fill="none" stroke="black" d="M719.44,-587.341C719.526,-587.331 719.612,-587.321 719.697,-587.311"/>
<polygon fill="black" stroke="black" points="710.426,-591.922 719.951,-587.282 709.611,-584.97 710.426,-591.922"/>
</g>
<!-- FociPerGy_X.ray_48 -->
<g id="node30" class="node"><title>FociPerGy_X.ray_48</title>
<ellipse fill="lightgreen" stroke="black" cx="190.196" cy="-184.033" rx="93.8056" ry="18"/>
<text text-anchor="middle" x="190.196" y="-179.833" font-family="Times,serif" font-size="14.00">FociPerGy_X.ray_48</text>
</g>
<!-- FociPerGy_X.ray_24&#45;&gt;FociPerGy_X.ray_48 -->
<g id="edge62" class="edge"><title>FociPerGy_X.ray_24&#45;&gt;FociPerGy_X.ray_48</title>
<path fill="none" stroke="black" d="M211.596,-187.368C211.547,-187.36 211.499,-187.353 211.45,-187.345"/>
<polygon fill="black" stroke="black" points="221.727,-185.41 211.305,-187.323 220.645,-192.326 221.727,-185.41"/>
</g>
<!-- FociPerGy_Ar.350.MeV.n_48.1 -->
<g id="node46" class="node"><title>FociPerGy_Ar.350.MeV.n_48.1</title>
<ellipse fill="#ee7621" stroke="black" cx="610.59" cy="-171.731" rx="136.03" ry="18"/>
<text text-anchor="middle" x="610.59" y="-167.531" font-family="Times,serif" font-size="14.00">FociPerGy_Ar.350.MeV.n_48.1</text>
</g>
<!-- FociPerGy_X.ray_24&#45;&gt;FociPerGy_Ar.350.MeV.n_48.1 -->
<g id="edge64" class="edge"><title>FociPerGy_X.ray_24&#45;&gt;FociPerGy_Ar.350.MeV.n_48.1</title>
<path fill="none" stroke="black" d="M371.032,-191.566C405.933,-188.676 446.882,-185.285 484.955,-182.133"/>
<polygon fill="black" stroke="black" points="485.41,-185.607 495.087,-181.294 484.832,-178.631 485.41,-185.607"/>
</g>
<!-- FociPerGy_X.ray_24&#45;&gt;FociPerGy_X.ray_48.1 -->
<g id="edge63" class="edge"><title>FociPerGy_X.ray_24&#45;&gt;FociPerGy_X.ray_48.1</title>
<path fill="none" stroke="black" d="M295.093,-180.609C307.336,-159.658 327.604,-124.975 341.669,-100.905"/>
<polygon fill="black" stroke="black" points="344.703,-102.65 346.727,-92.2506 338.66,-99.1185 344.703,-102.65"/>
</g>
<!-- Bgd_X.ray_48&#45;&gt;Bgd_Fe.600.MeV.n_24 -->
<g id="edge68" class="edge"><title>Bgd_X.ray_48&#45;&gt;Bgd_Fe.600.MeV.n_24</title>
<path fill="none" stroke="black" d="M610.122,-372.556C603.414,-363.309 595.079,-351.819 587.65,-341.577"/>
<polygon fill="black" stroke="black" points="590.383,-339.384 581.678,-333.344 584.717,-343.494 590.383,-339.384"/>
</g>
<!-- Bgd_X.ray_48&#45;&gt;Bgd_X.ray_4 -->
<g id="edge66" class="edge"><title>Bgd_X.ray_48&#45;&gt;Bgd_X.ray_4</title>
<path fill="none" stroke="black" d="M601.184,-407.437C581.167,-423.194 551.334,-446.678 529.149,-464.14"/>
<polygon fill="black" stroke="black" points="526.75,-461.574 521.057,-470.51 531.08,-467.075 526.75,-461.574"/>
</g>
<!-- Bgd_Fe.600.MeV.n_8.1 -->
<g id="node49" class="node"><title>Bgd_Fe.600.MeV.n_8.1</title>
<ellipse fill="lightyellow" stroke="black" cx="826.092" cy="-444.741" rx="104.831" ry="18"/>
<text text-anchor="middle" x="826.092" y="-440.541" font-family="Times,serif" font-size="14.00">Bgd_Fe.600.MeV.n_8.1</text>
</g>
<!-- Bgd_X.ray_48&#45;&gt;Bgd_Fe.600.MeV.n_8.1 -->
<g id="edge65" class="edge"><title>Bgd_X.ray_48&#45;&gt;Bgd_Fe.600.MeV.n_8.1</title>
<path fill="none" stroke="black" d="M670.857,-403.119C697.295,-410.208 730.544,-419.123 759.482,-426.882"/>
<polygon fill="black" stroke="black" points="758.954,-430.364 769.52,-429.573 760.767,-423.603 758.954,-430.364"/>
</g>
<!-- Bgd_X.ray_48&#45;&gt;Bgd_Fe.600.MeV.n_24.1 -->
<g id="edge69" class="edge"><title>Bgd_X.ray_48&#45;&gt;Bgd_Fe.600.MeV.n_24.1</title>
<path fill="none" stroke="black" d="M655.394,-406.163C696.126,-426.119 766.212,-460.457 811.851,-482.817"/>
<polygon fill="black" stroke="black" points="810.398,-486.003 820.918,-487.26 813.477,-479.717 810.398,-486.003"/>
</g>
<!-- Bgd_X.ray_48&#45;&gt;Bgd_X.ray_4.1 -->
<g id="edge67" class="edge"><title>Bgd_X.ray_48&#45;&gt;Bgd_X.ray_4.1</title>
<path fill="none" stroke="black" d="M632.717,-408.37C651.327,-442.937 692.033,-518.549 713.907,-559.18"/>
<polygon fill="black" stroke="black" points="710.961,-561.092 718.783,-568.238 717.125,-557.774 710.961,-561.092"/>
</g>
<!-- FociPerGy_X.ray_48&#45;&gt;FociPerGy_X.ray_4 -->
<g id="edge71" class="edge"><title>FociPerGy_X.ray_48&#45;&gt;FociPerGy_X.ray_4</title>
<path fill="none" stroke="black" d="M97.0091,-186.282C96.9318,-186.284 96.855,-186.286 96.7786,-186.288"/>
<polygon fill="black" stroke="black" points="106.462,-182.549 96.5511,-186.293 106.634,-189.547 106.462,-182.549"/>
</g>
<!-- FociPerGy_X.ray_4.1 -->
<g id="node56" class="node"><title>FociPerGy_X.ray_4.1</title>
<ellipse fill="lightgreen" stroke="black" cx="198.512" cy="-83.2242" rx="96.1343" ry="18"/>
<text text-anchor="middle" x="198.512" y="-79.0242" font-family="Times,serif" font-size="14.00">FociPerGy_X.ray_4.1</text>
</g>
<!-- FociPerGy_X.ray_48&#45;&gt;FociPerGy_X.ray_4.1 -->
<g id="edge72" class="edge"><title>FociPerGy_X.ray_48&#45;&gt;FociPerGy_X.ray_4.1</title>
<path fill="none" stroke="black" d="M191.683,-166.01C192.929,-150.909 194.729,-129.082 196.169,-111.631"/>
<polygon fill="black" stroke="black" points="199.676,-111.685 197.01,-101.431 192.7,-111.109 199.676,-111.685"/>
</g>
<!-- FociPerGy_X.ray_48&#45;&gt;FociPerGy_X.ray_24.1 -->
<g id="edge70" class="edge"><title>FociPerGy_X.ray_48&#45;&gt;FociPerGy_X.ray_24.1</title>
<path fill="none" stroke="black" d="M247.361,-169.66C298.827,-156.721 374.567,-137.678 429.297,-123.918"/>
<polygon fill="black" stroke="black" points="430.416,-127.246 439.261,-121.413 428.71,-120.457 430.416,-127.246"/>
</g>
<!-- FociPerGy_Si.350.MeV.n_4.1 -->
<g id="node32" class="node"><title>FociPerGy_Si.350.MeV.n_4.1</title>
<ellipse fill="lightcoral" stroke="black" cx="1152.47" cy="-183" rx="129.104" ry="18"/>
<text text-anchor="middle" x="1152.47" y="-178.8" font-family="Times,serif" font-size="14.00">FociPerGy_Si.350.MeV.n_4.1</text>
</g>
<!-- FociPerGy_Si.350.MeV.n_8.1 -->
<g id="node34" class="node"><title>FociPerGy_Si.350.MeV.n_8.1</title>
<ellipse fill="lightcoral" stroke="black" cx="1152.47" cy="-381" rx="129.104" ry="18"/>
<text text-anchor="middle" x="1152.47" y="-376.8" font-family="Times,serif" font-size="14.00">FociPerGy_Si.350.MeV.n_8.1</text>
</g>
<!-- FociPerGy_Si.350.MeV.n_48.1 -->
<g id="node38" class="node"><title>FociPerGy_Si.350.MeV.n_48.1</title>
<ellipse fill="lightcoral" stroke="black" cx="1058.47" cy="-909" rx="133.761" ry="18"/>
<text text-anchor="middle" x="1058.47" y="-904.8" font-family="Times,serif" font-size="14.00">FociPerGy_Si.350.MeV.n_48.1</text>
</g>
<!-- FociPerGy_Ar.350.MeV.n_8.1 -->
<g id="node42" class="node"><title>FociPerGy_Ar.350.MeV.n_8.1</title>
<ellipse fill="#ee7621" stroke="black" cx="725.471" cy="-909" rx="131.373" ry="18"/>
<text text-anchor="middle" x="725.471" y="-904.8" font-family="Times,serif" font-size="14.00">FociPerGy_Ar.350.MeV.n_8.1</text>
</g>
<!-- FociPerGy_Ar.350.MeV.n_24.1 -->
<g id="node44" class="node"><title>FociPerGy_Ar.350.MeV.n_24.1</title>
<ellipse fill="#ee7621" stroke="black" cx="400.471" cy="-975" rx="136.03" ry="18"/>
<text text-anchor="middle" x="400.471" y="-970.8" font-family="Times,serif" font-size="14.00">FociPerGy_Ar.350.MeV.n_24.1</text>
</g>
<!-- FociPerGy_Fe.600.MeV.n_4.1&#45;&gt;FociPerGy_Ar.350.MeV.n_48 -->
<g id="edge73" class="edge"><title>FociPerGy_Fe.600.MeV.n_4.1&#45;&gt;FociPerGy_Ar.350.MeV.n_48</title>
<path fill="none" stroke="black" d="M427.061,-236.228C427,-236.22 426.939,-236.213 426.879,-236.205"/>
<polygon fill="black" stroke="black" points="437.062,-233.981 426.697,-236.182 436.172,-240.925 437.062,-233.981"/>
</g>
<!-- FociPerGy_Fe.600.MeV.n_4.1&#45;&gt;FociPerGy_Ar.350.MeV.n_48.1 -->
<g id="edge74" class="edge"><title>FociPerGy_Fe.600.MeV.n_4.1&#45;&gt;FociPerGy_Ar.350.MeV.n_48.1</title>
<path fill="none" stroke="black" d="M543.283,-230.671C554.923,-220.478 569.703,-207.535 582.447,-196.376"/>
<polygon fill="black" stroke="black" points="584.854,-198.92 590.072,-189.698 580.242,-193.653 584.854,-198.92"/>
</g>
</g>
</svg>

